<svg width="33" height="32" viewBox="0 0 33 32" fill="none" xmlns="http://www.w3.org/2000/svg">
<path fill-rule="evenodd" clip-rule="evenodd" d="M16.5 30.4C24.4529 30.4 30.9 23.9531 30.9 16C30.9 8.04711 24.4531 1.59997 16.5 1.59997C8.54711 1.59997 2.09997 8.04711 2.09997 16C2.09997 23.9529 8.54711 30.4 16.5 30.4ZM16.5 32C25.3365 32 32.5 24.8365 32.5 16C32.5 7.16338 25.3365 0 16.5 0C7.66338 0 0.5 7.16338 0.5 16C0.5 24.8365 7.66338 32 16.5 32Z" fill="#15A600"/>
<path fill-rule="evenodd" clip-rule="evenodd" d="M22.8999 16.0001C22.8999 16.2122 22.8156 16.4157 22.6656 16.5657C22.5155 16.7157 22.3121 16.8 22.0999 16.8H10.8998C10.6877 16.8 10.4842 16.7158 10.3342 16.5657C10.1841 16.4157 10.0999 16.2122 10.0999 16.0001C10.0999 15.7879 10.1841 15.5844 10.3342 15.4344C10.4842 15.2844 10.6877 15.2001 10.8998 15.2001H22.0998C22.3119 15.2001 22.5154 15.2844 22.6655 15.4344C22.8155 15.5844 22.8998 15.7879 22.8999 16.0001Z" fill="#15A600"/>
<path fill-rule="evenodd" clip-rule="evenodd" d="M16.4999 22.4C16.2878 22.4 16.0843 22.3157 15.9343 22.1657C15.7843 22.0157 15.7 21.8122 15.7 21.6001V10.4C15.7 10.1878 15.7842 9.98431 15.9343 9.83429C16.0843 9.68426 16.2878 9.59998 16.4999 9.59998C16.7121 9.59998 16.9156 9.68426 17.0656 9.83429C17.2156 9.98431 17.2999 10.1878 17.2999 10.4V21.5999C17.2999 21.8121 17.2156 22.0155 17.0656 22.1656C16.9156 22.3156 16.7121 22.4 16.4999 22.4Z" fill="#15A600"/>
</svg>
