<svg width="20" height="20" viewBox="0 0 20 20" fill="none" xmlns="http://www.w3.org/2000/svg">
<path d="M17.932 17L16.0805 13.7875L11.4543 16.4414L13.3131 19.6666C13.5609 20.0958 14.1738 20.1142 14.4468 19.7006L14.6739 19.3568L15.2476 17.7732L16.9833 18.0235L17.3946 17.9988C17.8892 17.9691 18.1797 17.4292 17.932 17Z" fill="#FF6B4D"/>
<path d="M17.932 17L16.0806 13.7875L15.3877 14.1851L17.0634 17.0569C17.2441 17.3699 17.1384 17.7417 16.876 17.9315C16.798 17.9879 16.9052 17.9639 16.9052 17.9639L16.9855 18.0233L17.3946 17.9987C17.8893 17.9691 18.1798 17.4292 17.932 17Z" fill="#F23C3C"/>
<path d="M3.81489 13.9062L2.02861 17C1.78083 17.4292 2.0713 17.9691 2.56603 17.9988L2.97732 18.0235L4.63728 17.9815L5.28669 19.3568L5.51372 19.7006C5.78681 20.1142 6.39962 20.0958 6.64743 19.6666L8.44665 16.5504L3.81489 13.9062Z" fill="#FF6B4D"/>
<path d="M16.9833 18.0235L15.0228 14.6279L12.7098 15.9549L14.6739 19.3568L15.1279 18.6692C15.242 18.4964 15.3947 18.3526 15.5739 18.2491C15.7532 18.1456 15.9541 18.0853 16.1607 18.0729L16.9833 18.0235ZM4.94558 14.6143L2.97729 18.0235L3.79983 18.0729C4.00646 18.0853 4.20736 18.1456 4.38662 18.2491C4.56589 18.3526 4.71859 18.4965 4.83265 18.6692L5.28667 19.3568L7.26144 15.9365L4.94558 14.6143Z" fill="#F3F5F9"/>
<path d="M13.5321 16.2304L14.7876 15.0907L15.6685 13.9644L17.0944 13.503C17.2578 13.3594 17.3966 13.19 17.5053 13.0016C17.7867 12.5142 17.8395 11.9578 17.6971 11.4561C17.5593 10.9703 17.6974 10.4547 18.0598 10.1031C18.4343 9.73981 18.6671 9.23125 18.6671 8.6682C18.6671 8.10547 18.4346 7.59715 18.0604 7.23387C17.6982 6.88211 17.56 6.36652 17.698 5.88082C17.8407 5.37891 17.788 4.82211 17.5065 4.33449C17.2251 3.84715 16.7696 3.5232 16.2639 3.39566C15.7743 3.27219 15.3969 2.89477 15.2736 2.40508C15.1462 1.89906 14.8222 1.44324 14.3346 1.16172C13.8472 0.880352 13.2908 0.827539 12.7891 0.969961C12.3033 1.10781 11.7877 0.969727 11.4361 0.607266C11.0728 0.232773 10.5643 0 10.0012 0C9.43839 0 8.93011 0.2325 8.56683 0.606641C8.21507 0.968906 7.69949 1.10711 7.21378 0.969024C6.71187 0.826328 6.15511 0.879024 5.66746 1.16059C5.18011 1.44195 4.85617 1.89746 4.72863 2.40313C4.60515 2.89273 4.22773 3.2702 3.73804 3.39348C3.23203 3.52086 2.77621 3.84488 2.49464 4.3325C2.21328 4.81984 2.16046 5.37629 2.30285 5.87797C2.4407 6.36375 2.30261 6.87934 1.94015 7.23094C1.56562 7.59426 1.33289 8.10281 1.33289 8.66586C1.33289 9.22859 1.56539 9.73691 1.93953 10.1002C2.30179 10.452 2.44 10.9675 2.30191 11.4532C2.15921 11.9552 2.21191 12.512 2.49343 12.9996C2.7748 13.4869 3.23031 13.8109 3.73597 13.9384C4.22558 14.0619 4.60304 14.4393 4.72632 14.929C4.85371 15.435 5.17773 15.8908 5.66539 16.1724C6.15273 16.4538 6.70917 16.5065 7.21085 16.3641C7.69664 16.2263 8.21222 16.3644 8.56382 16.7268C8.92714 17.1014 9.4357 17.3341 9.99874 17.3341C10.5615 17.3341 11.0698 17.1016 11.4331 16.7275C11.7848 16.3652 12.3004 16.227 12.7861 16.3651C12.8141 16.373 12.8423 16.3802 12.8706 16.3869L13.5321 16.2304Z" fill="#FFD659"/>
<path d="M10.3013 14.6279L12.0335 14.187L14.592 12.1003L15.1435 9.72126V6.14606L12.9705 3.58759L10.2658 2.68427H9.53836C6.4409 2.92052 4.0011 5.50868 4.0011 8.66669C4.0011 11.8247 6.44086 14.4128 9.53833 14.6491L10.3013 14.6279Z" fill="#FFB347"/>
<path d="M10.599 5.39968L11.2234 6.66487C11.2474 6.71334 11.2827 6.75526 11.3264 6.78702C11.3701 6.81879 11.4209 6.83945 11.4744 6.84722L12.8707 7.05011C13.4175 7.12956 13.6358 7.80155 13.2402 8.18725L12.2298 9.1721C12.1911 9.20982 12.1622 9.25639 12.1455 9.30779C12.1288 9.35919 12.1248 9.41387 12.1339 9.46714L12.3725 10.8578C12.4659 11.4024 11.8943 11.8177 11.4052 11.5605L10.1563 10.904C10.1085 10.8788 10.0552 10.8657 10.0012 10.8657C9.94713 10.8657 9.89389 10.8788 9.84606 10.904L8.59723 11.5605C8.10817 11.8176 7.53653 11.4024 7.62992 10.8578L7.86844 9.46714C7.87758 9.41387 7.87363 9.35918 7.85693 9.30779C7.84023 9.25639 7.81128 9.20982 7.77258 9.1721L6.76223 8.18725C6.36657 7.80155 6.58489 7.1296 7.13172 7.05011L8.52797 6.84722C8.58145 6.83944 8.63224 6.81878 8.67596 6.78702C8.71968 6.75525 8.75503 6.71333 8.77895 6.66487L9.40336 5.39968C9.64789 4.90417 10.3545 4.90417 10.599 5.39968Z" fill="#FFD659"/>
<path d="M18.6671 8.6682C18.6671 8.10547 18.4346 7.59715 18.0605 7.23387C17.6982 6.88211 17.56 6.36652 17.6981 5.88082C17.8408 5.3789 17.7881 4.82211 17.5065 4.33449C17.2251 3.84715 16.7696 3.5232 16.264 3.39566C15.7743 3.27219 15.3969 2.89476 15.2736 2.40508C15.1462 1.89906 14.8222 1.44324 14.3346 1.16172C13.8742 0.895897 13.3521 0.834335 12.8728 0.948358C13.0609 0.993135 13.2416 1.065 13.409 1.16172C13.8967 1.44324 14.2207 1.8991 14.3481 2.40508C14.4714 2.89476 14.8488 3.27219 15.3384 3.39566C15.8441 3.5232 16.2996 3.84715 16.581 4.33449C16.8625 4.82211 16.9152 5.3789 16.7725 5.88082C16.6344 6.36652 16.7726 6.88211 17.1349 7.23387C17.509 7.59715 17.7415 8.10543 17.7415 8.6682C17.7415 9.23129 17.5088 9.7398 17.1343 10.1031C16.7719 10.4547 16.6337 10.9703 16.7716 11.4561C16.914 11.9578 16.8612 12.5142 16.5798 13.0016C16.2983 13.4892 15.8424 13.8132 15.3364 13.9406C14.8467 14.0639 14.4694 14.4414 14.3458 14.931C14.2183 15.4366 13.8944 15.8921 13.407 16.1735C13.2395 16.2702 13.0589 16.3421 12.8707 16.3869C13.3501 16.5009 13.8721 16.4394 14.3326 16.1735C14.8199 15.8921 15.1439 15.4366 15.2714 14.931C15.3949 14.4414 15.7723 14.0639 16.262 13.9406C16.768 13.8132 17.2238 13.4892 17.5054 13.0016C17.7867 12.5142 17.8395 11.9578 17.6971 11.4561C17.5593 10.9703 17.6974 10.4547 18.0598 10.1031C18.4344 9.7398 18.6671 9.23125 18.6671 8.6682Z" fill="#FFC552"/>
<path d="M10.0012 2.66669C9.84548 2.66669 9.69119 2.67262 9.53845 2.6843C12.6359 2.92059 15.0757 5.50872 15.0757 8.66673C15.0757 11.8247 12.6359 14.4129 9.53845 14.6491C9.69119 14.6608 9.84552 14.6668 10.0012 14.6668C13.3149 14.6668 16.0012 11.9805 16.0012 8.66676C16.0013 5.35298 13.3149 2.66669 10.0012 2.66669Z" fill="#FF9E3D"/>
<path d="M16.8715 18.0302L16.9833 18.0235L16.9132 17.9021C16.8246 17.9766 16.7179 18.0264 16.6039 18.0462L16.8715 18.0302Z" fill="#E1E6F0"/>
</svg>
