<svg width="20" height="20" viewBox="0 0 20 20" fill="none" xmlns="http://www.w3.org/2000/svg">
<path d="M12.5 10.7916H6.66663C6.32496 10.7916 6.04163 10.5083 6.04163 10.1666C6.04163 9.82496 6.32496 9.54163 6.66663 9.54163H12.5C12.8416 9.54163 13.125 9.82496 13.125 10.1666C13.125 10.5083 12.8416 10.7916 12.5 10.7916ZM10.3166 14.125H6.66663C6.32496 14.125 6.04163 13.8416 6.04163 13.5C6.04163 13.1583 6.32496 12.875 6.66663 12.875H10.3166C10.6583 12.875 10.9416 13.1583 10.9416 13.5C10.9416 13.8416 10.6583 14.125 10.3166 14.125ZM11.6666 5.62496H8.33329C7.53329 5.62496 6.04163 5.62496 6.04163 3.33329C6.04163 1.04163 7.53329 1.04163 8.33329 1.04163H11.6666C12.4666 1.04163 13.9583 1.04163 13.9583 3.33329C13.9583 4.13329 13.9583 5.62496 11.6666 5.62496ZM8.33329 2.29163C7.50829 2.29163 7.29163 2.29163 7.29163 3.33329C7.29163 4.37496 7.50829 4.37496 8.33329 4.37496H11.6666C12.7083 4.37496 12.7083 4.15829 12.7083 3.33329C12.7083 2.29163 12.4916 2.29163 11.6666 2.29163H8.33329Z" fill="#15A600"/>
<path d="M12.5 18.9583H7.5C2.81667 18.9583 1.875 16.8083 1.875 13.3333V8.33332C1.875 4.53332 3.25 2.90832 6.63333 2.73332C6.96667 2.71665 7.275 2.97498 7.29167 3.32498C7.30833 3.67498 7.04167 3.95832 6.7 3.97498C4.33333 4.10832 3.125 4.81665 3.125 8.33332V13.3333C3.125 16.4166 3.73333 17.7083 7.5 17.7083H12.5C16.2667 17.7083 16.875 16.4166 16.875 13.3333V8.33332C16.875 4.81665 15.6667 4.10832 13.3 3.97498C12.9583 3.95832 12.6917 3.65832 12.7083 3.31665C12.725 2.97498 13.025 2.70832 13.3667 2.72498C16.75 2.90832 18.125 4.53332 18.125 8.32498V13.325C18.125 16.8083 17.1833 18.9583 12.5 18.9583Z" fill="#15A600"/>
</svg>
