<svg width="24" height="25" viewBox="0 0 24 25" fill="none" xmlns="http://www.w3.org/2000/svg">
<path d="M21 12.5628V11.1388C21 8.75182 20.0517 6.46263 18.3639 4.7748C16.6761 3.08698 14.3869 2.13876 12 2.13876C9.613 2.13876 7.32382 3.08698 5.63599 4.7748C3.94816 6.46263 2.99995 8.75182 2.99995 11.1388V12.5628C1.95111 13.0246 1.09275 13.8327 0.568572 14.8518C0.0443932 15.8709 -0.113788 17.0392 0.120508 18.161C0.354805 19.2828 0.967358 20.2901 1.85562 21.0142C2.74388 21.7383 3.85394 22.1353 4.99995 22.1388C5.53038 22.1388 6.03909 21.9281 6.41417 21.553C6.78924 21.1779 6.99995 20.6692 6.99995 20.1388V14.1388C6.99995 13.6083 6.78924 13.0996 6.41417 12.7246C6.03909 12.3495 5.53038 12.1388 4.99995 12.1388V11.1388C4.99995 9.28225 5.73745 7.50177 7.0502 6.18902C8.36296 4.87626 10.1434 4.13876 12 4.13876C13.8565 4.13876 15.6369 4.87626 16.9497 6.18902C18.2625 7.50177 19 9.28225 19 11.1388V12.1388C18.4695 12.1388 17.9608 12.3495 17.5857 12.7246C17.2107 13.0996 17 13.6083 17 14.1388V20.1388H14C13.7347 20.1388 13.4804 20.2441 13.2928 20.4317C13.1053 20.6192 13 20.8735 13 21.1388C13 21.404 13.1053 21.6583 13.2928 21.8459C13.4804 22.0334 13.7347 22.1388 14 22.1388H19C20.146 22.1353 21.256 21.7383 22.1443 21.0142C23.0325 20.2901 23.6451 19.2828 23.8794 18.161C24.1137 17.0392 23.9555 15.8709 23.4313 14.8518C22.9072 13.8327 22.0488 13.0246 21 12.5628ZM4.99995 20.1388C4.2043 20.1388 3.44124 19.8227 2.87863 19.2601C2.31602 18.6975 1.99995 17.9344 1.99995 17.1388C1.99995 16.3431 2.31602 15.5801 2.87863 15.0174C3.44124 14.4548 4.2043 14.1388 4.99995 14.1388V20.1388ZM19 20.1388V14.1388C19.7956 14.1388 20.5587 14.4548 21.1213 15.0174C21.6839 15.5801 22 16.3431 22 17.1388C22 17.9344 21.6839 18.6975 21.1213 19.2601C20.5587 19.8227 19.7956 20.1388 19 20.1388Z" fill="#15A600"/>
</svg>
