<svg width="14" height="16" viewBox="0 0 14 16" fill="none" xmlns="http://www.w3.org/2000/svg">
<path d="M12.9999 2.66667H10.9333C10.7785 1.91428 10.3691 1.23823 9.77409 0.752479C9.17904 0.266727 8.43472 0.000969683 7.66659 0L6.33325 0C5.56512 0.000969683 4.8208 0.266727 4.22575 0.752479C3.63071 1.23823 3.22132 1.91428 3.06659 2.66667H0.999919C0.823108 2.66667 0.653538 2.7369 0.528514 2.86193C0.40349 2.98695 0.333252 3.15652 0.333252 3.33333C0.333252 3.51014 0.40349 3.67971 0.528514 3.80474C0.653538 3.92976 0.823108 4 0.999919 4H1.66659V12.6667C1.66764 13.5504 2.01917 14.3976 2.64407 15.0225C3.26896 15.6474 4.11619 15.9989 4.99992 16H8.99992C9.88365 15.9989 10.7309 15.6474 11.3558 15.0225C11.9807 14.3976 12.3322 13.5504 12.3333 12.6667V4H12.9999C13.1767 4 13.3463 3.92976 13.4713 3.80474C13.5963 3.67971 13.6666 3.51014 13.6666 3.33333C13.6666 3.15652 13.5963 2.98695 13.4713 2.86193C13.3463 2.7369 13.1767 2.66667 12.9999 2.66667ZM6.33325 1.33333H7.66659C8.0801 1.33384 8.48334 1.46225 8.82099 1.70096C9.15865 1.93967 9.4142 2.27699 9.55259 2.66667H4.44725C4.58564 2.27699 4.84119 1.93967 5.17884 1.70096C5.5165 1.46225 5.91974 1.33384 6.33325 1.33333ZM10.9999 12.6667C10.9999 13.1971 10.7892 13.7058 10.4141 14.0809C10.0391 14.456 9.53035 14.6667 8.99992 14.6667H4.99992C4.46949 14.6667 3.96078 14.456 3.58571 14.0809C3.21063 13.7058 2.99992 13.1971 2.99992 12.6667V4H10.9999V12.6667Z" fill="#1F1F1F"/>
<path d="M5.66667 12.0001C5.84348 12.0001 6.01305 11.9298 6.13807 11.8048C6.2631 11.6798 6.33333 11.5102 6.33333 11.3334V7.33341C6.33333 7.1566 6.2631 6.98703 6.13807 6.86201C6.01305 6.73699 5.84348 6.66675 5.66667 6.66675C5.48986 6.66675 5.32029 6.73699 5.19526 6.86201C5.07024 6.98703 5 7.1566 5 7.33341V11.3334C5 11.5102 5.07024 11.6798 5.19526 11.8048C5.32029 11.9298 5.48986 12.0001 5.66667 12.0001ZM8.33333 12.0001C8.51014 12.0001 8.67971 11.9298 8.80474 11.8048C8.92976 11.6798 9 11.5102 9 11.3334V7.33341C9 7.1566 8.92976 6.98703 8.80474 6.86201C8.67971 6.73699 8.51014 6.66675 8.33333 6.66675C8.15652 6.66675 7.98695 6.73699 7.86193 6.86201C7.7369 6.98703 7.66667 7.1566 7.66667 7.33341V11.3334C7.66667 11.5102 7.7369 11.6798 7.86193 11.8048C7.98695 11.9298 8.15652 12.0001 8.33333 12.0001Z" fill="#1F1F1F"/>
</svg>
