<svg width="20" height="20" viewBox="0 0 20 20" fill="none" xmlns="http://www.w3.org/2000/svg">
<path d="M4.28505 9.84062C3.78196 9.84274 3.2854 9.72673 2.83533 9.50191C2.38527 9.2771 1.99427 8.94976 1.6938 8.54624C1.38978 8.14533 1.18412 7.67865 1.09337 7.18375C1.00262 6.68885 1.02931 6.17956 1.1713 5.69687L1.98068 2.90187C2.17124 2.25265 2.5664 1.68236 3.10731 1.27592C3.64823 0.869469 4.30596 0.648614 4.98255 0.64624H8.42318L7.49443 7.06374C7.26505 8.64686 5.88505 9.84062 4.28505 9.84062ZM4.98255 1.89624C4.57654 1.89772 4.18187 2.0303 3.8573 2.27423C3.53273 2.51817 3.29563 2.8604 3.1813 3.24999L2.37193 6.04499C2.1963 6.65249 2.31318 7.28999 2.69318 7.79561C3.07318 8.30124 3.65318 8.59061 4.28568 8.59061C4.76392 8.58843 5.22561 8.41522 5.58727 8.10228C5.94892 7.78934 6.18668 7.35734 6.25755 6.88437L6.97943 1.89687H4.98255V1.89624Z" fill="#D61842"/>
<path d="M10 9.84062C9.48212 9.84087 8.97021 9.72965 8.49908 9.51452C8.02794 9.29939 7.60863 8.98539 7.26961 8.59384C6.93059 8.20229 6.67981 7.74236 6.53429 7.2453C6.38878 6.74823 6.35195 6.22568 6.4263 5.71311L7.16005 0.64624H12.84L13.5738 5.71249C13.6479 6.22502 13.6109 6.74749 13.4654 7.24447C13.3198 7.74144 13.069 8.20128 12.73 8.59278C12.391 8.98429 11.9718 9.29829 11.5008 9.51348C11.0297 9.72868 10.5179 9.84066 10 9.84062ZM8.24255 1.89624L7.6638 5.89249C7.61459 6.22795 7.63821 6.57007 7.73303 6.89559C7.82786 7.2211 7.99167 7.52238 8.21334 7.77893C8.435 8.03548 8.70931 8.24129 9.01762 8.38235C9.32593 8.52342 9.661 8.59643 10 8.59643C10.3391 8.59643 10.6742 8.52342 10.9825 8.38235C11.2908 8.24129 11.5651 8.03548 11.7868 7.77893C12.0084 7.52238 12.1722 7.2211 12.2671 6.89559C12.3619 6.57007 12.3855 6.22795 12.3363 5.89249L11.7575 1.89624H8.24255Z" fill="#D61842"/>
<path d="M15.715 9.84062C14.115 9.84062 12.7357 8.64687 12.5063 7.06374L11.5775 0.64624H15.0182C15.6947 0.648614 16.3525 0.869469 16.8934 1.27592C17.4343 1.68236 17.8295 2.25266 18.02 2.90187L18.8294 5.69687C19.1157 6.68499 18.925 7.72374 18.3069 8.54624C17.6888 9.36874 16.7444 9.84062 15.7157 9.84062H15.715ZM13.0207 1.89624L13.7425 6.88374C13.8133 7.35677 14.051 7.78884 14.4127 8.10181C14.7744 8.41477 15.2361 8.58794 15.7144 8.58999C16.3469 8.58999 16.9269 8.29999 17.3069 7.79499C17.6869 7.28999 17.8038 6.65187 17.6282 6.04437L16.8188 3.24937C16.7044 2.85978 16.4673 2.51754 16.1428 2.27361C15.8182 2.02967 15.4235 1.8971 15.0175 1.89562L13.0207 1.89624ZM11.4063 19.3537H5.56503C4.9969 19.3537 4.42503 19.2587 3.91003 19.0187C3.1885 18.6876 2.59029 18.1366 2.20105 17.4447C1.81181 16.7528 1.65153 15.9554 1.74315 15.1669L2.48315 8.86624L3.7244 9.01124L2.9844 15.3119C2.9434 15.6624 2.97703 16.0176 3.08308 16.3542C3.18913 16.6908 3.36521 17.0011 3.59974 17.2648C3.83427 17.5285 4.12194 17.7395 4.44385 17.8841C4.76576 18.0287 5.11463 18.1036 5.46753 18.1037H11.4057C11.5714 18.1037 11.7304 18.1696 11.8476 18.2868C11.9648 18.404 12.0307 18.563 12.0307 18.7287C12.0307 18.8945 11.9648 19.0535 11.8476 19.1707C11.7304 19.2879 11.572 19.3537 11.4063 19.3537Z" fill="#D61842"/>
<path d="M16.7238 12.8312L16.275 9.01121L17.5163 8.86621L17.965 12.6856C17.9763 12.7679 17.9711 12.8517 17.9496 12.9319C17.9281 13.0122 17.8909 13.0874 17.84 13.1531C17.7891 13.2188 17.7257 13.2737 17.6533 13.3146C17.581 13.3555 17.5012 13.3815 17.4187 13.3912C17.3361 13.4009 17.2525 13.394 17.1726 13.371C17.0928 13.348 17.0183 13.3093 16.9536 13.2571C16.8889 13.205 16.8353 13.1404 16.7958 13.0673C16.7564 12.9942 16.7319 12.9139 16.7238 12.8312ZM16.7738 19.3743C16.3828 19.3742 15.9974 19.282 15.6488 19.105L9.28192 15.8793C8.59039 15.5271 8.03052 14.9618 7.68504 14.2668L7.39692 13.6818C7.15192 13.1862 7.15504 12.6187 7.40504 12.1256C7.65504 11.6325 8.11067 11.2943 8.65504 11.1987L9.29629 11.0862C10.0612 10.9529 10.8487 11.0697 11.5419 11.4193L17.9082 14.6443C18.499 14.9447 18.9466 15.467 19.1529 16.0969C19.3592 16.7267 19.3074 17.4126 19.0088 18.0043C18.7991 18.4168 18.4793 18.7631 18.0847 19.0048C17.6902 19.2465 17.2365 19.3748 16.7738 19.3743ZM9.91504 12.2818C9.78009 12.2818 9.6454 12.2938 9.51254 12.3175L8.87129 12.43C8.7963 12.443 8.72541 12.4734 8.6643 12.5188C8.60319 12.5641 8.55357 12.6232 8.51942 12.6912C8.48465 12.7589 8.46631 12.8339 8.46588 12.91C8.46544 12.9861 8.48293 13.0612 8.51692 13.1293L8.80504 13.7137C9.03039 14.1669 9.39542 14.5356 9.84629 14.7656L16.2125 17.9906C16.8282 18.3006 17.5813 18.0556 17.8925 17.44C18.0418 17.1441 18.0677 16.8011 17.9645 16.4861C17.8613 16.1712 17.6374 15.9101 17.3419 15.76L10.9757 12.535C10.6463 12.3691 10.2826 12.2828 9.91379 12.2831L9.91504 12.2818Z" fill="#D61842"/>
<path d="M15.7932 16.7138C15.7211 16.6746 15.6575 16.6216 15.6059 16.5577C15.5543 16.4939 15.5158 16.4205 15.4927 16.3418C15.4695 16.263 15.4621 16.1805 15.4709 16.0989C15.4797 16.0173 15.5045 15.9383 15.5439 15.8663L16.2945 14.4888L17.392 15.0869L16.6414 16.4644C16.6021 16.5365 16.549 16.6002 16.4852 16.6518C16.4213 16.7034 16.3479 16.7419 16.2691 16.7651C16.1903 16.7884 16.1078 16.7958 16.0261 16.7871C15.9445 16.7784 15.8653 16.7531 15.7932 16.7138Z" fill="#D61842"/>
</svg>
