<svg width="49" height="49" viewBox="0 0 49 49" fill="none" xmlns="http://www.w3.org/2000/svg">
<g clip-path="url(#clip0_3110_4117)">
<path fill-rule="evenodd" clip-rule="evenodd" d="M42.9155 35.4937C43.0561 35.6345 43.135 35.8253 43.1349 36.0243C43.1348 36.2232 43.0556 36.414 42.9148 36.5546C42.7741 36.6952 42.5832 36.7741 42.3843 36.774C42.1853 36.7739 41.9946 36.6947 41.854 36.5539L39.95 34.65V40.6763C39.95 40.8752 39.871 41.066 39.7303 41.2066C39.5897 41.3473 39.3989 41.4263 39.2 41.4263C39.0011 41.4263 38.8103 41.3473 38.6697 41.2066C38.529 41.066 38.45 40.8752 38.45 40.6763V34.65L36.5459 36.5537C36.4038 36.6863 36.2157 36.7586 36.0213 36.7553C35.8269 36.752 35.6413 36.6733 35.5038 36.5358C35.3663 36.3983 35.2876 36.2128 35.2842 36.0184C35.2809 35.824 35.3531 35.6359 35.4858 35.4937L38.6695 32.3092C38.8103 32.1686 39.0012 32.0896 39.2002 32.0896C39.3993 32.0896 39.5901 32.1686 39.731 32.3092L42.9155 35.4937ZM46.9422 37.6977C47.0656 36.681 46.9875 35.65 46.7125 34.6634C46.4374 33.6769 45.9707 32.7542 45.339 31.9481C44.7073 31.1419 43.923 30.4681 43.0309 29.9651C42.1388 29.4621 41.1564 29.1397 40.1397 29.0164C39.8227 28.9779 39.5037 28.9584 39.1843 28.958C37.6827 28.9611 36.2139 29.3976 34.9543 30.2152C33.6947 31.0328 32.6979 32.1966 32.0837 33.5669C31.4695 34.9372 31.264 36.4556 31.4918 37.9399C31.7196 39.4242 32.3711 40.8111 33.368 41.9341C34.3648 43.0571 35.6648 43.8685 37.1115 44.2707C38.5583 44.6728 40.0905 44.6488 41.5239 44.2014C42.9574 43.754 44.2312 42.9022 45.1923 41.7485C46.1534 40.5947 46.7611 39.188 46.9422 37.6973V37.6977ZM6.39987 40.7821H30.8153C30.0583 39.2052 29.7616 37.4469 29.9591 35.709C30.1567 33.9711 30.8405 32.3242 31.9321 30.9575C33.0236 29.5908 34.4786 28.5598 36.1298 27.9829C37.781 27.406 39.5615 27.3066 41.2666 27.6962V21.7855L36.3276 16.8455L26.0818 24.2313L29.1363 26.3725C29.2191 26.4281 29.29 26.4997 29.3447 26.583C29.3995 26.6664 29.4371 26.7598 29.4554 26.8578C29.4736 26.9559 29.4721 27.0566 29.451 27.1541C29.4298 27.2515 29.3895 27.3438 29.3322 27.4255C29.275 27.5072 29.202 27.5766 29.1176 27.6297C29.0332 27.6829 28.9391 27.7186 28.8407 27.7349C28.7423 27.7513 28.6416 27.7478 28.5446 27.7247C28.4476 27.7016 28.3561 27.6595 28.2756 27.6006L12.8818 16.81L2 26.0125V36.3812C2.00124 37.5478 2.46513 38.6662 3.2899 39.4911C4.11468 40.316 5.23298 40.7801 6.3995 40.7816L6.39987 40.7821ZM6.39987 4.948H36.8667C38.0333 4.94921 39.1517 5.41315 39.9766 6.238C40.8014 7.06285 41.2654 8.18125 41.2666 9.34778V19.6638L36.9371 15.3347C36.8111 15.2086 36.6444 15.1314 36.4668 15.117C36.2891 15.1026 36.1122 15.1518 35.9675 15.2559L24.7812 23.3203L13.2697 15.2502C13.1339 15.1552 12.9705 15.1079 12.805 15.1155C12.6395 15.1231 12.4811 15.1852 12.3546 15.2922L2 24.0487V9.34778C2.00119 8.18123 2.46513 7.06279 3.29001 6.23791C4.11489 5.41303 5.23332 4.9491 6.39987 4.9479V4.948ZM46.5193 31.0236C45.5358 29.7651 44.2428 28.7832 42.7664 28.1736V9.34778C42.7647 7.7836 42.1426 6.28398 41.0366 5.17793C39.9305 4.07188 38.4309 3.44974 36.8667 3.448H6.39987C4.83566 3.44969 3.336 4.07181 2.22993 5.17786C1.12386 6.28392 0.501712 7.78357 0.5 9.34778V36.3816C0.501761 37.9459 1.12388 39.4456 2.2299 40.5518C3.33592 41.6579 4.83553 42.2803 6.39978 42.2822H31.7217C31.7734 42.3526 31.8269 42.4229 31.881 42.4919C32.634 43.453 33.569 44.2565 34.6325 44.8563C35.696 45.4561 36.8673 45.8406 38.0794 45.9878C39.2915 46.135 40.5207 46.042 41.6969 45.7141C42.8731 45.3862 43.9731 44.8299 44.9343 44.0769C45.8955 43.3239 46.6989 42.3889 47.2987 41.3254C47.8986 40.2619 48.2831 39.0906 48.4302 37.8785C48.5774 36.6664 48.4844 35.4372 48.1566 34.261C47.8287 33.0849 47.2724 31.9848 46.5193 31.0236ZM24.1477 10.2775C24.8277 10.2775 25.4924 10.4791 26.0578 10.8569C26.6231 11.2346 27.0638 11.7715 27.324 12.3997C27.5843 13.028 27.6524 13.7192 27.5197 14.3861C27.3871 15.053 27.0597 15.6656 26.5789 16.1465C26.0981 16.6273 25.4855 16.9547 24.8186 17.0874C24.1517 17.2201 23.4604 17.152 22.8322 16.8918C22.204 16.6316 21.667 16.191 21.2892 15.6256C20.9115 15.0603 20.7098 14.3956 20.7098 13.7156C20.711 12.8042 21.0737 11.9305 21.7181 11.286C22.3626 10.6416 23.2363 10.279 24.1477 10.2777V10.2775ZM24.1477 18.6532C23.1711 18.6532 22.2164 18.3637 21.4044 17.8211C20.5923 17.2785 19.9594 16.5074 19.5857 15.6051C19.2119 14.7028 19.1141 13.71 19.3046 12.7521C19.4952 11.7943 19.9654 10.9145 20.656 10.2239C21.3466 9.5333 22.2264 9.06301 23.1842 8.87248C24.1421 8.68194 25.1349 8.77972 26.0372 9.15345C26.9395 9.52718 27.7106 10.1601 28.2532 10.9721C28.7958 11.7841 29.0854 12.7388 29.0854 13.7154C29.0839 15.0245 28.5632 16.2796 27.6375 17.2053C26.7118 18.1309 25.4568 18.6517 24.1477 18.6532Z" fill="#B0B0B0"/>
</g>
<defs>
<clipPath id="clip0_3110_4117">
<rect width="48" height="48" fill="white" transform="translate(0.5 0.75)"/>
</clipPath>
</defs>
</svg>
