<svg width="39" height="33" viewBox="0 0 39 33" fill="none" xmlns="http://www.w3.org/2000/svg">
<path d="M28.015 32.7502C27.7527 32.7502 27.4841 32.7196 27.2186 32.6542L3.07009 26.6299C1.41469 26.2051 0.427703 24.6077 0.861855 23.0657L3.90872 12.4865C4.02116 12.098 4.44907 11.8725 4.86448 11.9715C5.28145 12.0748 5.5282 12.4748 5.41732 12.8618L2.37201 23.4381C2.15494 24.2091 2.65156 25.0122 3.48082 25.226L27.6199 31.2474C28.4492 31.4511 29.305 30.9913 29.5205 30.2232L30.7402 26.0131C30.8526 25.6246 31.2805 25.3933 31.6975 25.4995C32.1145 25.6043 32.3597 26.0043 32.2488 26.3913L31.0307 30.5956C30.6637 31.8904 29.3987 32.7502 28.015 32.7502Z" fill="#B0B0B0"/>
<path d="M35.1161 24.0267H10.129C8.40645 24.0267 7.00562 22.7217 7.00562 21.1171L7.00562 3.65969C7.00562 2.05506 8.40645 0.750122 10.129 0.750122L35.1161 0.750122C36.8387 0.750122 38.2395 2.05506 38.2395 3.65969V21.1171C38.2395 22.7217 36.8387 24.0267 35.1161 24.0267ZM10.129 2.20491C9.26851 2.20491 8.56731 2.85811 8.56731 3.65969V21.1171C8.56731 21.9187 9.26851 22.5719 10.129 22.5719H35.1161C35.9766 22.5719 36.6778 21.9187 36.6778 21.1171V3.65969C36.6778 2.85811 35.9766 2.20491 35.1161 2.20491L10.129 2.20491Z" fill="#B0B0B0"/>
<path d="M14.8139 10.9345C13.0914 10.9345 11.6906 9.62956 11.6906 8.02493C11.6906 6.4203 13.0914 5.11536 14.8139 5.11536C16.5365 5.11536 17.9373 6.4203 17.9373 8.02493C17.9373 9.62956 16.5365 10.9345 14.8139 10.9345ZM14.8139 6.57014C13.9534 6.57014 13.2522 7.22334 13.2522 8.02493C13.2522 8.82651 13.9534 9.47971 14.8139 9.47971C15.6744 9.47971 16.3756 8.82651 16.3756 8.02493C16.3756 7.22334 15.6744 6.57014 14.8139 6.57014Z" fill="#B0B0B0"/>
<path d="M7.89562 22.4705C7.69572 22.4705 7.49582 22.3992 7.34278 22.2581C7.03825 21.9744 7.03825 21.5132 7.34278 21.2295L14.7187 14.3586C15.6026 13.5352 17.1471 13.5352 18.031 14.3586L20.2268 16.404L26.3049 9.61017C26.7468 9.117 27.3965 8.8304 28.0883 8.82458H28.1055C28.7895 8.82458 29.4376 9.10099 29.8843 9.58544L38.0519 18.4625C38.333 18.7666 38.2955 19.2263 37.9676 19.4882C37.6412 19.75 37.1493 19.7166 36.8666 19.4096L28.6989 10.5325C28.5475 10.3696 28.3382 10.2794 28.1055 10.2794C27.9431 10.2663 27.6573 10.371 27.5058 10.5412L20.8795 17.9475C20.739 18.1047 20.5344 18.1992 20.3142 18.208C20.0924 18.2225 19.8816 18.141 19.727 17.9956L16.9269 15.3871C16.6317 15.1136 16.1179 15.1136 15.8228 15.3871L8.44689 22.2581C8.29541 22.3992 8.09551 22.4705 7.89562 22.4705Z" fill="#B0B0B0"/>
</svg>
