<svg width="64" height="57" viewBox="0 0 64 57" fill="none" xmlns="http://www.w3.org/2000/svg">
<path d="M20.5045 55.4419C9.45595 53.4511 0.398122 41.7058 0.0995123 28.6665C-0.0995609 19.8078 0.0995366 10.949 0 2.09027C0 0.597218 0.497677 0 1.89119 0C14.3333 0.59722 24.9837 12.7407 25.4813 26.9744C25.7799 36.0322 25.6804 44.9905 25.5809 54.0484C25.5809 55.7405 25.0832 56.3377 23.5901 56.0391C22.5948 55.7405 21.5994 55.6409 20.5045 55.4419Z" fill="#C10606"/>
<path d="M36.0318 53.0532C30.5573 48.8726 27.6707 43.2986 27.5712 36.0324C28.467 35.3356 29.2633 35.5347 30.0596 35.5347C35.335 35.5347 40.71 35.5347 45.9854 35.5347C54.9437 35.5347 62.2099 42.5023 63.8025 52.4559C64.3002 55.6411 64.0016 56.1388 61.2146 56.1388C56.0386 56.1388 50.8627 56.1388 45.6868 56.1388C42.3026 56.0392 39.1174 55.1434 36.0318 53.0532Z" fill="#15A600"/>
<path d="M43.895 10.4513C43.895 13.3378 43.9945 16.0253 43.4969 18.7128C42.1033 25.8794 36.3302 31.9512 30.0594 32.847C27.8696 33.1456 27.3719 32.847 27.4715 30.259C27.7701 25.6804 27.1729 21.1017 27.6706 16.523C28.5664 7.86331 34.1404 1.2939 41.7052 0.198996C43.4969 -0.0996134 43.9945 0.597139 43.895 2.3888C43.7955 4.97675 43.895 7.5647 43.895 10.4513Z" fill="#15A600"/>
</svg>
