<svg width="20" height="21" viewBox="0 0 20 21" fill="none" xmlns="http://www.w3.org/2000/svg">
<g clip-path="url(#clip0_2775_7041)">
<path d="M15.8333 0.5H4.16667C3.062 0.501323 2.00296 0.940735 1.22185 1.72185C0.440735 2.50296 0.00132321 3.562 0 4.66667L0 16.3333C0.00132321 17.438 0.440735 18.497 1.22185 19.2782C2.00296 20.0593 3.062 20.4987 4.16667 20.5H15.8333C16.938 20.4987 17.997 20.0593 18.7782 19.2782C19.5593 18.497 19.9987 17.438 20 16.3333V4.66667C19.9987 3.562 19.5593 2.50296 18.7782 1.72185C17.997 0.940735 16.938 0.501323 15.8333 0.5ZM4.16667 2.16667H15.8333C16.4964 2.16667 17.1323 2.43006 17.6011 2.8989C18.0699 3.36774 18.3333 4.00363 18.3333 4.66667V16.3333C18.3319 16.7046 18.2464 17.0707 18.0833 17.4042L10.4475 9.76833C10.0606 9.38131 9.6012 9.07429 9.0956 8.86483C8.59001 8.65537 8.0481 8.54756 7.50083 8.54756C6.95357 8.54756 6.41166 8.65537 5.90606 8.86483C5.40047 9.07429 4.94109 9.38131 4.55417 9.76833L1.66667 12.655V4.66667C1.66667 4.00363 1.93006 3.36774 2.3989 2.8989C2.86774 2.43006 3.50363 2.16667 4.16667 2.16667ZM4.16667 18.8333C3.50363 18.8333 2.86774 18.5699 2.3989 18.1011C1.93006 17.6323 1.66667 16.9964 1.66667 16.3333V15.0117L5.73167 10.9467C5.96383 10.7144 6.2395 10.5301 6.54292 10.4043C6.84634 10.2786 7.17156 10.2139 7.5 10.2139C7.82844 10.2139 8.15366 10.2786 8.45708 10.4043C8.7605 10.5301 9.03617 10.7144 9.26833 10.9467L16.9042 18.5833C16.5707 18.7464 16.2046 18.8319 15.8333 18.8333H4.16667Z" fill="#15A600"/>
<path d="M13.3334 9.24996C13.9103 9.24996 14.4742 9.0789 14.9538 8.75841C15.4335 8.43793 15.8073 7.98241 16.0281 7.44945C16.2488 6.9165 16.3066 6.33006 16.194 5.76428C16.0815 5.1985 15.8037 4.6788 15.3958 4.2709C14.9879 3.863 14.4682 3.58521 13.9024 3.47267C13.3366 3.36013 12.7502 3.41789 12.2173 3.63865C11.6843 3.8594 11.2288 4.23324 10.9083 4.71288C10.5878 5.19252 10.4167 5.75643 10.4167 6.33329C10.4167 7.10684 10.724 7.84871 11.271 8.39569C11.818 8.94267 12.5599 9.24996 13.3334 9.24996ZM13.3334 5.08329C13.5806 5.08329 13.8223 5.15661 14.0279 5.29396C14.2334 5.43131 14.3937 5.62653 14.4883 5.85494C14.5829 6.08335 14.6076 6.33468 14.5594 6.57716C14.5112 6.81963 14.3921 7.04236 14.2173 7.21718C14.0425 7.39199 13.8198 7.51104 13.5773 7.55928C13.3348 7.60751 13.0835 7.58275 12.8551 7.48814C12.6267 7.39353 12.4314 7.23332 12.2941 7.02776C12.1567 6.8222 12.0834 6.58052 12.0834 6.33329C12.0834 6.00177 12.2151 5.68383 12.4495 5.44941C12.684 5.21499 13.0019 5.08329 13.3334 5.08329Z" fill="#15A600"/>
</g>
<defs>
<clipPath id="clip0_2775_7041">
<rect width="20" height="20" fill="white" transform="translate(0 0.5)"/>
</clipPath>
</defs>
</svg>
