<svg width="20" height="20" viewBox="0 0 20 20" fill="none" xmlns="http://www.w3.org/2000/svg">
<path d="M15.9814 2.47758C14.3838 0.879883 12.2595 0 10.0001 0C7.74061 0 5.61631 0.879883 4.01866 2.47758C2.42096 4.07531 1.54108 6.19953 1.54108 8.45895C1.54108 13.0297 5.86287 16.8315 8.18471 18.8739C8.50737 19.1577 8.786 19.4029 9.00799 19.6102C9.28612 19.87 9.64311 19.9999 10 19.9999C10.357 19.9999 10.7139 19.87 10.9921 19.6102C11.2141 19.4028 11.4927 19.1577 11.8154 18.8739C14.1372 16.8314 18.459 13.0297 18.459 8.45895C18.459 6.19953 17.5791 4.07531 15.9814 2.47758ZM11.0415 17.9943C10.7118 18.2843 10.4271 18.5348 10.1923 18.7541C10.0845 18.8548 9.91557 18.8548 9.80768 18.7541C9.57295 18.5348 9.28819 18.2843 8.95846 17.9943C6.77565 16.0741 2.71256 12.5 2.71256 8.45898C2.71256 4.4407 5.98166 1.1716 9.99998 1.1716C14.0183 1.1716 17.2874 4.4407 17.2874 8.45898C17.2874 12.5 13.2244 16.0741 11.0415 17.9943Z" fill="#15A600"/>
<path d="M10.0001 4.41162C7.94454 4.41162 6.27228 6.08385 6.27228 8.13936C6.27228 10.1949 7.94454 11.8671 10.0001 11.8671C12.0556 11.8671 13.7278 10.1949 13.7278 8.13936C13.7278 6.08385 12.0556 4.41162 10.0001 4.41162ZM10.0001 10.6955C8.59056 10.6955 7.44384 9.54877 7.44384 8.13932C7.44384 6.72986 8.59056 5.58314 10.0001 5.58314C11.4095 5.58314 12.5562 6.72986 12.5562 8.13932C12.5562 9.54877 11.4095 10.6955 10.0001 10.6955Z" fill="#15A600"/>
</svg>
