<svg width="149" height="30" viewBox="0 0 149 30" fill="none" xmlns="http://www.w3.org/2000/svg">
<path d="M21.912 23.1468H21.8594C20.5204 23.1373 19.3822 22.9317 18.44 22.5299C17.4644 22.1186 16.6945 21.5495 16.1349 20.8226L16.1158 20.8035C15.1163 21.5447 13.9924 22.1138 12.7346 22.5108C11.4195 22.9316 10.0278 23.1468 8.5596 23.1468C7.0914 23.1468 5.79059 22.9364 4.6476 22.5108C3.50461 22.0851 2.5816 21.4826 1.86424 20.6983C1.16123 19.8996 0.687784 18.9144 0.453447 17.738C0.204763 16.5663 0.243022 15.2272 0.55866 13.7208C0.874298 12.2526 1.40514 10.9374 2.14163 9.77528C2.86856 8.61316 3.76287 7.62798 4.81978 6.81498C5.86712 6.01632 7.04837 5.39939 8.37788 4.96419C9.68347 4.54334 11.0656 4.32812 12.5338 4.32812H22.5051L20.2334 15.0216C19.9608 16.2554 20.0613 17.1928 20.5347 17.8384C20.9938 18.484 21.7542 18.8092 22.8255 18.8092C23.4233 18.8092 23.892 19.0196 24.2267 19.4453C24.5615 19.8709 24.6619 20.3779 24.5328 20.9757C24.4037 21.5735 24.0833 22.0851 23.5715 22.506C23.0598 22.9268 22.5051 23.1421 21.9073 23.1421L21.912 23.1468ZM16.5223 8.67055H11.606C10.8886 8.67055 10.2095 8.79488 9.5639 9.03879C8.89437 9.28747 8.30135 9.63658 7.78485 10.0957C7.26835 10.5548 6.8236 11.0904 6.44579 11.6978C6.08232 12.3099 5.81929 12.9843 5.65191 13.7255C5.49887 14.4764 5.47018 15.165 5.56583 15.7867C5.68539 16.4228 5.91016 16.9537 6.25449 17.3889C6.59404 17.8336 7.04358 18.1827 7.59356 18.4266C8.13397 18.6849 8.76046 18.814 9.47782 18.814C10.1952 18.814 10.9173 18.6849 11.5725 18.4266C12.2325 18.1779 12.8159 17.8336 13.3324 17.3889C13.8394 16.9537 14.2698 16.418 14.638 15.7867C15.0158 15.165 15.2789 14.4764 15.4319 13.7255L16.5223 8.67055Z" fill="#231F20"/>
<path d="M21.9119 23.1468L22.8301 18.8139C23.8966 18.8139 24.8005 18.4935 25.5322 17.8431C26.2639 17.1975 26.7612 16.2601 27.0195 15.0263L30.2237 0H35.2787L32.0888 14.9545C31.8402 16.131 31.4289 17.2166 30.8454 18.2209C30.262 19.2252 29.535 20.0908 28.6599 20.8178C27.7847 21.5447 26.7804 22.1138 25.647 22.5155C24.5135 22.922 23.2653 23.1276 21.9023 23.142L21.9119 23.1468Z" fill="#231F20"/>
<path d="M52.7548 22.6017C52.5061 23.4577 52.1618 24.2755 51.717 25.0502C51.1431 26.0498 50.4114 26.9106 49.5315 27.6375C48.6611 28.3645 47.652 28.9336 46.5042 29.3448C45.3899 29.7418 44.1417 29.9474 42.7692 29.9618L43.7209 25.5428C44.7873 25.5428 45.6864 25.2224 46.4133 24.572C47.0685 24.0077 47.5324 23.209 47.805 22.176C47.5133 22.2956 47.2072 22.4056 46.8868 22.5108C45.5812 22.9316 44.1991 23.1469 42.7309 23.1469C41.2627 23.1469 39.9428 22.9364 38.8046 22.5108C37.6759 22.0899 36.7529 21.4778 36.0403 20.6791C35.3373 19.8901 34.8591 18.9096 34.6152 17.738C34.3808 16.5663 34.4191 15.2272 34.7395 13.7208C35.0552 12.2526 35.5812 10.9326 36.3081 9.75615C37.0494 8.59402 37.9485 7.61364 39.0006 6.81498C40.048 6.00675 41.2244 5.38982 42.5396 4.96419C43.8548 4.54334 45.2512 4.32812 46.7338 4.32812C48.2163 4.32812 49.498 4.53377 50.6266 4.94506C51.7648 5.36591 52.6878 5.98284 53.3909 6.79584C54.0843 7.5945 54.5482 8.57489 54.7825 9.73701C55.0312 10.8991 54.993 12.2286 54.6773 13.716L54.3952 15.0359C54.1369 16.2698 54.2421 17.2023 54.7108 17.8384C55.1699 18.484 55.9255 18.8092 56.9824 18.8092C57.5802 18.8092 58.0489 19.0196 58.3837 19.4453C58.7184 19.8709 58.8189 20.3779 58.6897 20.9757C58.5606 21.5735 58.2402 22.0851 57.7285 22.506C57.2168 22.9268 56.662 23.1421 56.0642 23.1421H56.0116C54.7443 23.1325 53.6587 22.9508 52.7548 22.5969V22.6017ZM43.6491 18.7949C44.376 18.7949 45.0743 18.6705 45.7342 18.4266C46.399 18.1779 46.9824 17.8336 47.4942 17.3889C48.0059 16.9441 48.4411 16.4084 48.8045 15.7867C49.168 15.165 49.431 14.4764 49.5984 13.7255C49.7036 13.2569 49.7562 12.8073 49.7562 12.3865C49.7562 11.4348 49.5219 10.6552 49.0532 10.0431C48.3598 9.12487 47.2742 8.67055 45.7964 8.67055C45.0791 8.67055 44.3904 8.79488 43.7256 9.03879C43.0609 9.28269 42.4679 9.63659 41.9466 10.0861C41.4253 10.5405 40.9758 11.0713 40.6075 11.6882C40.2393 12.3052 39.9762 12.9843 39.8232 13.7208C39.718 14.1799 39.6654 14.6151 39.6654 15.0264C39.6654 15.2846 39.6893 15.538 39.7371 15.782C39.8423 16.4037 40.0671 16.9393 40.4067 17.3841C40.7462 17.8288 41.191 18.1779 41.7362 18.4218C42.2814 18.6657 42.9174 18.7901 43.6491 18.7901V18.7949Z" fill="#231F20"/>
<path d="M57.4733 29.9998C57.1577 29.9998 56.8612 29.952 56.5934 29.8611C56.3255 29.7655 56.0912 29.6268 55.8999 29.445C55.7038 29.2633 55.5699 29.029 55.4839 28.7468C55.436 28.6081 55.4121 28.4551 55.4121 28.2877C55.4121 28.1347 55.4312 27.9769 55.4647 27.8095C55.6178 27.1399 55.9812 26.6139 56.5551 26.2313C57.129 25.8487 57.7459 25.6574 58.4059 25.6574C58.6976 25.6574 58.9894 25.7052 59.2667 25.7961C59.5441 25.8869 59.788 26.0256 59.9889 26.2026C60.3284 26.4943 60.5006 26.8673 60.5006 27.3121C60.5006 27.4651 60.4767 27.6277 60.4289 27.8047C60.3571 28.1586 60.2232 28.4694 60.0223 28.7373C59.8215 29.0051 59.5824 29.2346 59.3098 29.4259C59.0324 29.6124 58.7359 29.7559 58.4107 29.8468C58.0855 29.9424 57.7746 29.9855 57.4685 29.9855L57.4733 29.9998ZM62.4231 21.1763C61.6149 21.7741 60.7158 22.238 59.7306 22.568C58.602 22.9314 57.3825 23.1132 56.0673 23.1132L56.9855 18.7803C58.009 18.7803 58.8985 18.4647 59.6637 17.8286C60.4145 17.1926 60.9358 16.1835 61.2323 14.8013L63.0113 6.50391H70.1084L69.1902 10.8368H67.1099L66.2108 15.0453C65.9525 16.2791 66.0577 17.2117 66.5264 17.8477C66.9855 18.4934 67.7411 18.8186 68.798 18.8186C69.3958 18.8186 69.8645 19.029 70.1993 19.4546C70.534 19.8755 70.6345 20.3872 70.5054 20.985C70.3762 21.5828 70.051 22.0945 69.5345 22.5154C69.0324 22.9362 68.4824 23.1514 67.8989 23.1514H67.7937C66.4786 23.1275 65.3499 22.9219 64.4126 22.5345C63.6139 22.195 62.9492 21.7406 62.4231 21.1811V21.1763ZM63.4991 29.9998C62.8153 29.9998 62.2892 29.8133 61.9114 29.4355C61.5814 29.1438 61.4188 28.7612 61.4188 28.2925C61.4188 28.1395 61.4379 27.9816 61.4714 27.8143C61.634 27.1352 62.007 26.6043 62.5809 26.2313C63.1548 25.8583 63.767 25.667 64.4126 25.667C65.0582 25.667 65.5795 25.8487 66.0147 26.2121C66.3447 26.5039 66.5073 26.8865 66.5073 27.3551C66.5073 27.4938 66.4881 27.6469 66.4547 27.8143C66.3016 28.4838 65.9286 29.0242 65.326 29.4355C64.7617 29.8133 64.1496 29.9998 63.4944 29.9998H63.4991Z" fill="#231F20"/>
<path d="M74.1373 21.2086C73.3865 21.749 72.54 22.1842 71.6026 22.5142C70.4883 22.9255 69.2497 23.1312 67.8867 23.1312L68.8049 18.7983C69.8714 18.7983 70.7753 18.4827 71.5166 17.8466C72.2435 17.201 72.7456 16.2636 73.0134 15.0298L75.266 4.35547H82.4682L81.55 8.68832H79.3645L78.078 14.7811C77.7719 16.1919 77.8676 17.2105 78.3602 17.8466C78.8527 18.4827 79.6275 18.7983 80.6844 18.7983C81.7413 18.7983 82.5974 18.4827 83.3626 17.8466C84.1277 17.2105 84.6538 16.2015 84.9455 14.8194L87.1645 4.35547H94.3668L93.4486 8.68832H91.2631L89.9766 14.7811C89.6705 16.1919 89.7662 17.2105 90.2588 17.8466C90.7418 18.4827 91.5165 18.7983 92.583 18.7983C93.6495 18.7983 94.496 18.4827 95.2612 17.8466C96.0263 17.2105 96.5524 16.2015 96.8441 14.8194L99.0631 4.35547H106.16L105.242 8.68832H103.162L101.856 14.8194C101.574 16.1584 101.139 17.3397 100.55 18.3583C99.9527 19.3913 99.2066 20.2617 98.3123 20.9647C97.4324 21.6821 96.428 22.2225 95.2994 22.586C94.1851 22.9494 92.9704 23.1312 91.6552 23.1312C90.3401 23.1312 89.1588 22.959 88.188 22.6194C87.3176 22.3038 86.6098 21.8447 86.055 21.2469C85.2564 21.8208 84.3716 22.2703 83.396 22.586C82.2817 22.9494 81.067 23.1312 79.7518 23.1312C78.4367 23.1312 77.2554 22.959 76.2846 22.6194C75.4046 22.3038 74.6825 21.8351 74.1182 21.2086H74.1373Z" fill="#231F20"/>
<path d="M148.999 0L145.837 8.68625L145.121 10.6544L141.959 19.3407L141.243 21.3137L138.081 29.9999H128.84L132.002 21.3137L132.723 19.3407L135.884 10.6544L136.6 8.68625L139.762 0H148.999Z" fill="#EF7822"/>
<path d="M137.664 0L134.502 8.68625L133.786 10.6544L130.624 19.3407L129.903 21.3137L126.742 29.9999H117.5L120.662 21.3137L121.378 19.3407L124.54 10.6544L125.256 8.68625L128.417 0H137.664Z" fill="#EF7822"/>
<path d="M126.322 0L123.16 8.68625L122.444 10.6544L119.283 19.3407L118.562 21.3137L115.405 29.9999H106.158L109.32 21.3137L110.041 19.3407L113.203 10.6544L113.919 8.68625L117.081 0H126.322Z" fill="#EF7822"/>
</svg>
