<svg width="23" height="24" viewBox="0 0 23 24" fill="none" xmlns="http://www.w3.org/2000/svg">
<path d="M11.5 24C14.0252 23.9976 16.4727 23.1264 18.4315 21.5327C20.3903 19.939 21.7411 17.7198 22.2572 15.2479C22.7732 12.776 22.423 10.2017 21.2654 7.95747C20.1078 5.7132 18.2133 3.93555 15.9 2.92301C15.7795 2.86967 15.6497 2.84066 15.5179 2.83766C15.3862 2.83466 15.2552 2.85772 15.1324 2.90552C15.0096 2.95333 14.8975 3.02492 14.8024 3.1162C14.7074 3.20748 14.6313 3.31663 14.5786 3.4374C14.5259 3.55816 14.4976 3.68815 14.4953 3.8199C14.493 3.95164 14.5167 4.08254 14.5652 4.20508C14.6136 4.32761 14.6858 4.43937 14.7776 4.53391C14.8694 4.62846 14.9789 4.70394 15.1 4.75601C16.995 5.58308 18.5475 7.03743 19.4964 8.87452C20.4452 10.7116 20.7326 12.8194 20.3101 14.8434C19.8877 16.8675 18.7812 18.6844 17.1767 19.9885C15.5722 21.2927 13.5676 22.0047 11.5 22.0047C9.43231 22.0047 7.4277 21.2927 5.82323 19.9885C4.21875 18.6844 3.11226 16.8675 2.68981 14.8434C2.26737 12.8194 2.55474 10.7116 3.5036 8.87452C4.45245 7.03743 6.00493 5.58308 7.89997 4.75601C8.02101 4.70394 8.13057 4.62846 8.22235 4.53391C8.31412 4.43937 8.38631 4.32761 8.43476 4.20508C8.4832 4.08254 8.50696 3.95164 8.50465 3.8199C8.50234 3.68815 8.47402 3.55816 8.42131 3.4374C8.36861 3.31663 8.29255 3.20748 8.19752 3.1162C8.10249 3.02492 7.99036 2.95333 7.86757 2.90552C7.74478 2.85772 7.61376 2.83466 7.48203 2.83766C7.3503 2.84066 7.22046 2.86967 7.09997 2.92301C4.78663 3.93555 2.89211 5.7132 1.73451 7.95747C0.576907 10.2017 0.226727 12.776 0.742765 15.2479C1.2588 17.7198 2.60963 19.939 4.56844 21.5327C6.52725 23.1264 8.97475 23.9976 11.5 24Z" fill="#777777"/>
<path d="M11.5 9.99999C11.7652 9.99999 12.0196 9.89464 12.2071 9.7071C12.3946 9.51956 12.5 9.26521 12.5 8.99999V0.999999C12.5 0.734783 12.3946 0.480429 12.2071 0.292893C12.0196 0.105357 11.7652 0 11.5 0C11.2348 0 10.9804 0.105357 10.7929 0.292893C10.6054 0.480429 10.5 0.734783 10.5 0.999999V8.99999C10.5 9.26521 10.6054 9.51956 10.7929 9.7071C10.9804 9.89464 11.2348 9.99999 11.5 9.99999Z" fill="#777777"/>
</svg>
