<svg width="16" height="16" viewBox="0 0 16 16" fill="none" xmlns="http://www.w3.org/2000/svg">
<path d="M3.08332 8.47421C4.11087 8.47421 5.01588 7.96741 5.57463 7.19128C6.11304 7.96577 7.00636 8.47421 8.01959 8.47421C9.03019 8.47421 9.92282 7.9684 10.4617 7.19729C11.0172 7.9697 11.9225 8.47421 12.9447 8.47421C14.9055 8.47421 16.3884 6.57409 15.9094 4.67216L14.9746 0.960838C14.8326 0.396964 14.3268 0.00317383 13.7448 0.00317383H2.24814C1.66619 0.00317383 1.16054 0.396964 1.01852 0.960873L0.0897292 4.65008C-0.175258 5.70217 0.173046 6.619 0.788182 7.4537V14.7299C0.788182 15.4284 1.35216 15.9967 2.05133 15.9967H13.9463C14.6455 15.9967 15.2097 15.4284 15.2097 14.7299V10.0111C15.2097 9.70497 14.9522 9.45683 14.6458 9.45683C14.3395 9.45683 14.082 9.70493 14.082 10.0111V14.7299C14.082 14.8173 14.0337 14.9031 13.9463 14.9031H10.4595V10.5745C10.4595 10.2684 10.2107 10.0162 9.90433 10.0162H6.09363C5.78726 10.0162 5.53843 10.2684 5.53843 10.5745V14.9031H2.05133C1.96395 14.9031 1.91593 14.8172 1.91593 14.7299V8.24149C2.25767 8.39356 2.67108 8.47421 3.08332 8.47421ZM11.0063 1.09675H13.7448C13.8176 1.09675 13.8807 1.15341 13.8985 1.22388L14.8331 4.93886C15.1371 6.14568 14.1964 7.36386 12.9492 7.36386C11.875 7.36386 11.0063 6.49204 11.0063 5.41812V1.09675ZM6.15354 1.09675H9.9127V5.41812C9.9127 6.46142 9.09645 7.36574 8.03104 7.36574C6.94816 7.36574 6.15354 6.4513 6.15354 5.40041V1.09675ZM6.66615 11.144H9.33174V14.9031H6.66615V11.144ZM1.16471 4.92057L2.09412 1.22395C2.11189 1.15344 2.17542 1.09678 2.24814 1.09678H5.02579V5.40045C5.02579 6.48367 4.15055 7.36499 3.06719 7.36574C1.80675 7.36495 0.857077 6.1422 1.16471 4.92057Z" fill="white"/>
</svg>
