<svg width="21" height="21" viewBox="0 0 21 21" fill="none" xmlns="http://www.w3.org/2000/svg">
<g clip-path="url(#clip0_2775_3666)">
<path d="M13.0374 0.500015C13.0149 0.499181 7.98492 0.499181 7.96242 0.500015C5.68242 0.520015 3.83325 2.38168 3.83325 4.66585V16.3325C3.83325 18.63 5.70242 20.4992 7.99992 20.4992H12.9999C15.2974 20.4992 17.1666 18.63 17.1666 16.3325V4.66668C17.1666 2.38168 15.3174 0.520848 13.0374 0.500015ZM15.4999 16.3325C15.4999 17.7108 14.3783 18.8325 12.9999 18.8325H7.99992C6.62159 18.8325 5.49992 17.7108 5.49992 16.3325V4.66668C5.49992 3.45585 6.36492 2.44418 7.50909 2.21501L8.08742 3.37251C8.22825 3.65501 8.51742 3.83335 8.83325 3.83335H12.1666C12.4824 3.83335 12.7708 3.65501 12.9124 3.37251L13.4908 2.21501C14.6349 2.44335 15.4999 3.45585 15.4999 4.66668V16.3325ZM11.3333 17.1658H9.66659C9.20659 17.1658 8.83325 16.7925 8.83325 16.3325C8.83325 15.8725 9.20659 15.4992 9.66659 15.4992H11.3333C11.7933 15.4992 12.1666 15.8725 12.1666 16.3325C12.1666 16.7925 11.7933 17.1658 11.3333 17.1658Z" fill="#15A600"/>
</g>
<defs>
<clipPath id="clip0_2775_3666">
<rect width="20" height="20" fill="white" transform="translate(0.5 0.5)"/>
</clipPath>
</defs>
</svg>
