<svg width="24" height="24" viewBox="0 0 24 24" fill="none" xmlns="http://www.w3.org/2000/svg">
<path d="M3.17888 23.25C1.69305 21.7169 0.828581 19.6874 0.752693 17.5538C0.676806 15.4203 1.39489 13.3344 2.76805 11.6997C4.1412 10.065 6.07182 8.99763 8.18645 8.70412C10.3011 8.41061 12.4494 8.91178 14.2159 10.1107L16.0657 11.8068C16.4899 12.3273 16.8519 12.8955 17.1442 13.5L16.5 22.1118C16.2232 22.5168 15.9124 22.8976 15.5711 23.25H3.17888Z" fill="#2D9739"/>
<path d="M17.1443 13.5C16.8519 12.8955 16.4899 12.3273 16.0658 11.8068L14.2159 10.1103L14.1833 10.0882C13.0933 9.36145 11.8126 8.97363 10.5026 8.97363C9.19262 8.97363 7.91193 9.36145 6.822 10.0882C5.77373 10.7913 4.89254 11.7159 4.24063 12.7967C3.58872 13.8775 3.18199 15.0883 3.04913 16.3435C2.91627 17.5987 3.06053 18.8677 3.47172 20.0611C3.88291 21.2545 4.55102 22.343 5.42888 23.25H15.5711C15.9124 22.8976 16.2232 22.5168 16.5 22.1118L17.1443 13.5Z" fill="#44BC59"/>
<path d="M16.6774 12.6604C16.491 12.3637 16.2867 12.0787 16.0658 11.8069L15.2381 11.0479C14.8398 11.3199 14.4078 11.5391 13.953 11.7L12.3135 12.2587C12.2213 12.291 12.1415 12.3513 12.0853 12.4312C12.029 12.5111 11.9992 12.6065 12 12.7042V15.2805C11.9983 15.3627 12.0188 15.4439 12.0593 15.5154C12.0998 15.587 12.1588 15.6464 12.2301 15.6873C12.3015 15.7282 12.3825 15.7492 12.4647 15.748C12.547 15.7468 12.6274 15.7236 12.6975 15.6806L14.3449 14.6509C15.2128 14.1013 15.9982 13.4311 16.6774 12.6604Z" fill="#2D9739"/>
<path d="M11.25 7.125H7.5C7.08579 7.125 6.75 7.46079 6.75 7.875C6.75 8.28921 7.08579 8.625 7.5 8.625H11.25C11.6642 8.625 12 8.28921 12 7.875C12 7.46079 11.6642 7.125 11.25 7.125Z" fill="#FFC239"/>
<path d="M9.375 20.625C11.8603 20.625 13.875 18.6103 13.875 16.125C13.875 13.6397 11.8603 11.625 9.375 11.625C6.88972 11.625 4.875 13.6397 4.875 16.125C4.875 18.6103 6.88972 20.625 9.375 20.625Z" fill="#ABE4A3"/>
<path d="M9.375 11.625C8.50262 11.6243 7.64909 11.8788 6.9195 12.357C6.35372 13.2213 6.10279 14.2541 6.2089 15.2816C6.315 16.3092 6.77168 17.2689 7.50214 17.9994C8.2326 18.7298 9.1923 19.1865 10.2199 19.2926C11.2474 19.3987 12.2802 19.1478 13.1445 18.582C13.5882 17.9032 13.8401 17.1171 13.8735 16.3069C13.9069 15.4966 13.7206 14.6925 13.3343 13.9795C12.948 13.2665 12.376 12.6712 11.679 12.2567C10.982 11.8423 10.1859 11.624 9.375 11.625Z" fill="#CDF8C8"/>
<path d="M7.5 7.125L6.4575 5.25C6.20063 4.62675 6.55088 3.75 7.125 3.75H11.625C12.1991 3.75 12.5494 4.62675 12.2925 5.25L11.25 7.125H7.5ZM9.375 15.75C9.22667 15.75 9.08166 15.706 8.95833 15.6236C8.83499 15.5412 8.73886 15.4241 8.68209 15.287C8.62533 15.15 8.61048 14.9992 8.63941 14.8537C8.66835 14.7082 8.73978 14.5746 8.84467 14.4697C8.94956 14.3648 9.0832 14.2934 9.22869 14.2644C9.37417 14.2355 9.52497 14.2503 9.66202 14.3071C9.79906 14.3639 9.91619 14.46 9.99861 14.5833C10.081 14.7067 10.125 14.8517 10.125 15H10.875C10.8738 14.6684 10.7627 14.3466 10.5591 14.0848C10.3556 13.8231 10.0711 13.6361 9.75 13.5532V13.125H9V13.5532C8.64689 13.6441 8.33909 13.8608 8.13437 14.1625C7.92965 14.4642 7.84209 14.8303 7.88812 15.192C7.93415 15.5537 8.1106 15.8862 8.38437 16.127C8.65813 16.3678 9.01038 16.5005 9.375 16.5C9.52334 16.5 9.66834 16.544 9.79168 16.6264C9.91502 16.7088 10.0111 16.8259 10.0679 16.963C10.1247 17.1 10.1395 17.2508 10.1106 17.3963C10.0817 17.5418 10.0102 17.6754 9.90533 17.7803C9.80044 17.8852 9.66681 17.9566 9.52132 17.9856C9.37584 18.0145 9.22504 17.9997 9.08799 17.9429C8.95095 17.8861 8.83381 17.79 8.7514 17.6667C8.66899 17.5433 8.625 17.3983 8.625 17.25H7.875C7.87625 17.5816 7.98732 17.9034 8.19087 18.1652C8.39441 18.4269 8.67895 18.6139 9 18.6968V19.125H9.75V18.6968C10.1031 18.6059 10.4109 18.3892 10.6156 18.0875C10.8204 17.7858 10.9079 17.4197 10.8619 17.058C10.8159 16.6963 10.6394 16.3638 10.3656 16.123C10.0919 15.8822 9.73962 15.7495 9.375 15.75Z" fill="#2D9739"/>
<path d="M0.75 22.875H23.25V23.625H0.75V22.875ZM13.875 16.125H15.375V22.125H13.875V16.125ZM16.5 13.5H18V22.125H16.5V13.5ZM19.125 10.875H20.625V22.125H19.125V10.875Z" fill="#FFC239"/>
<path d="M13.7355 15.0315C13.4821 14.0209 12.8857 13.1296 12.048 12.51C12.0186 12.5706 12.0026 12.6369 12.0011 12.7043V15.2805C11.9994 15.3627 12.0199 15.4439 12.0604 15.5155C12.1009 15.5871 12.1599 15.6464 12.2313 15.6873C12.3026 15.7283 12.3836 15.7492 12.4659 15.7481C12.5481 15.7469 12.6285 15.7236 12.6986 15.6806L13.7355 15.0315Z" fill="#ABE4A3"/>
<path d="M21.75 8.625H23.25V22.125H21.75V8.625ZM11.25 17.625H12.75V22.125H11.25V17.625Z" fill="#FFC239"/>
<path d="M7.5 7.125C7.37177 7.12577 7.24594 7.15975 7.13475 7.22363C7.15859 7.40332 7.2467 7.56831 7.38279 7.68806C7.51888 7.80781 7.69373 7.87422 7.875 7.875H11.625C11.7532 7.87423 11.8791 7.84025 11.9903 7.77637C11.9664 7.59668 11.8783 7.43169 11.7422 7.31194C11.6061 7.19219 11.4313 7.12578 11.25 7.125H7.5Z" fill="#FFD55D"/>
<path d="M12.2925 5.24999C12.5494 4.62674 12.1991 3.74999 11.625 3.74999H7.73887C7.64872 3.74816 7.55946 3.76817 7.47872 3.80832C7.39798 3.84846 7.32816 3.90755 7.27521 3.98054C7.22227 4.05353 7.18777 4.13825 7.17467 4.22747C7.16158 4.31668 7.17026 4.40774 7.2 4.49287L7.203 4.49999L7.75837 5.49899C7.90616 5.76474 8.12235 5.9861 8.38452 6.14013C8.64669 6.29417 8.9453 6.37526 9.24937 6.37499H11.667L12.2925 5.24999Z" fill="#44BC59"/>
<path d="M12 17.625V21C12 21.1989 12.079 21.3897 12.2197 21.5303C12.3603 21.671 12.5511 21.75 12.75 21.75V17.625H12ZM14.625 16.125V21C14.625 21.1989 14.704 21.3897 14.8447 21.5303C14.9853 21.671 15.1761 21.75 15.375 21.75V16.125H14.625ZM17.25 13.5V21C17.25 21.1989 17.329 21.3897 17.4697 21.5303C17.6103 21.671 17.8011 21.75 18 21.75V13.5H17.25ZM19.875 10.875V21C19.875 21.1989 19.954 21.3897 20.0947 21.5303C20.2353 21.671 20.4261 21.75 20.625 21.75V10.875H19.875ZM22.5 8.625V21C22.5 21.1989 22.579 21.3897 22.7197 21.5303C22.8603 21.671 23.0511 21.75 23.25 21.75V8.625H22.5Z" fill="#FFD55D"/>
<path d="M22.3144 5.35087C22.3327 5.41516 22.3335 5.48318 22.3168 5.5479C22.3 5.61261 22.2662 5.67166 22.2189 5.71893C22.1717 5.7662 22.1126 5.79998 22.0479 5.81676C21.9832 5.83354 21.9152 5.83272 21.8509 5.81437L19.875 5.25C18.93 8.39137 17.0873 11.4457 14.3449 13.1595L12.6975 14.1892C12.6274 14.2322 12.547 14.2555 12.4647 14.2567C12.3825 14.2579 12.3015 14.2369 12.2301 14.196C12.1588 14.155 12.0998 14.0957 12.0593 14.0241C12.0188 13.9525 11.9983 13.8713 12 13.7891V11.2125C11.9994 11.1149 12.0293 11.0196 12.0855 10.9399C12.1417 10.8601 12.2214 10.8 12.3135 10.7677L13.953 10.209C16.1468 9.46162 18.2966 7.194 18.75 4.875L17.0779 4.03912C17.0191 4.00975 16.9691 3.96544 16.9328 3.91063C16.8965 3.85583 16.8753 3.79246 16.8712 3.72687C16.8672 3.66128 16.8804 3.59578 16.9096 3.53692C16.9389 3.47806 16.983 3.42791 17.0378 3.3915L20.5721 1.035C20.6212 1.00227 20.6774 0.98159 20.736 0.974649C20.7946 0.967707 20.854 0.974698 20.9094 0.995052C20.9648 1.01541 21.0146 1.04855 21.0548 1.09179C21.095 1.13502 21.1244 1.18713 21.1406 1.24387L22.3144 5.35087Z" fill="#F3A606"/>
<path d="M12.6975 13.2172L14.3449 12.1875C16.8922 10.5956 18.6634 7.8465 19.6601 4.9455C19.7232 4.76567 19.8527 4.61684 20.0222 4.52964C20.1916 4.44245 20.388 4.42352 20.571 4.47675L21.8509 4.84237C21.9021 4.85718 21.9559 4.86069 22.0086 4.85266C22.0613 4.84463 22.1116 4.82526 22.1561 4.79587L21.1406 1.24387C21.1244 1.18713 21.095 1.13502 21.0548 1.09179C21.0146 1.04855 20.9648 1.01541 20.9094 0.995052C20.854 0.974698 20.7946 0.967707 20.736 0.974649C20.6774 0.98159 20.6212 1.00227 20.5721 1.035L17.0377 3.3915C16.983 3.42791 16.9389 3.47806 16.9096 3.53692C16.8804 3.59578 16.8672 3.66128 16.8712 3.72687C16.8753 3.79246 16.8965 3.85583 16.9328 3.91063C16.9691 3.96544 17.0191 4.00975 17.0779 4.03912L18.75 4.875C18.2966 7.194 16.1467 9.46163 13.953 10.2094L12.3135 10.7681C12.2215 10.8003 12.1418 10.8604 12.0856 10.9401C12.0294 11.0198 11.9995 11.115 12 11.2125V12.8175C11.9984 12.8997 12.0189 12.9808 12.0594 13.0523C12.1 13.1239 12.159 13.1832 12.2303 13.2241C12.3016 13.2649 12.3826 13.2859 12.4648 13.2847C12.547 13.2835 12.6274 13.2602 12.6975 13.2172Z" fill="#FFC239"/>
</svg>
