<svg width="49" height="48" viewBox="0 0 49 48" fill="none" xmlns="http://www.w3.org/2000/svg">
<path d="M13.7664 17.6881L34.2054 7.32005L26.9349 3.68705C26.1004 3.27022 25.1807 3.0521 24.2478 3.04976C23.3149 3.04742 22.3941 3.26092 21.5574 3.67355L5.57644 11.5546C5.41971 11.6316 5.28724 11.7504 5.19355 11.8978C5.09987 12.0452 5.04859 12.2156 5.04533 12.3902C5.04208 12.5648 5.08698 12.737 5.17511 12.8878C5.26324 13.0386 5.39119 13.1622 5.54494 13.245L13.7664 17.6881ZM43.5144 41.1151L39.3624 43.6081C38.9259 43.8701 38.4263 44.0085 37.9172 44.0085C37.408 44.0085 36.9085 43.8701 36.4719 43.6081L32.3199 41.1151C31.9042 40.8656 31.56 40.5128 31.3211 40.0909C31.0821 39.669 30.9565 39.1924 30.9564 38.7076V31.3426C30.9564 30.3949 31.3329 29.4861 32.0029 28.8161C32.673 28.146 33.5818 27.7696 34.5294 27.7696H41.3049C42.2526 27.7696 43.1614 28.146 43.8314 28.8161C44.5015 29.4861 44.8779 30.3949 44.8779 31.3426V38.7076C44.8779 39.6931 44.3604 40.6081 43.5144 41.1151Z" fill="#FC6240"/>
<path d="M37.9165 37.389C38.7449 37.389 39.4165 36.7175 39.4165 35.889C39.4165 35.0606 38.7449 34.389 37.9165 34.389C37.0881 34.389 36.4165 35.0606 36.4165 35.889C36.4165 36.7175 37.0881 37.389 37.9165 37.389Z" fill="#FC6240"/>
<path d="M37.918 45.51C37.1362 45.5098 36.3693 45.2966 35.6995 44.8935L31.546 42.4005C30.9098 42.0158 30.3833 41.4739 30.0171 40.8268C29.6509 40.1798 29.4573 39.4495 29.455 38.706V31.341C29.4565 29.996 29.9915 28.7066 30.9426 27.7556C31.8936 26.8046 33.183 26.2696 34.528 26.268H41.3035C42.6484 26.2696 43.9378 26.8046 44.8889 27.7556C45.8399 28.7066 46.3749 29.996 46.3765 31.341V38.706C46.3744 39.4495 46.1809 40.18 45.8147 40.8271C45.4485 41.4741 44.9218 42.016 44.2855 42.4005L40.132 44.8935C39.4624 45.2959 38.6961 45.509 37.915 45.51H37.918ZM34.5295 29.2695C33.3865 29.2695 32.4565 30.1995 32.4565 31.3425V38.7075C32.4565 39.165 32.6995 39.594 33.091 39.8295L37.2445 42.3225C37.66 42.5715 38.1745 42.573 38.59 42.3225L42.7435 39.8295C42.9366 39.7126 43.0964 39.548 43.2075 39.3515C43.3187 39.155 43.3774 38.9333 43.378 38.7075V31.3425C43.378 30.1995 42.448 29.2695 41.305 29.2695H34.5295Z" fill="#FC6240"/>
<path d="M24.25 45.969C23.2337 45.9702 22.2278 45.7645 21.2935 45.3645L6.295 38.934C4.94594 38.3557 3.79622 37.3943 2.98833 36.1688C2.18043 34.9434 1.74987 33.5078 1.75 32.04V15.9585C1.75016 14.491 2.18086 13.0557 2.98874 11.8306C3.79662 10.6054 4.94617 9.64423 6.295 9.06602L21.2965 2.63552C22.2303 2.23657 23.2353 2.03088 24.2507 2.03088C25.2662 2.03088 26.2712 2.23657 27.205 2.63552L42.2065 9.06752C43.555 9.64554 44.7043 10.6065 45.512 11.8315C46.3196 13.0564 46.7501 14.4913 46.75 15.9585V23.0625C46.75 23.4603 46.592 23.8419 46.3107 24.1232C46.0294 24.4045 45.6478 24.5625 45.25 24.5625C44.8522 24.5625 44.4706 24.4045 44.1893 24.1232C43.908 23.8419 43.75 23.4603 43.75 23.0625V15.9585C43.75 14.1585 42.6775 12.531 41.023 11.8215L26.023 5.39252C25.4629 5.15274 24.86 5.02911 24.2507 5.02911C23.6415 5.02911 23.0386 5.15274 22.4785 5.39252L7.4785 11.8215C6.66909 12.1687 5.9793 12.7457 5.49458 13.4811C5.00986 14.2164 4.7515 15.0778 4.7515 15.9585V32.043C4.7515 33.843 5.824 35.4705 7.4785 36.18L22.4755 42.609C23.0357 42.8495 23.6389 42.9736 24.2485 42.9736C24.8581 42.9736 25.4613 42.8495 26.0215 42.609L26.6545 42.3375C27.0189 42.1874 27.4278 42.1867 27.7927 42.3357C28.1576 42.4846 28.4492 42.7711 28.6045 43.1334C28.7598 43.4956 28.7663 43.9044 28.6226 44.2714C28.4789 44.6384 28.1965 44.9341 27.8365 45.0945L27.205 45.3645C26.2718 45.7645 25.2653 45.9702 24.25 45.969Z" fill="#FC6240"/>
<path d="M24.2485 23.151C23.2332 23.1522 22.2283 22.9465 21.295 22.5465L2.66052 14.559L3.84102 11.802L22.477 19.791C23.0377 20.0296 23.6407 20.1526 24.25 20.1526C24.8593 20.1526 25.4624 20.0296 26.023 19.791L44.6605 11.802L45.841 14.559L27.2035 22.548C26.2698 22.9481 25.2644 23.1538 24.2485 23.1525V23.151Z" fill="#FC6240"/>
<path d="M22.7499 21.654H25.7499V44.472H22.7499V21.654ZM13.5129 16.0605L34.1349 5.95801L35.4549 8.65051L14.8344 18.7545L13.5129 16.0605Z" fill="#FC6240"/>
<path d="M13.531 28.989C13.1332 28.989 12.7517 28.831 12.4703 28.5497C12.189 28.2684 12.031 27.8868 12.031 27.489V18.06H15.031V27.489C15.031 27.8868 14.873 28.2684 14.5917 28.5497C14.3104 28.831 13.9288 28.989 13.531 28.989Z" fill="#FC6240"/>
</svg>
