<svg width="20" height="20" viewBox="0 0 20 20" fill="none" xmlns="http://www.w3.org/2000/svg">
<g clip-path="url(#clip0_2775_3702)">
<path d="M15.6297 2.24176H14.9456V1.54949C14.9456 1.15396 14.625 0.833344 14.2294 0.833344C13.8339 0.833344 13.5133 1.15396 13.5133 1.54949V2.24176H6.48691V1.54949C6.48691 1.15396 6.16629 0.833344 5.77076 0.833344C5.37524 0.833344 5.05462 1.15396 5.05462 1.54949V2.24176H4.37052C2.4179 2.24176 0.829346 3.83031 0.829346 5.78289V15.6256C0.829346 17.5782 2.4179 19.1667 4.37052 19.1667H15.6298C17.5823 19.1667 19.1709 17.5782 19.1709 15.6256V5.78289C19.1709 3.83031 17.5823 2.24176 15.6297 2.24176ZM4.37052 3.67405H5.05462V5.07054C5.05462 5.46607 5.37524 5.78669 5.77076 5.78669C6.16629 5.78669 6.48691 5.46607 6.48691 5.07054V3.67405H13.5133V5.07054C13.5133 5.46607 13.8339 5.78669 14.2295 5.78669C14.625 5.78669 14.9456 5.46607 14.9456 5.07054V3.67405H15.6298C16.7926 3.67405 17.7386 4.62008 17.7386 5.78289V6.46703H2.26164V5.78289C2.26164 4.62008 3.20767 3.67405 4.37052 3.67405ZM15.6297 17.7344H4.37052C3.20767 17.7344 2.26164 16.7884 2.26164 15.6256V7.89932H17.7386V15.6256C17.7386 16.7884 16.7926 17.7344 15.6297 17.7344ZM7.19114 10.7162C7.19114 11.1117 6.87052 11.4323 6.47499 11.4323H5.06658C4.67105 11.4323 4.35043 11.1117 4.35043 10.7162C4.35043 10.3207 4.67105 10 5.06658 10H6.47499C6.87048 10 7.19114 10.3207 7.19114 10.7162ZM15.6498 10.7162C15.6498 11.1117 15.3292 11.4323 14.9337 11.4323H13.5253C13.1298 11.4323 12.8091 11.1117 12.8091 10.7162C12.8091 10.3207 13.1298 10 13.5253 10H14.9337C15.3292 10 15.6498 10.3207 15.6498 10.7162ZM11.4164 10.7162C11.4164 11.1117 11.0958 11.4323 10.7003 11.4323H9.29185C8.89632 11.4323 8.5757 11.1117 8.5757 10.7162C8.5757 10.3207 8.89632 10 9.29185 10H10.7003C11.0958 10 11.4164 10.3207 11.4164 10.7162ZM7.19114 14.9415C7.19114 15.337 6.87052 15.6576 6.47499 15.6576H5.06658C4.67105 15.6576 4.35043 15.337 4.35043 14.9415C4.35043 14.5459 4.67105 14.2253 5.06658 14.2253H6.47499C6.87048 14.2253 7.19114 14.5459 7.19114 14.9415ZM15.6498 14.9415C15.6498 15.337 15.3292 15.6576 14.9337 15.6576H13.5253C13.1298 15.6576 12.8091 15.337 12.8091 14.9415C12.8091 14.5459 13.1298 14.2253 13.5253 14.2253H14.9337C15.3292 14.2253 15.6498 14.5459 15.6498 14.9415ZM11.4164 14.9415C11.4164 15.337 11.0958 15.6576 10.7003 15.6576H9.29185C8.89632 15.6576 8.5757 15.337 8.5757 14.9415C8.5757 14.5459 8.89632 14.2253 9.29185 14.2253H10.7003C11.0958 14.2253 11.4164 14.5459 11.4164 14.9415Z" fill="#15A600"/>
</g>
<defs>
<clipPath id="clip0_2775_3702">
<rect width="20" height="20" fill="white"/>
</clipPath>
</defs>
</svg>
