<svg width="20" height="20" viewBox="0 0 20 20" fill="none" xmlns="http://www.w3.org/2000/svg">
<g clip-path="url(#clip0_961_1685)">
<path d="M12.9166 20H7.08325C5.01575 20 3.33325 18.3175 3.33325 16.25V3.75C3.33325 1.6825 5.01575 0 7.08325 0H12.9166C14.9841 0 16.6666 1.6825 16.6666 3.75V16.25C16.6666 18.3175 14.9841 20 12.9166 20ZM7.08325 0.833333C5.47492 0.833333 4.16659 2.14167 4.16659 3.75V16.25C4.16659 17.8583 5.47492 19.1667 7.08325 19.1667H12.9166C14.5249 19.1667 15.8333 17.8583 15.8333 16.25V3.75C15.8333 2.14167 14.5249 0.833333 12.9166 0.833333H7.08325ZM11.6666 17.0833C11.6666 16.8533 11.4799 16.6667 11.2499 16.6667H8.74992C8.51992 16.6667 8.33325 16.8533 8.33325 17.0833C8.33325 17.3133 8.51992 17.5 8.74992 17.5H11.2499C11.4799 17.5 11.6666 17.3133 11.6666 17.0833Z" fill="#D61842"/>
</g>
<defs>
<clipPath id="clip0_961_1685">
<rect width="20" height="20" fill="white"/>
</clipPath>
</defs>
</svg>
