<svg width="20" height="24" viewBox="0 0 20 24" fill="none" xmlns="http://www.w3.org/2000/svg">
<path d="M11.5 4.18C11.3674 4.18 11.2402 4.12732 11.1464 4.03355C11.0527 3.93979 11 3.81261 11 3.68V2C11 1.449 10.551 1 10 1C9.449 1 9 1.449 9 2V3.68C9 3.81261 8.94732 3.93979 8.85355 4.03355C8.75979 4.12732 8.63261 4.18 8.5 4.18C8.36739 4.18 8.24021 4.12732 8.14645 4.03355C8.05268 3.93979 8 3.81261 8 3.68V2C8 0.897 8.897 0 10 0C11.103 0 12 0.897 12 2V3.68C12 3.81261 11.9473 3.93979 11.8536 4.03355C11.7598 4.12732 11.6326 4.18 11.5 4.18ZM10 24C8.07 24 6.5 22.43 6.5 20.5C6.5 20.3674 6.55268 20.2402 6.64645 20.1464C6.74021 20.0527 6.86739 20 7 20C7.13261 20 7.25979 20.0527 7.35355 20.1464C7.44732 20.2402 7.5 20.3674 7.5 20.5C7.5 21.878 8.622 23 10 23C11.378 23 12.5 21.878 12.5 20.5C12.5 20.3674 12.5527 20.2402 12.6464 20.1464C12.7402 20.0527 12.8674 20 13 20C13.1326 20 13.2598 20.0527 13.3536 20.1464C13.4473 20.2402 13.5 20.3674 13.5 20.5C13.5 22.43 11.93 24 10 24Z" fill="#A78C50"/>
<path d="M18.4999 21H1.4999C1.19377 20.9989 0.895276 20.9043 0.644402 20.7289C0.393528 20.5535 0.202251 20.3055 0.0961931 20.0184C-0.00986519 19.7312 -0.025641 19.4185 0.0509785 19.1221C0.127598 18.8257 0.292954 18.5598 0.524899 18.36C1.30057 17.7071 1.92404 16.8924 2.35158 15.973C2.77913 15.0536 3.0004 14.0519 2.9999 13.038V10C2.9999 6.14 6.1399 3 9.9999 3C13.8599 3 16.9999 6.14 16.9999 10V13.038C16.9999 15.091 17.8989 17.028 19.4669 18.353C19.7015 18.5515 19.8696 18.8172 19.9484 19.1143C20.0272 19.4113 20.0128 19.7254 19.9074 20.0141C19.8019 20.3027 19.6104 20.5521 19.3587 20.7284C19.107 20.9047 18.8072 20.9995 18.4999 21ZM9.9999 4C6.6909 4 3.9999 6.691 3.9999 10V13.038C4.001 14.1956 3.7491 15.3395 3.26181 16.3895C2.77453 17.4396 2.06364 18.3705 1.1789 19.117C1.10033 19.1829 1.04394 19.2714 1.01738 19.3705C0.990814 19.4696 0.995363 19.5744 1.03041 19.6708C1.06545 19.7672 1.12929 19.8505 1.21328 19.9094C1.29727 19.9683 1.39733 19.9999 1.4999 20H18.4999C18.6021 20 18.7019 19.9687 18.7857 19.9103C18.8696 19.8518 18.9336 19.7691 18.969 19.6732C19.0044 19.5773 19.0096 19.4729 18.9838 19.374C18.958 19.2751 18.9026 19.1864 18.8249 19.12C17.9394 18.3733 17.2277 17.442 16.7397 16.3914C16.2518 15.3409 15.9993 14.1964 15.9999 13.038V10C15.9999 6.691 13.3089 4 9.9999 4Z" fill="#A78C50"/>
</svg>
