<svg width="20" height="20" viewBox="0 0 20 20" fill="none" xmlns="http://www.w3.org/2000/svg">
<g clip-path="url(#clip0_2775_7027)">
<path d="M18.8484 9.2625H13.6868C12.069 9.2625 10.7373 10.5942 10.7373 12.212C10.7373 13.8298 12.069 15.1615 13.6868 15.1615H16.6363V17.3736C16.6363 17.7784 16.3038 18.111 15.8989 18.111H4.10094C2.88722 18.111 1.88881 17.1126 1.88881 15.8989V4.83824C1.88881 3.62452 2.88722 2.62612 4.10094 2.62612H5.57569C5.98051 2.62612 6.31306 2.29356 6.31306 1.88874C6.31306 1.48392 5.98051 1.15137 5.57569 1.15137H4.10094C2.07832 1.15137 0.414062 2.81562 0.414062 4.83824V15.8989C0.414062 17.9215 2.07832 19.5858 4.10094 19.5858H15.8989C17.1127 19.5858 18.1111 18.5873 18.1111 17.3736V15.1615H18.8484C19.2533 15.1615 19.5858 14.8289 19.5858 14.4241V9.99987C19.5858 9.59505 19.2533 9.2625 18.8484 9.2625ZM18.1111 13.6867H13.6868C12.8779 13.6867 12.2121 13.0209 12.2121 12.212C12.2121 11.4031 12.8779 10.7372 13.6868 10.7372H18.1111V13.6867Z" fill="#15A600"/>
<path d="M3.83536 4.15254C3.01245 4.51164 3.28454 5.57567 4.10081 5.57567H15.8988C16.3036 5.57567 16.6362 5.90823 16.6362 6.31305V7.05042C16.6362 7.45524 16.9688 7.7878 17.3736 7.7878C17.7784 7.7878 18.1109 7.45524 18.1109 7.05042V6.31305C18.1109 5.72635 17.8779 5.16369 17.463 4.74884C17.0482 4.33398 16.4855 4.10092 15.8988 4.10092H15.6629L14.3725 0.878591C14.2994 0.699026 14.1589 0.55523 13.9811 0.478037C13.8033 0.400844 13.6023 0.396401 13.4212 0.46566L3.83536 4.15254ZM14.0701 4.10092H8.07527L13.2738 2.10263L14.0701 4.10092Z" fill="#15A600"/>
</g>
<defs>
<clipPath id="clip0_2775_7027">
<rect width="20" height="20" fill="white"/>
</clipPath>
</defs>
</svg>
