<svg width="20" height="20" viewBox="0 0 20 20" fill="none" xmlns="http://www.w3.org/2000/svg">
<g clip-path="url(#clip0_2775_7032)">
<path d="M16.7807 19.9998C16.4724 19.9989 16.1673 19.937 15.8831 19.8176C15.5989 19.6981 15.3412 19.5236 15.1249 19.304L9.99992 14.209L4.87498 19.3073C4.54584 19.6412 4.12373 19.8683 3.66367 19.9588C3.20362 20.0493 2.72696 19.9991 2.29584 19.8148C1.86044 19.6397 1.48797 19.3373 1.22707 18.9472C0.966162 18.5571 0.828953 18.0974 0.833355 17.6281V4.16662C0.833355 3.06156 1.27234 2.00177 2.05373 1.22038C2.83512 0.438982 3.89492 0 4.99998 0L14.9999 0C15.547 0 16.0888 0.107773 16.5944 0.317165C17.0999 0.526557 17.5592 0.833468 17.9461 1.22038C18.333 1.60728 18.6399 2.06661 18.8493 2.57212C19.0587 3.07764 19.1665 3.61945 19.1665 4.16662V17.6281C19.1712 18.097 19.0344 18.5565 18.7742 18.9465C18.5139 19.3366 18.1421 19.6391 17.7073 19.8148C17.4138 19.9375 17.0988 20.0004 16.7807 19.9998ZM4.99998 1.66665C4.33694 1.66665 3.70106 1.93004 3.23223 2.39887C2.76339 2.86771 2.5 3.50359 2.5 4.16662V17.6281C2.4997 17.767 2.54056 17.9028 2.61742 18.0185C2.69428 18.1341 2.80368 18.2244 2.93182 18.2779C3.05996 18.3314 3.20108 18.3457 3.33736 18.3191C3.47364 18.2924 3.59896 18.226 3.69749 18.1281L9.41659 12.444C9.57273 12.2888 9.78393 12.2017 10.0041 12.2017C10.2242 12.2017 10.4354 12.2888 10.5916 12.444L16.304 18.1265C16.4025 18.2243 16.5279 18.2908 16.6641 18.3174C16.8004 18.3441 16.9415 18.3298 17.0697 18.2762C17.1978 18.2227 17.3072 18.1325 17.3841 18.0168C17.4609 17.9012 17.5018 17.7653 17.5015 17.6265V4.16662C17.5015 3.50359 17.2381 2.86771 16.7693 2.39887C16.3004 1.93004 15.6646 1.66665 15.0015 1.66665H4.99998Z" fill="#15A600"/>
</g>
<defs>
<clipPath id="clip0_2775_7032">
<rect width="20" height="20" fill="white"/>
</clipPath>
</defs>
</svg>
