<svg width="20" height="20" viewBox="0 0 20 20" fill="none" xmlns="http://www.w3.org/2000/svg">
<path d="M11.2499 10.0001C11.2499 10.1643 11.2175 10.3269 11.1546 10.4786C11.0917 10.6303 10.9995 10.7681 10.8834 10.8841C10.7672 11.0002 10.6294 11.0923 10.4776 11.1551C10.3259 11.2179 10.1633 11.2501 9.99909 11.2501C9.83489 11.25 9.6723 11.2176 9.52061 11.1547C9.36893 11.0919 9.23111 10.9997 9.11504 10.8836C8.88062 10.649 8.74898 10.3309 8.74909 9.99925C8.74921 9.66762 8.88105 9.34962 9.11563 9.1152C9.35021 8.88078 9.6683 8.74914 9.99993 8.74925C10.3316 8.74936 10.6496 8.88121 10.884 9.11579C11.1184 9.35036 11.25 9.66846 11.2499 10.0001ZM14.1666 8.75009C14.0024 8.75014 13.8398 8.78254 13.6881 8.84543C13.5364 8.90832 13.3986 9.00047 13.2825 9.11662C13.1665 9.23277 13.0744 9.37065 13.0116 9.52238C12.9488 9.6741 12.9165 9.83671 12.9166 10.0009C12.9166 10.1651 12.949 10.3277 13.0119 10.4794C13.0748 10.6311 13.167 10.7689 13.2831 10.885C13.3993 11.0011 13.5372 11.0931 13.6889 11.1559C13.8406 11.2187 14.0032 11.251 14.1674 11.2509C14.4991 11.2508 14.8171 11.119 15.0515 10.8844C15.2859 10.6498 15.4175 10.3317 15.4174 10.0001C15.4173 9.66846 15.2855 9.35045 15.0509 9.11603C14.8163 8.88161 14.4982 8.74998 14.1666 8.75009ZM5.83326 8.75009C5.66905 8.75014 5.50647 8.78254 5.35478 8.84543C5.20309 8.90832 5.06528 9.00047 4.94921 9.11662C4.83313 9.23277 4.74107 9.37065 4.67828 9.52238C4.6155 9.6741 4.58321 9.83671 4.58326 10.0009C4.58332 10.1651 4.61571 10.3277 4.6786 10.4794C4.74149 10.6311 4.83364 10.7689 4.94979 10.885C5.06595 11.0011 5.20382 11.0931 5.35555 11.1559C5.50728 11.2187 5.66989 11.251 5.8341 11.2509C6.16573 11.2508 6.48373 11.119 6.71815 10.8844C6.95257 10.6498 7.08421 10.3317 7.0841 10.0001C7.08398 9.66846 6.95214 9.35045 6.71756 9.11603C6.48299 8.88161 6.16489 8.74998 5.83326 8.75009ZM19.9999 10.2834V15.8334C19.9999 18.1309 18.1308 20.0001 15.8333 20.0001H10.9024C5.06826 20.0001 0.391595 16.0068 0.0249282 10.7118C-0.175905 7.81509 0.880762 4.98009 2.92409 2.93425C4.96743 0.888421 7.80243 -0.171579 10.6966 0.0242539C15.9133 0.378421 19.9999 4.88425 19.9999 10.2834ZM18.3333 10.2834C18.3333 5.75759 14.9299 1.98175 10.5841 1.68675C9.39326 1.60397 8.19852 1.77761 7.08051 2.19594C5.96251 2.61428 4.94725 3.26758 4.10326 4.11175C3.26036 4.95715 2.60856 5.97347 2.19181 7.09217C1.77507 8.21087 1.60307 9.40593 1.68743 10.5968C1.99826 15.0801 5.87409 18.3343 10.9033 18.3343H15.8341C17.2124 18.3343 18.3341 17.2126 18.3341 15.8343V10.2843L18.3333 10.2834Z" fill="#15A600"/>
</svg>
