<svg width="24" height="25" viewBox="0 0 24 25" fill="none" xmlns="http://www.w3.org/2000/svg">
<path d="M4.875 21.125C4.83949 21.1246 4.80419 21.1196 4.77 21.11C4.69211 21.0873 4.62368 21.0399 4.575 20.975C4.52632 20.9101 4.5 20.8311 4.5 20.75V13.4619H0.375C0.275544 13.4619 0.180161 13.4224 0.109835 13.352C0.0395088 13.2817 0 13.1863 0 13.0869V4.25C0 4.15054 0.0395088 4.05516 0.109835 3.98484C0.180161 3.91451 0.275544 3.875 0.375 3.875H9.75C9.84946 3.875 9.94484 3.91451 10.0152 3.98484C10.0855 4.05516 10.125 4.15054 10.125 4.25V13.0794C10.125 13.1504 10.1049 13.22 10.0669 13.28L5.19187 20.9506C5.15804 21.004 5.11125 21.0481 5.05585 21.0785C5.00045 21.109 4.93824 21.125 4.875 21.125ZM0.75 12.7044H4.875C4.97446 12.7044 5.06984 12.7439 5.14016 12.8142C5.21049 12.8845 5.25 12.9799 5.25 13.0794V19.4544L9.375 12.9688V4.625H0.75V12.7044ZM18.75 21.125C18.7145 21.1246 18.6792 21.1196 18.645 21.11C18.5671 21.0873 18.4987 21.0399 18.45 20.975C18.4013 20.9101 18.375 20.8311 18.375 20.75V13.4619H14.25C14.1505 13.4619 14.0552 13.4224 13.9848 13.352C13.9145 13.2817 13.875 13.1863 13.875 13.0869V4.25C13.875 4.15054 13.9145 4.05516 13.9848 3.98484C14.0552 3.91451 14.1505 3.875 14.25 3.875H23.625C23.7245 3.875 23.8198 3.91451 23.8902 3.98484C23.9605 4.05516 24 4.15054 24 4.25V13.0794C24 13.1504 23.9799 13.22 23.9419 13.28L19.0669 20.9506C19.033 21.004 18.9863 21.0481 18.9308 21.0785C18.8754 21.109 18.8132 21.125 18.75 21.125ZM14.625 12.7044H18.75C18.8495 12.7044 18.9448 12.7439 19.0152 12.8142C19.0855 12.8845 19.125 12.9799 19.125 13.0794V19.4544L23.25 12.9688V4.625H14.625V12.7044Z" fill="#15A600"/>
</svg>
