<svg width="201" height="200" viewBox="0 0 201 200" fill="none" xmlns="http://www.w3.org/2000/svg">
<g clip-path="url(#clip0_442_2718)">
<path d="M193.044 97.7657H137.628C137.628 97.7657 143.126 82.756 151.584 82.756C160.041 82.756 162.689 93.1154 162.689 93.1154C162.689 93.1154 168.398 87.4891 173.085 87.4891C177.772 87.4891 181.833 94.9249 181.833 94.9249C181.833 94.9249 188.472 90.91 193.044 97.7657Z" fill="#EBEBEB"/>
<path d="M127.227 19.6508H101.324C101.324 19.6508 107.111 11.2573 111.674 11.2573C116.237 11.2573 117.581 16.856 117.581 16.856C117.581 16.856 120.804 14.2501 123.779 14.7151C126.753 15.1801 127.227 19.6508 127.227 19.6508Z" fill="#EBEBEB"/>
<path d="M176.469 37.1651H150.562C150.562 37.1651 156.349 28.7762 160.907 28.7762C165.465 28.7762 166.801 34.3703 166.801 34.3703C166.801 34.3703 170.023 31.7598 172.998 32.2248C175.972 32.6898 176.469 37.1651 176.469 37.1651Z" fill="#EBEBEB"/>
<path d="M140.022 79.0727H114.119C114.119 79.0727 119.907 70.6838 124.465 70.6838C129.023 70.6838 130.372 76.2779 130.372 76.2779C130.372 76.2779 133.595 73.6674 136.574 74.1324C139.553 74.5974 140.022 79.0727 140.022 79.0727Z" fill="#EBEBEB"/>
<path d="M33.845 96.9691H7.95557C7.95557 96.9691 13.7292 88.6079 18.2874 88.6079C22.8456 88.6079 24.1992 94.1974 24.1992 94.1974C24.1992 94.1974 27.4221 91.5868 30.3965 92.0565C33.3708 92.5261 33.845 96.9691 33.845 96.9691Z" fill="#EBEBEB"/>
<path d="M68.229 44.9923H17.7715C17.7715 44.9923 24.6778 29.5682 32.0721 28.6013C39.4665 27.6345 42.9979 40.0658 42.9979 40.0658C42.9979 40.0658 47.7679 35.6734 51.5157 35.6734C55.2635 35.6734 58.1411 41.4563 58.1411 41.4563C58.1411 41.4563 65.6552 37.5013 68.229 44.9923Z" fill="#EBEBEB"/>
<path d="M156.317 109.143H141.049V189.187H156.317V109.143Z" fill="#DBDBDB"/>
<path d="M146.385 111.744H143.416V114.801H146.385V111.744Z" fill="#EBEBEB"/>
<path d="M150.184 111.744H147.214V114.801H150.184V111.744Z" fill="#EBEBEB"/>
<path d="M146.385 116.928H143.416V119.986H146.385V116.928Z" fill="#EBEBEB"/>
<path d="M150.184 116.928H147.214V119.986H150.184V116.928Z" fill="#EBEBEB"/>
<path d="M146.385 122.117H143.416V125.175H146.385V122.117Z" fill="#EBEBEB"/>
<path d="M150.184 122.117H147.214V125.175H150.184V122.117Z" fill="#EBEBEB"/>
<path d="M146.385 127.306H143.416V130.363H146.385V127.306Z" fill="#EBEBEB"/>
<path d="M150.184 127.306H147.214V130.363H150.184V127.306Z" fill="#EBEBEB"/>
<path d="M146.385 132.495H143.416V135.552H146.385V132.495Z" fill="#EBEBEB"/>
<path d="M150.184 132.495H147.214V135.552H150.184V132.495Z" fill="#EBEBEB"/>
<path d="M146.385 137.684H143.416V140.741H146.385V137.684Z" fill="#EBEBEB"/>
<path d="M150.184 137.684H147.214V140.741H150.184V137.684Z" fill="#EBEBEB"/>
<path d="M146.385 142.873H143.416V145.93H146.385V142.873Z" fill="#EBEBEB"/>
<path d="M150.184 142.873H147.214V145.93H150.184V142.873Z" fill="#EBEBEB"/>
<path d="M146.385 148.062H143.416V151.119H146.385V148.062Z" fill="#EBEBEB"/>
<path d="M150.184 148.062H147.214V151.119H150.184V148.062Z" fill="#EBEBEB"/>
<path d="M146.385 153.251H143.416V156.308H146.385V153.251Z" fill="#EBEBEB"/>
<path d="M150.184 153.251H147.214V156.308H150.184V153.251Z" fill="#EBEBEB"/>
<path d="M146.385 158.44H143.416V161.497H146.385V158.44Z" fill="#EBEBEB"/>
<path d="M150.184 158.44H147.214V161.497H150.184V158.44Z" fill="#EBEBEB"/>
<path d="M146.385 163.629H143.416V166.686H146.385V163.629Z" fill="#EBEBEB"/>
<path d="M150.184 163.629H147.214V166.686H150.184V163.629Z" fill="#EBEBEB"/>
<path d="M146.385 168.818H143.416V171.875H146.385V168.818Z" fill="#EBEBEB"/>
<path d="M150.184 168.818H147.214V171.875H150.184V168.818Z" fill="#EBEBEB"/>
<path d="M146.385 174.007H143.416V177.064H146.385V174.007Z" fill="#EBEBEB"/>
<path d="M150.184 174.007H147.214V177.064H150.184V174.007Z" fill="#EBEBEB"/>
<path d="M146.385 179.196H143.416V182.253H146.385V179.196Z" fill="#EBEBEB"/>
<path d="M150.976 182.253H153.946V179.196H150.976V182.253Z" fill="#EBEBEB"/>
<path d="M150.976 177.064H153.946V174.007H150.976V177.064Z" fill="#EBEBEB"/>
<path d="M150.976 171.875H153.946V168.818H150.976V171.875Z" fill="#EBEBEB"/>
<path d="M150.976 166.686H153.946V163.629H150.976V166.686Z" fill="#EBEBEB"/>
<path d="M150.976 161.497H153.946V158.44H150.976V161.497Z" fill="#EBEBEB"/>
<path d="M150.976 156.313H153.946V153.256H150.976V156.313Z" fill="#EBEBEB"/>
<path d="M150.976 151.124H153.946V148.067H150.976V151.124Z" fill="#EBEBEB"/>
<path d="M150.976 145.935H153.946V142.878H150.976V145.935Z" fill="#EBEBEB"/>
<path d="M150.976 140.746H153.946V137.689H150.976V140.746Z" fill="#EBEBEB"/>
<path d="M150.976 135.557H153.946V132.5H150.976V135.557Z" fill="#EBEBEB"/>
<path d="M150.976 130.368H153.946V127.311H150.976V130.368Z" fill="#EBEBEB"/>
<path d="M150.976 125.179H153.946V122.122H150.976V125.179Z" fill="#EBEBEB"/>
<path d="M150.976 119.99H153.946V116.933H150.976V119.99Z" fill="#EBEBEB"/>
<path d="M150.976 114.797H153.946V111.739H150.976V114.797Z" fill="#EBEBEB"/>
<path d="M150.184 179.196H147.214V182.253H150.184V179.196Z" fill="#EBEBEB"/>
<path d="M168.357 109.143H156.317V189.187H168.357V109.143Z" fill="#A6A6A6"/>
<path d="M164.664 182.253H167.114V179.196H164.664V182.253Z" fill="#C7C7C7"/>
<path d="M161.529 182.253H163.978V179.196H161.529V182.253Z" fill="#C7C7C7"/>
<path d="M164.664 177.064H167.114V174.007H164.664V177.064Z" fill="#C7C7C7"/>
<path d="M161.529 177.064H163.978V174.007H161.529V177.064Z" fill="#C7C7C7"/>
<path d="M164.664 171.875H167.114V168.818H164.664V171.875Z" fill="#C7C7C7"/>
<path d="M161.529 171.875H163.978V168.818H161.529V171.875Z" fill="#C7C7C7"/>
<path d="M164.664 166.686H167.114V163.629H164.664V166.686Z" fill="#C7C7C7"/>
<path d="M161.529 166.686H163.978V163.629H161.529V166.686Z" fill="#C7C7C7"/>
<path d="M164.664 161.497H167.114V158.44H164.664V161.497Z" fill="#C7C7C7"/>
<path d="M161.529 161.497H163.978V158.44H161.529V161.497Z" fill="#C7C7C7"/>
<path d="M164.664 156.313H167.114V153.256H164.664V156.313Z" fill="#C7C7C7"/>
<path d="M161.529 156.313H163.978V153.256H161.529V156.313Z" fill="#C7C7C7"/>
<path d="M164.664 151.124H167.114V148.067H164.664V151.124Z" fill="#C7C7C7"/>
<path d="M161.529 151.124H163.978V148.067H161.529V151.124Z" fill="#C7C7C7"/>
<path d="M164.664 145.935H167.114V142.878H164.664V145.935Z" fill="#C7C7C7"/>
<path d="M161.529 145.935H163.978V142.878H161.529V145.935Z" fill="#C7C7C7"/>
<path d="M164.664 140.746H167.114V137.689H164.664V140.746Z" fill="#C7C7C7"/>
<path d="M161.529 140.746H163.978V137.689H161.529V140.746Z" fill="#C7C7C7"/>
<path d="M164.664 135.557H167.114V132.5H164.664V135.557Z" fill="#C7C7C7"/>
<path d="M161.529 135.557H163.978V132.5H161.529V135.557Z" fill="#C7C7C7"/>
<path d="M164.664 130.368H167.114V127.311H164.664V130.368Z" fill="#C7C7C7"/>
<path d="M161.529 130.368H163.978V127.311H161.529V130.368Z" fill="#C7C7C7"/>
<path d="M164.664 125.179H167.114V122.122H164.664V125.179Z" fill="#C7C7C7"/>
<path d="M161.529 125.179H163.978V122.122H161.529V125.179Z" fill="#C7C7C7"/>
<path d="M164.664 119.99H167.114V116.933H164.664V119.99Z" fill="#C7C7C7"/>
<path d="M161.529 119.99H163.978V116.933H161.529V119.99Z" fill="#C7C7C7"/>
<path d="M164.664 114.797H167.114V111.739H164.664V114.797Z" fill="#C7C7C7"/>
<path d="M160.87 111.744H158.421V114.801H160.87V111.744Z" fill="#C7C7C7"/>
<path d="M160.87 116.928H158.421V119.986H160.87V116.928Z" fill="#C7C7C7"/>
<path d="M160.87 122.117H158.421V125.175H160.87V122.117Z" fill="#C7C7C7"/>
<path d="M160.87 127.306H158.421V130.363H160.87V127.306Z" fill="#C7C7C7"/>
<path d="M160.87 132.495H158.421V135.552H160.87V132.495Z" fill="#C7C7C7"/>
<path d="M160.87 137.684H158.421V140.741H160.87V137.684Z" fill="#C7C7C7"/>
<path d="M160.87 142.873H158.421V145.93H160.87V142.873Z" fill="#C7C7C7"/>
<path d="M160.87 148.062H158.421V151.119H160.87V148.062Z" fill="#C7C7C7"/>
<path d="M160.87 153.251H158.421V156.308H160.87V153.251Z" fill="#C7C7C7"/>
<path d="M160.87 158.44H158.421V161.497H160.87V158.44Z" fill="#C7C7C7"/>
<path d="M160.87 163.629H158.421V166.686H160.87V163.629Z" fill="#C7C7C7"/>
<path d="M160.87 168.818H158.421V171.875H160.87V168.818Z" fill="#C7C7C7"/>
<path d="M160.87 174.007H158.421V177.064H160.87V174.007Z" fill="#C7C7C7"/>
<path d="M160.87 179.196H158.421V182.253H160.87V179.196Z" fill="#C7C7C7"/>
<path d="M161.529 114.797H163.978V111.739H161.529V114.797Z" fill="#C7C7C7"/>
<path d="M47.9014 104.824H29.8391V189.182H47.9014V104.824Z" fill="#EBEBEB"/>
<path d="M47.9015 102.978H29.4019V104.824H47.9015V102.978Z" fill="#C7C7C7"/>
<path d="M33.2971 107.55H31.4692V189.187H33.2971V107.55Z" fill="white"/>
<path d="M36.543 107.55H34.7151V189.187H36.543V107.55Z" fill="white"/>
<path d="M39.7844 107.55H37.9565V189.187H39.7844V107.55Z" fill="white"/>
<path d="M43.0302 107.55H41.1978V189.187H43.0302V107.55Z" fill="white"/>
<path d="M46.2671 107.55H44.4392V189.187H46.2671V107.55Z" fill="white"/>
<path d="M33.2971 109.884H31.4692V113.53H33.2971V109.884Z" fill="#EBEBEB"/>
<path d="M36.543 109.884H34.7151V113.53H36.543V109.884Z" fill="#EBEBEB"/>
<path d="M39.7844 109.884H37.9565V113.53H39.7844V109.884Z" fill="#EBEBEB"/>
<path d="M43.0302 109.884H41.1978V113.53H43.0302V109.884Z" fill="#EBEBEB"/>
<path d="M46.2671 109.884H44.4392V113.53H46.2671V109.884Z" fill="#EBEBEB"/>
<path d="M33.2971 115.805H31.4692V119.451H33.2971V115.805Z" fill="#EBEBEB"/>
<path d="M36.543 115.805H34.7151V119.451H36.543V115.805Z" fill="#EBEBEB"/>
<path d="M39.7844 115.805H37.9565V119.451H39.7844V115.805Z" fill="#EBEBEB"/>
<path d="M43.0302 115.805H41.1978V119.451H43.0302V115.805Z" fill="#EBEBEB"/>
<path d="M46.2671 115.805H44.4392V119.451H46.2671V115.805Z" fill="#EBEBEB"/>
<path d="M33.2971 121.73H31.4692V125.377H33.2971V121.73Z" fill="#EBEBEB"/>
<path d="M36.543 121.73H34.7151V125.377H36.543V121.73Z" fill="#EBEBEB"/>
<path d="M39.7844 121.73H37.9565V125.377H39.7844V121.73Z" fill="#EBEBEB"/>
<path d="M43.0302 121.73H41.1978V125.377H43.0302V121.73Z" fill="#EBEBEB"/>
<path d="M46.2671 121.73H44.4392V125.377H46.2671V121.73Z" fill="#EBEBEB"/>
<path d="M33.2971 127.656H31.4692V131.303H33.2971V127.656Z" fill="#EBEBEB"/>
<path d="M36.543 127.656H34.7151V131.303H36.543V127.656Z" fill="#EBEBEB"/>
<path d="M39.7844 127.656H37.9565V131.303H39.7844V127.656Z" fill="#EBEBEB"/>
<path d="M43.0302 127.656H41.1978V131.303H43.0302V127.656Z" fill="#EBEBEB"/>
<path d="M46.2671 127.656H44.4392V131.303H46.2671V127.656Z" fill="#EBEBEB"/>
<path d="M33.2971 133.582H31.4692V137.228H33.2971V133.582Z" fill="#EBEBEB"/>
<path d="M36.543 133.582H34.7151V137.228H36.543V133.582Z" fill="#EBEBEB"/>
<path d="M39.7844 133.582H37.9565V137.228H39.7844V133.582Z" fill="#EBEBEB"/>
<path d="M43.0302 133.582H41.1978V137.228H43.0302V133.582Z" fill="#EBEBEB"/>
<path d="M46.2671 133.582H44.4392V137.228H46.2671V133.582Z" fill="#EBEBEB"/>
<path d="M33.2971 139.507H31.4692V143.154H33.2971V139.507Z" fill="#EBEBEB"/>
<path d="M36.543 139.507H34.7151V143.154H36.543V139.507Z" fill="#EBEBEB"/>
<path d="M39.7844 139.507H37.9565V143.154H39.7844V139.507Z" fill="#EBEBEB"/>
<path d="M43.0302 139.507H41.1978V143.154H43.0302V139.507Z" fill="#EBEBEB"/>
<path d="M46.2671 139.507H44.4392V143.154H46.2671V139.507Z" fill="#EBEBEB"/>
<path d="M33.2971 145.433H31.4692V149.08H33.2971V145.433Z" fill="#EBEBEB"/>
<path d="M36.543 145.433H34.7151V149.08H36.543V145.433Z" fill="#EBEBEB"/>
<path d="M39.7844 145.433H37.9565V149.08H39.7844V145.433Z" fill="#EBEBEB"/>
<path d="M43.0302 145.433H41.1978V149.08H43.0302V145.433Z" fill="#EBEBEB"/>
<path d="M46.2671 145.433H44.4392V149.08H46.2671V145.433Z" fill="#EBEBEB"/>
<path d="M33.2971 151.359H31.4692V155.005H33.2971V151.359Z" fill="#EBEBEB"/>
<path d="M36.543 151.359H34.7151V155.005H36.543V151.359Z" fill="#EBEBEB"/>
<path d="M39.7844 151.359H37.9565V155.005H39.7844V151.359Z" fill="#EBEBEB"/>
<path d="M43.0302 151.359H41.1978V155.005H43.0302V151.359Z" fill="#EBEBEB"/>
<path d="M46.2671 151.359H44.4392V155.005H46.2671V151.359Z" fill="#EBEBEB"/>
<path d="M33.2971 157.284H31.4692V160.931H33.2971V157.284Z" fill="#EBEBEB"/>
<path d="M36.543 157.284H34.7151V160.931H36.543V157.284Z" fill="#EBEBEB"/>
<path d="M39.7844 157.284H37.9565V160.931H39.7844V157.284Z" fill="#EBEBEB"/>
<path d="M43.0302 157.284H41.1978V160.931H43.0302V157.284Z" fill="#EBEBEB"/>
<path d="M46.2671 157.284H44.4392V160.931H46.2671V157.284Z" fill="#EBEBEB"/>
<path d="M33.2971 163.21H31.4692V166.856H33.2971V163.21Z" fill="#EBEBEB"/>
<path d="M36.543 163.21H34.7151V166.856H36.543V163.21Z" fill="#EBEBEB"/>
<path d="M39.7844 163.21H37.9565V166.856H39.7844V163.21Z" fill="#EBEBEB"/>
<path d="M43.0302 163.21H41.1978V166.856H43.0302V163.21Z" fill="#EBEBEB"/>
<path d="M46.2671 163.21H44.4392V166.856H46.2671V163.21Z" fill="#EBEBEB"/>
<path d="M33.2971 169.135H31.4692V172.782H33.2971V169.135Z" fill="#EBEBEB"/>
<path d="M36.543 169.135H34.7151V172.782H36.543V169.135Z" fill="#EBEBEB"/>
<path d="M39.7844 169.135H37.9565V172.782H39.7844V169.135Z" fill="#EBEBEB"/>
<path d="M43.0302 169.135H41.1978V172.782H43.0302V169.135Z" fill="#EBEBEB"/>
<path d="M46.2671 169.135H44.4392V172.782H46.2671V169.135Z" fill="#EBEBEB"/>
<path d="M33.2971 175.061H31.4692V178.708H33.2971V175.061Z" fill="#EBEBEB"/>
<path d="M36.543 175.061H34.7151V178.708H36.543V175.061Z" fill="#EBEBEB"/>
<path d="M39.7844 175.061H37.9565V178.708H39.7844V175.061Z" fill="#EBEBEB"/>
<path d="M43.0302 175.061H41.1978V178.708H43.0302V175.061Z" fill="#EBEBEB"/>
<path d="M46.2671 175.061H44.4392V178.708H46.2671V175.061Z" fill="#EBEBEB"/>
<path d="M33.2971 180.987H31.4692V184.633H33.2971V180.987Z" fill="#EBEBEB"/>
<path d="M36.543 180.987H34.7151V184.633H36.543V180.987Z" fill="#EBEBEB"/>
<path d="M39.7844 180.987H37.9565V184.633H39.7844V180.987Z" fill="#EBEBEB"/>
<path d="M43.0302 180.987H41.1978V184.633H43.0302V180.987Z" fill="#EBEBEB"/>
<path d="M46.2671 180.987H44.4392V184.633H46.2671V180.987Z" fill="#EBEBEB"/>
<path d="M33.2971 186.912H31.4692V189.187H33.2971V186.912Z" fill="#EBEBEB"/>
<path d="M36.543 186.912H34.7151V189.187H36.543V186.912Z" fill="#EBEBEB"/>
<path d="M39.7844 186.912H37.9565V189.187H39.7844V186.912Z" fill="#EBEBEB"/>
<path d="M43.0302 186.912H41.1978V189.187H43.0302V186.912Z" fill="#EBEBEB"/>
<path d="M46.2671 186.912H44.4392V189.187H46.2671V186.912Z" fill="#EBEBEB"/>
<path d="M59.4996 104.824H47.9016V189.182H59.4996V104.824Z" fill="#DBDBDB"/>
<path d="M60.0015 102.978H47.9016V104.824H60.0015V102.978Z" fill="#C7C7C7"/>
<path d="M51.3686 107.55H49.5361V189.187H51.3686V107.55Z" fill="#C7C7C7"/>
<path d="M54.6052 107.55H52.7773V189.187H54.6052V107.55Z" fill="#C7C7C7"/>
<path d="M57.8467 107.55H56.0188V189.187H57.8467V107.55Z" fill="#C7C7C7"/>
<path d="M51.3686 109.884H49.5361V113.53H51.3686V109.884Z" fill="#DBDBDB"/>
<path d="M54.6052 109.884H52.7773V113.53H54.6052V109.884Z" fill="#DBDBDB"/>
<path d="M57.8467 109.884H56.0188V113.53H57.8467V109.884Z" fill="#DBDBDB"/>
<path d="M51.3686 115.805H49.5361V119.451H51.3686V115.805Z" fill="#DBDBDB"/>
<path d="M54.6052 115.805H52.7773V119.451H54.6052V115.805Z" fill="#DBDBDB"/>
<path d="M57.8467 115.805H56.0188V119.451H57.8467V115.805Z" fill="#DBDBDB"/>
<path d="M51.3686 121.73H49.5361V125.377H51.3686V121.73Z" fill="#DBDBDB"/>
<path d="M54.6052 121.73H52.7773V125.377H54.6052V121.73Z" fill="#DBDBDB"/>
<path d="M57.8467 121.73H56.0188V125.377H57.8467V121.73Z" fill="#DBDBDB"/>
<path d="M51.3686 127.656H49.5361V131.303H51.3686V127.656Z" fill="#DBDBDB"/>
<path d="M54.6052 127.656H52.7773V131.303H54.6052V127.656Z" fill="#DBDBDB"/>
<path d="M57.8467 127.656H56.0188V131.303H57.8467V127.656Z" fill="#DBDBDB"/>
<path d="M51.3686 133.582H49.5361V137.228H51.3686V133.582Z" fill="#DBDBDB"/>
<path d="M54.6052 133.582H52.7773V137.228H54.6052V133.582Z" fill="#DBDBDB"/>
<path d="M57.8467 133.582H56.0188V137.228H57.8467V133.582Z" fill="#DBDBDB"/>
<path d="M51.3686 139.507H49.5361V143.154H51.3686V139.507Z" fill="#DBDBDB"/>
<path d="M54.6052 139.507H52.7773V143.154H54.6052V139.507Z" fill="#DBDBDB"/>
<path d="M57.8467 139.507H56.0188V143.154H57.8467V139.507Z" fill="#DBDBDB"/>
<path d="M51.3686 145.433H49.5361V149.08H51.3686V145.433Z" fill="#DBDBDB"/>
<path d="M54.6052 145.433H52.7773V149.08H54.6052V145.433Z" fill="#DBDBDB"/>
<path d="M57.8467 145.433H56.0188V149.08H57.8467V145.433Z" fill="#DBDBDB"/>
<path d="M51.3686 151.359H49.5361V155.005H51.3686V151.359Z" fill="#DBDBDB"/>
<path d="M54.6052 151.359H52.7773V155.005H54.6052V151.359Z" fill="#DBDBDB"/>
<path d="M57.8467 151.359H56.0188V155.005H57.8467V151.359Z" fill="#DBDBDB"/>
<path d="M51.3686 157.284H49.5361V160.931H51.3686V157.284Z" fill="#DBDBDB"/>
<path d="M54.6052 157.284H52.7773V160.931H54.6052V157.284Z" fill="#DBDBDB"/>
<path d="M57.8467 157.284H56.0188V160.931H57.8467V157.284Z" fill="#DBDBDB"/>
<path d="M51.3686 163.21H49.5361V166.856H51.3686V163.21Z" fill="#DBDBDB"/>
<path d="M54.6052 163.21H52.7773V166.856H54.6052V163.21Z" fill="#DBDBDB"/>
<path d="M57.8467 163.21H56.0188V166.856H57.8467V163.21Z" fill="#DBDBDB"/>
<path d="M51.3686 169.135H49.5361V172.782H51.3686V169.135Z" fill="#DBDBDB"/>
<path d="M54.6052 169.135H52.7773V172.782H54.6052V169.135Z" fill="#DBDBDB"/>
<path d="M57.8467 169.135H56.0188V172.782H57.8467V169.135Z" fill="#DBDBDB"/>
<path d="M51.3686 175.061H49.5361V178.708H51.3686V175.061Z" fill="#DBDBDB"/>
<path d="M54.6052 175.061H52.7773V178.708H54.6052V175.061Z" fill="#DBDBDB"/>
<path d="M57.8467 175.061H56.0188V178.708H57.8467V175.061Z" fill="#DBDBDB"/>
<path d="M51.3686 180.987H49.5361V184.633H51.3686V180.987Z" fill="#DBDBDB"/>
<path d="M54.6052 180.987H52.7773V184.633H54.6052V180.987Z" fill="#DBDBDB"/>
<path d="M57.8467 180.987H56.0188V184.633H57.8467V180.987Z" fill="#DBDBDB"/>
<path d="M51.3686 186.912H49.5361V189.187H51.3686V186.912Z" fill="#DBDBDB"/>
<path d="M54.6052 186.912H52.7773V189.187H54.6052V186.912Z" fill="#DBDBDB"/>
<path d="M57.8467 186.912H56.0188V189.187H57.8467V186.912Z" fill="#DBDBDB"/>
<path d="M25.1476 135.829H7.15894V189.187H25.1476V135.829Z" fill="#EBEBEB"/>
<path d="M25.1474 131.303H9.71875V135.829H25.1474V131.303Z" fill="#C7C7C7"/>
<path d="M23.1769 138.191H9.13403V189.187H23.1769V138.191Z" fill="#DBDBDB"/>
<path d="M23.1769 143.057H9.13403V144.264H23.1769V143.057Z" fill="white"/>
<path d="M23.1769 148.048H9.13403V149.255H23.1769V148.048Z" fill="white"/>
<path d="M23.1769 153.039H9.13403V154.245H23.1769V153.039Z" fill="white"/>
<path d="M23.1769 158.03H9.13403V159.236H23.1769V158.03Z" fill="white"/>
<path d="M23.1769 163.021H9.13403V164.227H23.1769V163.021Z" fill="white"/>
<path d="M23.1769 168.012H9.13403V169.218H23.1769V168.012Z" fill="white"/>
<path d="M23.1769 173.003H9.13403V174.209H23.1769V173.003Z" fill="white"/>
<path d="M23.1769 177.994H9.13403V179.2H23.1769V177.994Z" fill="white"/>
<path d="M23.1769 182.99H9.13403V184.196H23.1769V182.99Z" fill="white"/>
<path d="M23.1769 187.98H9.13403V189.187H23.1769V187.98Z" fill="white"/>
<path d="M36.4142 135.829H25.1477V189.187H36.4142V135.829Z" fill="#DBDBDB"/>
<path d="M34.7245 131.303H25.1477V135.829H34.7245V131.303Z" fill="#A6A6A6"/>
<path d="M35.3597 138.191H26.6992V189.187H35.3597V138.191Z" fill="#C7C7C7"/>
<path d="M35.3597 143.057H26.6992V144.264H35.3597V143.057Z" fill="white"/>
<path d="M35.3597 148.048H26.6992V149.255H35.3597V148.048Z" fill="white"/>
<path d="M35.3597 153.039H26.6992V154.245H35.3597V153.039Z" fill="white"/>
<path d="M35.3597 158.03H26.6992V159.236H35.3597V158.03Z" fill="white"/>
<path d="M35.3597 163.021H26.6992V164.227H35.3597V163.021Z" fill="white"/>
<path d="M35.3597 168.012H26.6992V169.218H35.3597V168.012Z" fill="white"/>
<path d="M35.3597 173.003H26.6992V174.209H35.3597V173.003Z" fill="white"/>
<path d="M35.3597 177.994H26.6992V179.2H35.3597V177.994Z" fill="white"/>
<path d="M35.3597 182.99H26.6992V184.196H35.3597V182.99Z" fill="white"/>
<path d="M35.3597 187.98H26.6992V189.187H35.3597V187.98Z" fill="white"/>
<path d="M75.559 157.947H61.6543V189.182H75.559V157.947Z" fill="#DBDBDB"/>
<path d="M66.3 160.65H63.8413V162.565H66.3V160.65Z" fill="#C7C7C7"/>
<path d="M66.3 164.738H63.8413V166.654H66.3V164.738Z" fill="#C7C7C7"/>
<path d="M66.3 168.827H63.8413V170.742H66.3V168.827Z" fill="#C7C7C7"/>
<path d="M66.3 172.916H63.8413V174.831H66.3V172.916Z" fill="#C7C7C7"/>
<path d="M66.3 177.004H63.8413V178.919H66.3V177.004Z" fill="#C7C7C7"/>
<path d="M66.3 181.088H63.8413V183.003H66.3V181.088Z" fill="#C7C7C7"/>
<path d="M66.3 185.177H63.8413V187.092H66.3V185.177Z" fill="#C7C7C7"/>
<path d="M69.8405 160.65H67.3818V162.565H69.8405V160.65Z" fill="#C7C7C7"/>
<path d="M69.8405 164.738H67.3818V166.654H69.8405V164.738Z" fill="#C7C7C7"/>
<path d="M69.8405 168.827H67.3818V170.742H69.8405V168.827Z" fill="#C7C7C7"/>
<path d="M69.8405 172.916H67.3818V174.831H69.8405V172.916Z" fill="#C7C7C7"/>
<path d="M69.8405 177.004H67.3818V178.919H69.8405V177.004Z" fill="#C7C7C7"/>
<path d="M69.8405 181.088H67.3818V183.003H69.8405V181.088Z" fill="#C7C7C7"/>
<path d="M69.8405 185.177H67.3818V187.092H69.8405V185.177Z" fill="#C7C7C7"/>
<path d="M73.372 160.65H70.9133V162.565H73.372V160.65Z" fill="#C7C7C7"/>
<path d="M73.372 164.738H70.9133V166.654H73.372V164.738Z" fill="#C7C7C7"/>
<path d="M73.372 168.827H70.9133V170.742H73.372V168.827Z" fill="#C7C7C7"/>
<path d="M73.372 172.916H70.9133V174.831H73.372V172.916Z" fill="#C7C7C7"/>
<path d="M73.372 177.004H70.9133V178.919H73.372V177.004Z" fill="#C7C7C7"/>
<path d="M73.372 181.088H70.9133V183.003H73.372V181.088Z" fill="#C7C7C7"/>
<path d="M73.372 185.177H70.9133V187.092H73.372V185.177Z" fill="#C7C7C7"/>
<path d="M85.3151 157.947H75.5588V189.182H85.3151V157.947Z" fill="#A6A6A6"/>
<path d="M82.3133 186.783H84.3162V184.868H82.3133V186.783Z" fill="#C7C7C7"/>
<path d="M82.3133 182.699H84.3162V180.784H82.3133V182.699Z" fill="#C7C7C7"/>
<path d="M82.3133 178.611H84.3162V176.695H82.3133V178.611Z" fill="#C7C7C7"/>
<path d="M82.3133 174.527H84.3162V172.612H82.3133V174.527Z" fill="#C7C7C7"/>
<path d="M82.3133 170.434H84.3162V168.518H82.3133V170.434Z" fill="#C7C7C7"/>
<path d="M82.3133 166.345H84.3162V164.43H82.3133V166.345Z" fill="#C7C7C7"/>
<path d="M82.3133 162.261H84.3162V160.346H82.3133V162.261Z" fill="#C7C7C7"/>
<path d="M79.431 186.783H81.4338V184.868H79.431V186.783Z" fill="#C7C7C7"/>
<path d="M79.431 182.699H81.4338V180.784H79.431V182.699Z" fill="#C7C7C7"/>
<path d="M79.431 178.611H81.4338V176.695H79.431V178.611Z" fill="#C7C7C7"/>
<path d="M79.431 174.527H81.4338V172.612H79.431V174.527Z" fill="#C7C7C7"/>
<path d="M79.431 170.434H81.4338V168.518H79.431V170.434Z" fill="#C7C7C7"/>
<path d="M79.431 166.345H81.4338V164.43H79.431V166.345Z" fill="#C7C7C7"/>
<path d="M79.431 162.261H81.4338V160.346H79.431V162.261Z" fill="#C7C7C7"/>
<path d="M76.558 186.783H78.5608V184.868H76.558V186.783Z" fill="#C7C7C7"/>
<path d="M76.558 182.699H78.5608V180.784H76.558V182.699Z" fill="#C7C7C7"/>
<path d="M76.558 178.611H78.5608V176.695H76.558V178.611Z" fill="#C7C7C7"/>
<path d="M76.558 174.527H78.5608V172.612H76.558V174.527Z" fill="#C7C7C7"/>
<path d="M76.558 170.434H78.5608V168.518H76.558V170.434Z" fill="#C7C7C7"/>
<path d="M76.558 166.345H78.5608V164.43H76.558V166.345Z" fill="#C7C7C7"/>
<path d="M76.558 162.261H78.5608V160.346H76.558V162.261Z" fill="#C7C7C7"/>
<path d="M179.006 122.117H169.402V133.467H179.006V122.117Z" fill="#DBDBDB"/>
<path d="M185.102 122.117H179.011V133.881H185.102V122.117Z" fill="#C7C7C7"/>
<path d="M185.507 127.131H179.462V133.886H185.507V127.131Z" fill="#DBDBDB"/>
<path d="M189.278 127.131H185.507V133.886H189.278V127.131Z" fill="#C7C7C7"/>
<path d="M181.253 132.73H165.719V189.182H181.253V132.73Z" fill="#EBEBEB"/>
<path d="M172.381 135.156H167.496V137.15H172.381V135.156Z" fill="white"/>
<path d="M178.629 135.156H173.744V137.15H178.629V135.156Z" fill="white"/>
<path d="M172.381 138.545H167.496V140.539H172.381V138.545Z" fill="white"/>
<path d="M178.629 138.545H173.744V140.539H178.629V138.545Z" fill="white"/>
<path d="M172.381 141.934H167.496V143.927H172.381V141.934Z" fill="white"/>
<path d="M178.629 141.934H173.744V143.927H178.629V141.934Z" fill="white"/>
<path d="M172.381 145.323H167.496V147.316H172.381V145.323Z" fill="white"/>
<path d="M178.629 145.323H173.744V147.316H178.629V145.323Z" fill="white"/>
<path d="M172.381 148.711H167.496V150.705H172.381V148.711Z" fill="white"/>
<path d="M178.629 148.711H173.744V150.705H178.629V148.711Z" fill="white"/>
<path d="M172.381 152.1H167.496V154.093H172.381V152.1Z" fill="white"/>
<path d="M178.629 152.1H173.744V154.093H178.629V152.1Z" fill="white"/>
<path d="M172.381 155.489H167.496V157.482H172.381V155.489Z" fill="white"/>
<path d="M178.629 155.489H173.744V157.482H178.629V155.489Z" fill="white"/>
<path d="M172.381 158.877H167.496V160.871H172.381V158.877Z" fill="white"/>
<path d="M178.629 158.877H173.744V160.871H178.629V158.877Z" fill="white"/>
<path d="M172.381 162.266H167.496V164.26H172.381V162.266Z" fill="white"/>
<path d="M178.629 162.266H173.744V164.26H178.629V162.266Z" fill="white"/>
<path d="M172.381 165.655H167.496V167.648H172.381V165.655Z" fill="white"/>
<path d="M178.629 165.655H173.744V167.648H178.629V165.655Z" fill="white"/>
<path d="M172.381 169.043H167.496V171.037H172.381V169.043Z" fill="white"/>
<path d="M178.629 169.043H173.744V171.037H178.629V169.043Z" fill="white"/>
<path d="M172.381 172.432H167.496V174.43H172.381V172.432Z" fill="white"/>
<path d="M178.629 172.432H173.744V174.43H178.629V172.432Z" fill="white"/>
<path d="M172.381 175.821H167.496V177.814H172.381V175.821Z" fill="white"/>
<path d="M178.629 175.821H173.744V177.814H178.629V175.821Z" fill="white"/>
<path d="M172.381 179.209H167.496V181.203H172.381V179.209Z" fill="white"/>
<path d="M178.629 179.209H173.744V181.203H178.629V179.209Z" fill="white"/>
<path d="M193.841 132.73H181.253V189.182H193.841V132.73Z" fill="#C7C7C7"/>
<path d="M188.569 181.203H192.579V179.21H188.569V181.203Z" fill="#EBEBEB"/>
<path d="M183.436 181.203H187.446V179.21H183.436V181.203Z" fill="#EBEBEB"/>
<path d="M188.569 177.814H192.579V175.821H188.569V177.814Z" fill="#EBEBEB"/>
<path d="M183.436 177.814H187.446V175.821H183.436V177.814Z" fill="#EBEBEB"/>
<path d="M188.569 174.426H192.579V172.427H188.569V174.426Z" fill="#EBEBEB"/>
<path d="M183.436 174.426H187.446V172.427H183.436V174.426Z" fill="#EBEBEB"/>
<path d="M188.569 171.037H192.579V169.043H188.569V171.037Z" fill="#EBEBEB"/>
<path d="M183.436 171.037H187.446V169.043H183.436V171.037Z" fill="#EBEBEB"/>
<path d="M188.569 167.648H192.579V165.655H188.569V167.648Z" fill="#EBEBEB"/>
<path d="M183.436 167.648H187.446V165.655H183.436V167.648Z" fill="#EBEBEB"/>
<path d="M188.569 164.26H192.579V162.266H188.569V164.26Z" fill="#EBEBEB"/>
<path d="M183.436 164.26H187.446V162.266H183.436V164.26Z" fill="#EBEBEB"/>
<path d="M188.569 160.871H192.579V158.877H188.569V160.871Z" fill="#EBEBEB"/>
<path d="M183.436 160.871H187.446V158.877H183.436V160.871Z" fill="#EBEBEB"/>
<path d="M188.569 157.482H192.579V155.489H188.569V157.482Z" fill="#EBEBEB"/>
<path d="M183.436 157.482H187.446V155.489H183.436V157.482Z" fill="#EBEBEB"/>
<path d="M188.569 154.094H192.579V152.1H188.569V154.094Z" fill="#EBEBEB"/>
<path d="M183.436 154.094H187.446V152.1H183.436V154.094Z" fill="#EBEBEB"/>
<path d="M188.569 150.705H192.579V148.711H188.569V150.705Z" fill="#EBEBEB"/>
<path d="M183.436 150.705H187.446V148.711H183.436V150.705Z" fill="#EBEBEB"/>
<path d="M188.569 147.316H192.579V145.323H188.569V147.316Z" fill="#EBEBEB"/>
<path d="M183.436 147.316H187.446V145.323H183.436V147.316Z" fill="#EBEBEB"/>
<path d="M188.569 143.927H192.579V141.934H188.569V143.927Z" fill="#EBEBEB"/>
<path d="M183.436 143.927H187.446V141.934H183.436V143.927Z" fill="#EBEBEB"/>
<path d="M188.569 140.539H192.579V138.545H188.569V140.539Z" fill="#EBEBEB"/>
<path d="M183.436 140.539H187.446V138.545H183.436V140.539Z" fill="#EBEBEB"/>
<path d="M188.569 137.155H192.579V135.161H188.569V137.155Z" fill="#EBEBEB"/>
<path d="M183.436 137.155H187.446V135.161H183.436V137.155Z" fill="#EBEBEB"/>
<path d="M115.528 152.399H97.208V189.187H115.528V152.399Z" fill="#C7C7C7"/>
<path d="M103.331 155.581H100.09V157.832H103.331V155.581Z" fill="#DBDBDB"/>
<path d="M103.331 160.397H100.09V162.653H103.331V160.397Z" fill="#DBDBDB"/>
<path d="M103.331 165.208H100.09V167.464H103.331V165.208Z" fill="#DBDBDB"/>
<path d="M103.331 170.024H100.09V172.28H103.331V170.024Z" fill="#DBDBDB"/>
<path d="M103.331 174.835H100.09V177.092H103.331V174.835Z" fill="#DBDBDB"/>
<path d="M103.331 179.651H100.09V181.908H103.331V179.651Z" fill="#DBDBDB"/>
<path d="M103.331 184.463H100.09V186.719H103.331V184.463Z" fill="#DBDBDB"/>
<path d="M107.996 155.581H104.754V157.832H107.996V155.581Z" fill="#DBDBDB"/>
<path d="M107.996 160.397H104.754V162.653H107.996V160.397Z" fill="#DBDBDB"/>
<path d="M107.996 165.208H104.754V167.464H107.996V165.208Z" fill="#DBDBDB"/>
<path d="M107.996 170.024H104.754V172.28H107.996V170.024Z" fill="#DBDBDB"/>
<path d="M107.996 174.835H104.754V177.092H107.996V174.835Z" fill="#DBDBDB"/>
<path d="M107.996 179.651H104.754V181.908H107.996V179.651Z" fill="#DBDBDB"/>
<path d="M107.996 184.463H104.754V186.719H107.996V184.463Z" fill="#DBDBDB"/>
<path d="M112.646 155.581H109.405V157.832H112.646V155.581Z" fill="#DBDBDB"/>
<path d="M112.646 160.397H109.405V162.653H112.646V160.397Z" fill="#DBDBDB"/>
<path d="M112.646 165.208H109.405V167.464H112.646V165.208Z" fill="#DBDBDB"/>
<path d="M112.646 170.024H109.405V172.28H112.646V170.024Z" fill="#DBDBDB"/>
<path d="M112.646 174.835H109.405V177.092H112.646V174.835Z" fill="#DBDBDB"/>
<path d="M112.646 179.651H109.405V181.908H112.646V179.651Z" fill="#DBDBDB"/>
<path d="M112.646 184.463H109.405V186.719H112.646V184.463Z" fill="#DBDBDB"/>
<path d="M115.528 148.564H103.332V152.395H115.528V148.564Z" fill="#DBDBDB"/>
<path d="M115.533 146.193H107.798V148.564H115.533V146.193Z" fill="#EBEBEB"/>
<path d="M128.383 152.399H115.528V189.187H128.383V152.399Z" fill="#A6A6A6"/>
<path d="M124.433 186.36H127.071V184.104H124.433V186.36Z" fill="#C7C7C7"/>
<path d="M124.433 181.544H127.071V179.288H124.433V181.544Z" fill="#C7C7C7"/>
<path d="M124.433 176.732H127.071V174.476H124.433V176.732Z" fill="#C7C7C7"/>
<path d="M124.433 171.917H127.071V169.66H124.433V171.917Z" fill="#C7C7C7"/>
<path d="M124.433 167.105H127.071V164.849H124.433V167.105Z" fill="#C7C7C7"/>
<path d="M124.433 162.289H127.071V160.033H124.433V162.289Z" fill="#C7C7C7"/>
<path d="M124.433 157.478H127.071V155.221H124.433V157.478Z" fill="#C7C7C7"/>
<path d="M120.634 186.36H123.272V184.104H120.634V186.36Z" fill="#C7C7C7"/>
<path d="M120.634 181.544H123.272V179.288H120.634V181.544Z" fill="#C7C7C7"/>
<path d="M120.634 176.732H123.272V174.476H120.634V176.732Z" fill="#C7C7C7"/>
<path d="M120.634 171.917H123.272V169.66H120.634V171.917Z" fill="#C7C7C7"/>
<path d="M120.634 167.105H123.272V164.849H120.634V167.105Z" fill="#C7C7C7"/>
<path d="M120.634 162.289H123.272V160.033H120.634V162.289Z" fill="#C7C7C7"/>
<path d="M120.634 157.478H123.272V155.221H120.634V157.478Z" fill="#C7C7C7"/>
<path d="M116.85 186.36H119.488V184.104H116.85V186.36Z" fill="#C7C7C7"/>
<path d="M116.85 181.544H119.488V179.288H116.85V181.544Z" fill="#C7C7C7"/>
<path d="M116.85 176.732H119.488V174.476H116.85V176.732Z" fill="#C7C7C7"/>
<path d="M116.85 171.917H119.488V169.66H116.85V171.917Z" fill="#C7C7C7"/>
<path d="M116.85 167.105H119.488V164.849H116.85V167.105Z" fill="#C7C7C7"/>
<path d="M116.85 162.289H119.488V160.033H116.85V162.289Z" fill="#C7C7C7"/>
<path d="M116.85 157.478H119.488V155.221H116.85V157.478Z" fill="#C7C7C7"/>
<path d="M126.435 148.564H115.528V152.395H126.435V148.564Z" fill="#C7C7C7"/>
<path d="M121.44 146.193H115.528V148.564H121.44V146.193Z" fill="#DBDBDB"/>
<path d="M197.179 192.106L173.012 192.216L148.84 192.258L100.5 192.336L52.1606 192.258L27.9931 192.216L3.82104 192.106L27.9931 191.991L52.1606 191.954L100.5 191.875L148.84 191.954L173.012 191.995L197.179 192.106Z" fill="#1F1F1F"/>
<path d="M197.179 189.182H3.82104V191.986H197.179V189.182Z" fill="#C7C7C7"/>
<path d="M17.3758 189.182C17.5371 189.632 17.6151 190.108 17.606 190.586C17.6151 191.057 17.537 191.525 17.3758 191.968C17.0688 191.058 17.0688 190.073 17.3758 189.164V189.182Z" fill="#1F1F1F"/>
<path d="M32.4913 189.182C32.7983 190.092 32.7983 191.077 32.4913 191.986C32.33 191.544 32.252 191.076 32.2611 190.605C32.2497 190.12 32.3278 189.638 32.4913 189.182Z" fill="#1F1F1F"/>
<path d="M47.6023 189.182C47.7636 189.632 47.8416 190.108 47.8325 190.586C47.8416 191.057 47.7636 191.525 47.6023 191.968C47.2953 191.058 47.2953 190.073 47.6023 189.164V189.182Z" fill="#1F1F1F"/>
<path d="M62.7181 189.182C63.0251 190.092 63.0251 191.077 62.7181 191.986C62.5568 191.544 62.4788 191.076 62.4879 190.605C62.4765 190.12 62.5546 189.638 62.7181 189.182Z" fill="#1F1F1F"/>
<path d="M77.8289 189.182C77.9902 189.632 78.0682 190.108 78.0591 190.586C78.0682 191.057 77.9902 191.525 77.8289 191.968C77.5219 191.058 77.5219 190.073 77.8289 189.164V189.182Z" fill="#1F1F1F"/>
<path d="M92.9447 189.182C93.2517 190.092 93.2517 191.077 92.9447 191.986C92.7834 191.544 92.7054 191.076 92.7145 190.605C92.7031 190.12 92.7811 189.638 92.9447 189.182Z" fill="#1F1F1F"/>
<path d="M108.056 189.182C108.217 189.632 108.295 190.108 108.286 190.586C108.295 191.057 108.217 191.525 108.056 191.968C107.749 191.058 107.749 190.073 108.056 189.164V189.182Z" fill="#1F1F1F"/>
<path d="M123.171 189.182C123.478 190.092 123.478 191.077 123.171 191.986C123.01 191.544 122.932 191.076 122.941 190.605C122.93 190.12 123.008 189.638 123.171 189.182Z" fill="#1F1F1F"/>
<path d="M138.282 189.182C138.444 189.632 138.522 190.108 138.512 190.586C138.522 191.057 138.444 191.525 138.282 191.968C137.975 191.058 137.975 190.073 138.282 189.164V189.182Z" fill="#1F1F1F"/>
<path d="M153.398 189.182C153.705 190.092 153.705 191.077 153.398 191.986C153.237 191.544 153.158 191.076 153.168 190.605C153.156 190.12 153.234 189.638 153.398 189.182Z" fill="#1F1F1F"/>
<path d="M168.509 189.182C168.67 189.632 168.748 190.108 168.739 190.586C168.748 191.057 168.67 191.525 168.509 191.968C168.202 191.058 168.202 190.073 168.509 189.164V189.182Z" fill="#1F1F1F"/>
<path d="M183.624 189.182C183.931 190.092 183.931 191.077 183.624 191.986C183.463 191.544 183.385 191.076 183.394 190.605C183.383 190.12 183.461 189.638 183.624 189.182Z" fill="#1F1F1F"/>
<path d="M162.311 12.7169L162.201 12.39C162.491 12.2887 162.786 12.1966 163.08 12.1045L163.182 12.4314L162.311 12.7169Z" fill="#1F1F1F"/>
<path d="M118.664 49.9326L118.59 49.5919C119.198 49.4676 119.801 49.3156 120.385 49.1314L120.478 49.4629C119.888 49.6517 119.276 49.8037 118.664 49.9326ZM122.692 48.7309L122.568 48.4086C123.134 48.1876 123.705 47.9482 124.258 47.6719L124.405 47.985C123.843 48.2566 123.268 48.5053 122.692 48.7309ZM126.463 46.8892L126.283 46.5945C126.804 46.2814 127.324 45.9407 127.83 45.5862L128.028 45.8671C127.513 46.2124 126.988 46.5531 126.463 46.8708V46.8892ZM129.884 44.449L129.663 44.1819C130.123 43.7998 130.584 43.3854 131.044 42.9572L131.279 43.2104C130.823 43.6248 130.354 44.0392 129.884 44.4306V44.449ZM132.955 41.5667L132.702 41.3273C133.116 40.8991 133.535 40.4387 133.959 39.9461L134.217 40.1763C133.793 40.6505 133.369 41.1155 132.955 41.5483V41.5667ZM135.717 38.4083L135.45 38.1873C135.842 37.7268 136.224 37.225 136.606 36.7323L136.878 36.9441C136.5 37.423 136.115 37.9049 135.722 38.3898L135.717 38.4083ZM138.287 35.084L138.01 34.8814L139.115 33.3805L139.392 33.5831L138.287 35.084ZM140.759 31.6953L140.478 31.4927L141.579 29.9826L141.855 30.1852L140.759 31.6953ZM143.241 28.2928L142.964 28.0856C143.337 27.5884 143.715 27.0911 144.097 26.5985L144.369 26.8103C143.987 27.3029 143.614 27.7956 143.241 28.2928ZM145.814 24.9916L145.547 24.7706C145.943 24.3102 146.344 23.8129 146.754 23.3433L147.012 23.5689C146.606 24.0385 146.206 24.5128 145.814 24.9916ZM148.577 21.8469L148.324 21.6121C148.761 21.1517 149.203 20.6913 149.636 20.2769L149.88 20.5255C149.443 20.9261 149.001 21.3865 148.572 21.8469H148.577ZM151.584 18.9555L151.358 18.6931C151.818 18.2787 152.32 17.8781 152.799 17.5052L153.015 17.7768C152.527 18.1636 152.067 18.5411 151.579 18.9555H151.584ZM154.885 16.414L154.691 16.1285C155.207 15.7786 155.737 15.4379 156.266 15.1248L156.446 15.4195C155.916 15.7326 155.391 16.0687 154.88 16.414H154.885ZM158.471 14.3145L158.32 14.006C158.872 13.7297 159.448 13.4673 160.018 13.2233L160.152 13.541C159.581 13.7804 159.019 14.0428 158.467 14.3145H158.471Z" fill="#1F1F1F"/>
<path d="M115.395 50.4206L115.362 50.0753C115.669 50.0477 115.976 50.0155 116.283 49.9786L116.325 50.3193L115.395 50.4206Z" fill="#1F1F1F"/>
<path d="M166.658 6.43215L163.131 12.2703L168.674 9.46171L188.357 6.41833L166.658 6.43215Z" fill="#D61842"/>
<path opacity="0.1" d="M166.658 6.43215L163.131 12.2703L168.674 9.46171L188.357 6.41833L166.658 6.43215Z" fill="black"/>
<path d="M169.006 11.05L163.131 12.2701L168.674 9.46155L169.006 11.05Z" fill="#1F1F1F"/>
<path d="M168.674 9.46171L188.357 6.41833L170.392 18.1545L168.674 9.46171Z" fill="#D61842"/>
<path d="M166.658 6.43207L159.995 0L188.357 6.41826L166.658 6.43207Z" fill="#D61842"/>
<path d="M56.9165 55.8259H50.9817V189.187H56.9165V55.8259Z" fill="#37474F"/>
<path d="M56.9213 189.182H60.1396L60.1396 55.8212H56.9213L56.9213 189.182Z" fill="#455A64"/>
<path d="M56.9166 54.1455H50.4338V55.8214H56.9166V54.1455Z" fill="#1F1F1F"/>
<path d="M56.9165 55.8259H60.6965V54.15H56.9165V55.8259Z" fill="#37474F"/>
<path d="M56.9166 52.6628H51.7415V54.15H56.9166V52.6628Z" fill="#37474F"/>
<path d="M59.5041 52.6628H56.9165V54.15H59.5041V52.6628Z" fill="#455A64"/>
<path d="M58.9931 49.3156C58.9922 49.9774 58.7951 50.6241 58.4267 51.174C58.0584 51.7238 57.5353 52.1521 56.9236 52.4048C56.3119 52.6574 55.639 52.723 54.99 52.5934C54.341 52.4637 53.745 52.1445 53.2773 51.6762C52.8097 51.2079 52.4913 50.6115 52.3626 49.9623C52.2338 49.3131 52.3003 48.6404 52.5538 48.029C52.8073 47.4176 53.2363 46.8951 53.7867 46.5275C54.337 46.1599 54.984 45.9637 55.6458 45.9637C56.0858 45.9637 56.5214 46.0505 56.9278 46.219C57.3342 46.3875 57.7035 46.6344 58.0143 46.9458C58.3252 47.2571 58.5717 47.6266 58.7396 48.0332C58.9076 48.4399 58.9937 48.8756 58.9931 49.3156Z" fill="#37474F"/>
<path d="M31.4 67.3549V81.6279H16.0173V67.4884C16.0167 66.4952 16.2118 65.5116 16.5915 64.5939C16.9712 63.6761 17.5279 62.8421 18.23 62.1396C18.9321 61.4371 19.7657 60.8798 20.6832 60.4996C21.6008 60.1194 22.5842 59.9237 23.5774 59.9237H23.9688C25.9397 59.9237 27.8298 60.7066 29.2234 62.1002C30.6171 63.4939 31.4 65.384 31.4 67.3549Z" fill="#D61842"/>
<path d="M55.6457 66.1946V81.6417H31.3999V67.3687C31.4018 66.3917 31.2109 65.4239 30.8382 64.5207C30.4656 63.6175 29.9185 62.7966 29.2283 62.1051C28.5381 61.4136 27.7182 60.865 26.8157 60.4907C25.9132 60.1164 24.9458 59.9237 23.9688 59.9237H49.3932C51.0531 59.9286 52.6434 60.5914 53.8155 61.7669C54.9875 62.9424 55.6457 64.5347 55.6457 66.1946Z" fill="#D61842"/>
<path opacity="0.1" d="M55.6457 66.1946V81.6417H31.3999V67.3687C31.4018 66.3917 31.2109 65.4239 30.8382 64.5207C30.4656 63.6175 29.9185 62.7966 29.2283 62.1051C28.5381 61.4136 27.7182 60.865 26.8157 60.4907C25.9132 60.1164 24.9458 59.9237 23.9688 59.9237H49.3932C51.0531 59.9286 52.6434 60.5914 53.8155 61.7669C54.9875 62.9424 55.6457 64.5347 55.6457 66.1946Z" fill="#020100"/>
<path opacity="0.1" d="M35.6084 67.0786V81.6417H34.6185V67.3687C34.6203 66.3921 34.4296 65.4246 34.0572 64.5217C33.6849 63.6188 33.1382 62.7982 32.4484 62.1068C31.7587 61.4153 30.9394 60.8666 30.0375 60.492C29.1355 60.1174 28.1685 59.9243 27.1919 59.9237H28.4534C30.3511 59.9237 32.1709 60.6775 33.5127 62.0193C34.8546 63.3611 35.6084 65.181 35.6084 67.0786Z" fill="#020100"/>
<path opacity="0.1" d="M53.3945 67.0786V81.6417H52.4046V67.3687C52.4046 65.3986 51.6223 63.5092 50.2297 62.1157C48.8371 60.7222 46.9481 59.9387 44.978 59.9375H46.2396C48.1348 59.9375 49.9526 60.6894 51.294 62.0282C52.6354 63.3671 53.3909 65.1834 53.3945 67.0786Z" fill="#020100"/>
<g opacity="0.1">
<path d="M40.9906 77.811V75.5089L40.1572 77.1849H39.6968L38.8634 75.5089V77.811H37.9702V73.9619H38.9371L39.9362 75.9693L40.9353 73.9619H41.8976V77.811H40.9906Z" fill="#020100"/>
<path d="M43.6611 73.9619H44.4668L45.848 77.811H44.9272L44.6279 76.9454H43.4308L43.1362 77.811H42.2153L43.6611 73.9619ZM44.5128 76.3331L44.0524 74.9518L43.592 76.3331H44.5128Z" fill="#020100"/>
<path d="M46.2485 77.811V73.9619H47.1372V77.811H46.2485Z" fill="#020100"/>
<path d="M47.8738 77.811V73.9619H48.7624V77.0283H50.6271V77.811H47.8738Z" fill="#020100"/>
</g>
<path opacity="0.3" d="M30.6127 67.7047V80.532H16.8V67.8244C16.8 66.931 16.9763 66.0464 17.3188 65.2213C17.6612 64.3961 18.1631 63.6467 18.7957 63.0158C19.4282 62.3849 20.1791 61.8851 21.0051 61.5449C21.8312 61.2047 22.7163 61.0308 23.6097 61.0332H23.9596C25.7258 61.0381 27.418 61.7431 28.6651 62.9938C29.9123 64.2444 30.6127 65.9385 30.6127 67.7047Z" fill="#020100"/>
<path d="M14.3092 83.0829L16.0174 81.6556H31.4L29.853 82.9494C24.8759 87.1254 18.0663 90.5141 13.8902 90.5141H12.8865C8.78418 90.5003 8.19023 87.793 14.3092 83.0829Z" fill="#37474F"/>
<path d="M31.3954 81.6417L29.853 82.9355C24.8759 87.1115 18.0663 90.5002 13.8903 90.5002H12.7991C8.77499 90.4588 8.23169 87.7377 14.3092 83.069L16.0128 81.6417H31.3954Z" fill="#37474F"/>
<path d="M30.2582 81.6417L28.7158 82.9355C23.7571 87.0793 16.9797 90.4726 12.7991 90.5002C8.77499 90.4588 8.23169 87.7377 14.3092 83.069L16.0128 81.6417H30.2582Z" fill="#455A64"/>
<path d="M53.2653 87.9771V91.9045L45.1021 81.6417H48.2283L53.2653 87.9771Z" fill="#455A64"/>
<path d="M53.2655 91.9045H52.1144L43.9512 81.6417H45.1068L53.2655 91.9045Z" fill="#37474F"/>
<path d="M40.6453 53.2798V56.9171H37.3165V70.5778C37.3165 70.8831 37.1952 71.1758 36.9794 71.3917C36.7635 71.6076 36.4707 71.7288 36.1655 71.7288C35.8602 71.7288 35.5674 71.6076 35.3515 71.3917C35.1357 71.1758 35.0144 70.8831 35.0144 70.5778V52.3682L37.3165 52.7411L40.6453 53.2798Z" fill="#455A64"/>
<path d="M40.6453 53.2798V56.9171H37.3164V70.5778C37.3154 70.8424 37.2233 71.0985 37.0556 71.3031C36.8879 71.5077 36.6548 71.6483 36.3956 71.7012C36.3171 71.7198 36.2368 71.729 36.1562 71.7288C36.0919 71.7361 36.0271 71.7361 35.9628 71.7288C35.7268 71.6926 35.5089 71.5812 35.3412 71.4112C35.1263 71.1943 35.0056 70.9015 35.0051 70.5962V52.3682L37.3072 52.7411L40.6453 53.2798Z" fill="#455A64"/>
<path d="M36.1516 71.7288H35.2538C35.0022 71.7317 34.7591 71.6377 34.5748 71.4663C34.3906 71.2949 34.2793 71.0592 34.2639 70.808V52.3682H35.0006V70.5778C35.001 70.8831 35.1218 71.1759 35.3367 71.3927C35.5628 71.5932 35.8499 71.7116 36.1516 71.7288Z" fill="#37474F"/>
<path d="M30.6128 67.7048V76.7244L28.3107 75.7622L26.9663 75.1958L26.3724 74.9472L25.9856 74.7815L25.5758 74.6111L25.4515 74.5605L25.2904 74.4914L21.9109 73.0641L22.6245 71.3651L22.7627 71.0428L23.375 69.5971L23.619 69.0078L23.7203 68.7776L24.1439 67.7646L24.6044 66.6228L26.446 62.2212L28.8586 63.2387C29.5727 64.0255 30.0861 64.9733 30.355 66.0012C30.5143 66.5555 30.6009 67.1282 30.6128 67.7048Z" fill="#EBEBEB"/>
<path d="M30.6128 70.0529V71.0566L30.5575 70.9415V70.8908L30.5161 70.8034C30.499 70.7752 30.4836 70.746 30.47 70.7159L29.9221 69.5879C29.9221 69.5418 29.8761 69.4958 29.8531 69.4451L29.3696 68.4322C29.2683 68.2296 29.1717 68.027 29.075 67.8198L29.0473 67.7554L28.3153 66.213C28.1357 65.8216 27.9515 65.4303 27.772 65.0343C27.3484 64.1135 26.911 63.165 26.5012 62.2119C26.9985 63.0913 27.4635 63.9845 27.9469 64.8731C28.1772 65.3336 28.4074 65.7433 28.6376 66.1807L29.365 67.562L29.4617 67.7508L29.7702 68.3493L30.1477 69.0906C30.1477 69.1274 30.1892 69.1643 30.2076 69.2011L30.6128 70.0529Z" fill="#DBDBDB"/>
<path d="M30.6127 70.8818V70.9232H30.5575L30.4193 70.9646C29.8346 71.1442 29.2499 71.3053 28.6605 71.4573L28.4672 71.5033L28.039 71.6092H27.9883L27.4819 71.7289L26.492 71.9499C25.7921 72.0973 25.1107 72.2354 24.3878 72.3551H24.305L23.8768 72.4242C23.2828 72.5255 22.6889 72.6083 22.0903 72.6728C22.606 72.5024 23.1217 72.3551 23.6419 72.2124L24.1024 72.0927L24.2451 72.0512C24.9634 71.867 25.6908 71.7059 26.4137 71.5448L27.0629 71.4066C27.2562 71.3744 27.445 71.333 27.6384 71.2961C27.8318 71.2593 28.0988 71.204 28.3382 71.1672L28.6053 71.1212L28.7526 71.0935C29.2867 71.0015 29.8254 70.9186 30.3733 70.8541H30.539L30.6127 70.8818Z" fill="#DBDBDB"/>
<path d="M30.6173 68.5979H18.7017V80.3663H30.6173V68.5979Z" fill="white"/>
<path d="M30.6127 74.031V74.6065L30.5022 74.7032L30.2904 74.892C30.2647 74.9122 30.2401 74.9337 30.2167 74.9564L30.1523 75.0163L30.1062 75.0577L28.3244 76.6047L28.0804 76.8119L27.9745 76.8994L27.8686 76.8119L26.9754 76.0338L26.515 75.6517C26.4229 75.5688 26.3262 75.4905 26.2341 75.4031C26.2096 75.3885 26.1877 75.3698 26.1696 75.3478L25.8473 75.0716L25.8059 75.0347L25.7322 74.9703L25.6586 74.9104C25.0447 74.3917 24.4492 73.8668 23.8721 73.3358L23.6327 73.124L23.2506 72.7833L22.6152 72.2169C22.1548 71.821 21.7266 71.4204 21.2892 71.0152L21.1326 70.8771L20.9623 70.7252C20.2072 70.0207 19.4429 69.3439 18.697 68.6165C19.4935 69.2288 20.2763 69.878 21.0636 70.5042C21.1234 70.5548 21.1879 70.6009 21.2478 70.6561L21.4457 70.8173L22.7533 71.89L23.4163 72.4379L24.0931 73.0043L24.3832 73.2483C24.9296 73.7056 25.4744 74.1661 26.0177 74.6295L26.1374 74.7308L26.4551 75.0025L26.5978 75.1222L26.8649 75.3524L27.9653 76.2732C28.6099 75.7207 29.2591 75.1636 29.9083 74.6157L30.1016 74.45C30.2259 74.3441 30.3457 74.2382 30.4746 74.1369L30.6127 74.031Z" fill="#DBDBDB"/>
<path d="M26.0546 74.8782L25.76 75.1268C25.2995 75.5182 24.8391 75.8957 24.3327 76.2594C23.7433 76.7199 23.1402 77.1434 22.5324 77.5716C21.9247 77.9998 21.3077 78.4096 20.6907 78.8102C20.0738 79.2107 19.4292 79.6067 18.7754 79.9658C19.3371 79.4732 19.9264 79.0127 20.5158 78.5615C21.1051 78.1103 21.7129 77.6775 22.316 77.2493C22.9192 76.8212 23.5453 76.4068 24.1577 76.0062C24.655 75.6885 25.1614 75.3708 25.6817 75.0854L26.0454 74.8828L26.0546 74.8782Z" fill="#DBDBDB"/>
<path d="M30.6127 75.2879V75.4813L30.2168 75.1498L30.1063 75.0577L29.9221 74.9011H29.9543L30.1754 75.0254L30.3135 75.1083L30.6127 75.2879Z" fill="#DBDBDB"/>
<path d="M72.8244 139.715C72.8244 139.715 58.229 152.086 58.2152 152.091C55.4113 154.443 52.9941 156.557 51.8476 157.763C51.5505 158.014 51.3143 158.329 51.157 158.684C51.157 158.684 51.157 158.707 51.157 158.716C51.2905 160.024 69.4265 182.98 70.3289 183.579C71.2313 184.177 72.9763 181.645 72.9809 180.19C72.9855 178.735 69.9744 166.838 69.9744 166.838L84.4454 154.333L72.8244 139.715Z" fill="#EB9481"/>
<path d="M61.2126 149.545C61.2126 149.545 58.229 152.077 58.2152 152.081C55.4113 154.434 52.9941 156.548 51.8476 157.754C51.5818 158.032 51.35 158.342 51.157 158.675C51.157 158.675 51.157 158.698 51.157 158.707C51.2905 160.015 69.4265 182.971 70.3289 183.57C71.2313 184.168 72.9763 181.636 72.9809 180.181C72.9855 178.726 69.9744 166.829 69.9744 166.829L73.05 164.292L61.2126 149.545Z" fill="#EBEBEB"/>
<path d="M70.3058 183.588C69.3849 183.003 51.2674 160.047 51.1339 158.725C51.074 158.223 54.2647 155.387 58.2152 152.072L58.3441 151.966L70.2045 166.644L69.9513 166.838C69.9513 166.838 72.9624 178.73 72.9578 180.19C72.9532 181.649 71.2036 184.182 70.3058 183.588Z" fill="#D61842"/>
<path d="M70.987 182.626C68.0265 178.684 55.7103 163.053 52.4828 159.379C52.4551 159.351 52.4321 159.379 52.4597 159.379C55.3097 163.352 67.7503 178.882 70.9272 182.658C70.9917 182.755 71.0331 182.708 70.987 182.626Z" fill="#1F1F1F"/>
<path d="M70.8905 168.132C69.9696 166.387 68.2661 164.706 66.2632 164.402C66.185 164.402 66.1665 164.499 66.2218 164.536C67.8411 165.621 69.3399 166.876 70.6925 168.279C70.7134 168.301 70.7417 168.315 70.7719 168.317C70.8022 168.32 70.8323 168.311 70.8567 168.293C70.881 168.275 70.8979 168.249 70.9041 168.219C70.9103 168.189 70.9055 168.158 70.8905 168.132Z" fill="#1F1F1F"/>
<path d="M71.0932 169.752C70.1723 168.007 68.4688 166.331 66.489 166.023C66.4107 166.023 66.3969 166.12 66.4522 166.156C68.0701 167.241 69.5673 168.496 70.9182 169.9C70.94 169.911 70.9645 169.915 70.9887 169.912C71.0129 169.909 71.0358 169.9 71.0544 169.884C71.073 169.868 71.0867 169.847 71.0936 169.824C71.1005 169.801 71.1003 169.776 71.0932 169.752Z" fill="#1F1F1F"/>
<path d="M71.3003 171.378C70.3795 169.628 68.6759 167.952 66.6731 167.644C66.5948 167.644 66.581 167.745 66.6362 167.782C68.2541 168.865 69.7513 170.118 71.1023 171.52C71.1233 171.54 71.1506 171.552 71.1794 171.554C71.2082 171.556 71.2367 171.547 71.2601 171.531C71.2836 171.514 71.3004 171.489 71.3077 171.461C71.315 171.433 71.3124 171.404 71.3003 171.378Z" fill="#1F1F1F"/>
<path d="M80.5364 125.188C79.6155 130.419 58.4915 151.695 58.4915 151.695L73.9524 168.73C73.9524 168.73 103.88 137.422 102.038 125.948C100.413 115.975 84.496 76.0938 84.496 76.0938L67.2164 76.4989C67.2164 76.4989 81.4526 120.045 80.5364 125.188Z" fill="#37474F"/>
<path d="M75.5683 164.55C73.5103 162.105 74.1364 162.777 72.0507 160.355C71.0286 159.172 64.3157 151.395 63.1692 150.456C63.1416 150.456 63.1002 150.456 63.1186 150.502C63.9013 151.759 70.7523 159.416 71.7929 160.581C73.9246 162.961 73.3399 162.257 75.4763 164.61C75.4802 164.616 75.4853 164.621 75.4912 164.625C75.4972 164.629 75.5039 164.632 75.5109 164.633C75.518 164.635 75.5252 164.635 75.5323 164.634C75.5394 164.632 75.5462 164.63 75.5522 164.626C75.5583 164.622 75.5635 164.617 75.5676 164.611C75.5717 164.605 75.5745 164.598 75.576 164.591C75.5775 164.584 75.5776 164.577 75.5763 164.57C75.575 164.562 75.5723 164.556 75.5683 164.55Z" fill="#1F1F1F"/>
<path d="M83.4647 123.406C83.1885 122.113 82.8754 120.824 82.5715 119.539C81.9576 116.911 81.3023 114.29 80.6055 111.675C79.2365 106.491 77.7617 101.339 76.1809 96.2186C74.5878 91.085 72.9119 85.9559 71.0011 80.9281C70.7617 80.3065 70.5177 79.6896 70.2783 79.0864C70.2746 79.076 70.267 79.0675 70.2571 79.0628C70.2471 79.058 70.2357 79.0574 70.2253 79.0611C70.215 79.0647 70.2065 79.0724 70.2017 79.0823C70.197 79.0922 70.1964 79.1037 70.2 79.114C71.8713 84.1556 73.5933 89.1834 75.168 94.2573C76.7426 99.3311 78.1975 104.387 79.5834 109.502C80.2786 112.066 80.9278 114.64 81.5678 117.218C81.8747 118.486 82.1817 119.755 82.4886 121.026C82.8563 122.312 83.1287 123.623 83.3036 124.949C83.3799 126.208 83.0577 127.46 82.3827 128.526C81.7612 129.599 81.0015 130.617 80.3108 131.63C78.8789 133.669 65.1814 149.669 64.7394 150.102C64.7026 150.138 64.7394 150.189 64.7947 150.152C66.6364 148.417 78.2758 135.221 79.7445 133.186C80.4674 132.182 81.1764 131.16 81.8717 130.133C82.5663 129.197 83.1201 128.164 83.5154 127.067C83.8175 125.863 83.8 124.601 83.4647 123.406Z" fill="#1F1F1F"/>
<path d="M80.9417 76.1764L80.2925 122.002C78.3495 110.565 67.2166 76.4987 67.2166 76.4987L80.9417 76.1764Z" fill="#1F1F1F"/>
<path d="M76.0703 161.092C76.0703 161.092 80.2141 179.168 80.2141 179.177C80.3476 182.86 80.5318 186.037 80.785 187.686C80.7829 187.695 80.7829 187.704 80.785 187.713C80.8003 188.105 80.9059 188.488 81.0935 188.832L81.1165 188.855C82.2307 189.555 111.504 189.315 112.503 188.975C113.502 188.634 112.6 185.692 111.458 184.799C110.316 183.906 99.0729 178.979 99.0729 178.979L94.7358 160.917L76.0703 161.092Z" fill="#EB9481"/>
<path d="M112.517 188.979C111.5 189.334 82.2445 189.564 81.1302 188.864L81.1072 188.841C80.9166 188.498 80.8108 188.115 80.7987 187.723C80.7967 187.718 80.7956 187.713 80.7956 187.709C80.7956 187.704 80.7967 187.699 80.7987 187.695C80.5501 186.047 80.3705 182.847 80.2324 179.191L79.5142 176.042L98.2809 175.604L99.0912 178.984C99.0912 178.984 110.33 183.91 111.481 184.808C112.632 185.706 113.539 188.625 112.517 188.979Z" fill="#EBEBEB"/>
<path d="M112.517 188.98C111.5 189.329 82.2491 189.56 81.1303 188.86C80.6975 188.602 80.4167 184.343 80.2095 179.191C80.2095 179.14 80.2095 179.085 80.2095 179.03L99.0867 178.675V178.993C99.0867 178.993 110.321 183.915 111.472 184.813C112.623 185.711 113.535 188.625 112.517 188.98Z" fill="#D61842"/>
<path d="M112.176 187.842C107.245 187.759 87.3459 187.893 82.4654 188.183C82.424 188.183 82.424 188.215 82.4654 188.215C87.3505 188.404 107.25 188.109 112.176 187.925C112.282 187.921 112.282 187.842 112.176 187.842Z" fill="#1F1F1F"/>
<path d="M100.671 179.025C98.7277 178.675 96.3565 178.993 94.8878 180.406C94.8279 180.462 94.8878 180.54 94.9707 180.522C96.819 179.906 98.7286 179.492 100.666 179.288C100.683 179.288 100.7 179.285 100.716 179.279C100.732 179.272 100.747 179.263 100.76 179.251C100.772 179.239 100.782 179.225 100.789 179.209C100.796 179.193 100.799 179.176 100.8 179.159C100.8 179.142 100.797 179.124 100.79 179.108C100.784 179.092 100.775 179.078 100.763 179.065C100.751 179.053 100.736 179.043 100.721 179.036C100.705 179.029 100.688 179.026 100.671 179.025Z" fill="#1F1F1F"/>
<path d="M102.079 179.859C100.136 179.509 97.7651 179.826 96.2918 181.24C96.2365 181.295 96.2918 181.373 96.3746 181.355C98.2247 180.74 100.136 180.326 102.075 180.121C102.092 180.121 102.109 180.118 102.125 180.112C102.141 180.106 102.156 180.096 102.168 180.084C102.181 180.072 102.19 180.058 102.197 180.042C102.204 180.026 102.208 180.009 102.208 179.992C102.208 179.975 102.205 179.958 102.199 179.942C102.193 179.926 102.183 179.911 102.171 179.899C102.159 179.886 102.145 179.876 102.129 179.869C102.113 179.863 102.096 179.859 102.079 179.859Z" fill="#1F1F1F"/>
<path d="M103.484 180.692C101.541 180.342 99.1695 180.66 97.7008 182.073C97.6409 182.128 97.7008 182.207 97.7836 182.188C99.6321 181.573 101.542 181.159 103.479 180.954C103.514 180.955 103.547 180.942 103.573 180.918C103.598 180.893 103.612 180.86 103.613 180.825C103.613 180.791 103.6 180.757 103.576 180.732C103.552 180.707 103.518 180.693 103.484 180.692Z" fill="#1F1F1F"/>
<path d="M82.8246 76.1258C82.8246 76.4896 81.4203 91.3197 80.9507 91.7387C80.481 92.1577 77.4239 94.3032 76.5168 94.888C76.5168 94.888 85.4029 120.497 87.7971 129.047C91.2733 141.446 99.7681 178.684 99.7681 178.684L79.4405 179.145C79.4405 179.145 72.4283 143.67 69.4494 131.86C66.8986 121.73 57.3127 91.4026 57.3127 91.4026C56.0334 86.5668 56.1628 81.4661 57.6856 76.7014C57.6856 76.7014 82.8292 76.112 82.8246 76.1258Z" fill="#37474F"/>
<path d="M98.9485 174.748C95.7531 174.803 96.6694 174.748 93.4741 174.835C91.9132 174.881 81.6413 175.19 80.1909 175.489C80.1587 175.489 80.1633 175.549 80.1909 175.554C81.6597 175.738 91.9224 175.25 93.4833 175.176C96.674 175.02 95.7577 175.029 98.9485 174.84C98.9607 174.84 98.9724 174.835 98.981 174.827C98.9897 174.818 98.9945 174.806 98.9945 174.794C98.9945 174.782 98.9897 174.77 98.981 174.761C98.9724 174.753 98.9607 174.748 98.9485 174.748Z" fill="#1F1F1F"/>
<path d="M81.8348 90.9697C79.8833 92.1014 78.0346 93.4017 76.3098 94.8557C76.3022 94.8608 76.2957 94.8674 76.2907 94.875C76.2857 94.8827 76.2822 94.8912 76.2805 94.9002C76.2788 94.9092 76.2789 94.9184 76.2807 94.9274C76.2826 94.9363 76.2862 94.9448 76.2913 94.9524C76.2965 94.9599 76.3031 94.9664 76.3107 94.9714C76.3183 94.9764 76.3269 94.9799 76.3359 94.9816C76.3448 94.9833 76.3541 94.9832 76.363 94.9814C76.372 94.9795 76.3805 94.9759 76.388 94.9708C78.2573 93.7323 80.1773 92.5306 81.9821 91.1953C82.004 91.1728 82.0175 91.1436 82.0205 91.1124C82.0235 91.0812 82.0158 91.0499 81.9986 91.0237C81.9815 90.9974 81.9559 90.9778 81.9262 90.968C81.8964 90.9582 81.8642 90.9588 81.8348 90.9697Z" fill="#1F1F1F"/>
<path d="M79.9517 76.9638C79.9517 76.8947 79.809 76.904 79.8228 76.9638C80.2311 79.2328 80.5246 81.5209 80.7022 83.8195C80.7943 84.8784 80.9877 90.804 79.1046 90.7258C78.7869 90.7258 78.5797 90.4403 78.4462 89.9937C78.3478 89.3943 78.3231 88.7851 78.3725 88.1797C78.3725 86.9319 78.2988 85.6934 78.1837 84.4502C77.989 82.1384 77.5538 79.8531 76.8853 77.6314C76.88 77.6181 76.87 77.6072 76.8573 77.6007C76.8445 77.5941 76.8298 77.5924 76.8159 77.5957C76.802 77.599 76.7897 77.6073 76.7813 77.6189C76.7729 77.6305 76.769 77.6448 76.7702 77.659C77.3901 80.8026 77.7702 83.9886 77.9075 87.1897C77.9535 88.7322 77.599 91.1309 79.2151 91.0803C80.8311 91.0296 81.2133 87.0562 81.2225 85.9834C81.1931 82.9344 80.7659 79.9023 79.9517 76.9638Z" fill="#1F1F1F"/>
<path d="M79.1734 90.8546C79.0839 91.274 79.0193 91.6984 78.98 92.1254C78.9155 92.4615 78.9155 92.8068 78.98 93.1429C78.98 93.2028 79.0813 93.1936 79.109 93.1429C79.2455 92.8143 79.3295 92.4663 79.3576 92.1116C79.4313 91.7156 79.5095 91.3243 79.5694 90.9283C79.5669 90.8819 79.5489 90.8377 79.5182 90.8027C79.4876 90.7678 79.4461 90.7442 79.4004 90.7357C79.3547 90.7272 79.3075 90.7343 79.2663 90.7559C79.2251 90.7774 79.1924 90.8122 79.1734 90.8546Z" fill="#1F1F1F"/>
<path d="M76.7333 164.062C76.6688 163.601 76.5952 163.141 76.5169 162.657C76.3696 161.759 76.1946 160.866 76.0565 159.968C75.7342 158.168 75.3843 156.373 75.0205 154.581C74.2977 151.009 73.4781 147.445 72.6217 143.904C72.1337 141.902 71.5766 139.922 70.9919 137.946C70.9504 137.808 70.757 137.882 70.7847 138.016C71.153 139.825 71.5121 141.639 71.9265 143.444C72.3409 145.249 72.7507 147.04 73.1558 148.84C73.9478 152.399 74.6936 155.972 75.481 159.531C75.7066 160.535 75.9092 161.543 76.1302 162.547C76.2407 163.05 76.3558 163.552 76.4755 164.052C76.5952 164.55 76.7609 165.038 76.8576 165.539C76.8576 165.586 76.9359 165.563 76.9267 165.539C76.8208 165.038 76.8024 164.545 76.7333 164.062Z" fill="#1F1F1F"/>
<path d="M90.1176 136.726C89.3625 133.37 88.3726 130.064 87.3781 126.772C85.3753 120.147 83.0455 113.623 80.725 107.103L78.7176 101.467C78.3815 100.547 76.7286 95.4589 76.5306 94.9801C76.5269 94.9697 76.5193 94.9612 76.5094 94.9565C76.4994 94.9517 76.488 94.9511 76.4776 94.9548C76.4673 94.9584 76.4588 94.9661 76.454 94.976C76.4493 94.9859 76.4487 94.9973 76.4523 95.0077C76.9127 96.7343 77.5942 99.2528 78.1375 100.966C78.6807 102.678 79.2655 104.327 79.8364 106.03C80.9506 109.331 82.0833 112.628 83.1698 115.943C85.3154 122.49 87.4472 129.037 89.2244 135.7C89.717 137.564 90.2143 139.429 90.6701 141.308C91.1259 143.186 91.5265 145.065 91.9639 146.943C91.9639 146.994 92.0606 146.975 92.056 146.943C91.5814 143.507 90.9344 140.097 90.1176 136.726Z" fill="#1F1F1F"/>
<path d="M77.8934 154.664C76.6273 148.255 75.1309 141.888 73.501 135.566C71.8711 129.245 70.0525 122.895 68.0727 116.638C66.0929 110.381 63.9289 104.184 61.5992 98.0419C60.4362 95.1546 59.4446 92.2013 58.6294 89.1972C57.8928 86.2045 57.4738 82.9631 58.1046 79.9151C58.2616 79.1418 58.4771 78.3814 58.7492 77.6407C58.7492 77.59 58.6893 77.5486 58.6709 77.5992C56.3688 83.3545 58.0908 89.5471 60.0844 95.0952C61.1756 98.1478 62.3312 101.177 63.4086 104.235C64.5198 107.372 65.5833 110.524 66.5993 113.692C68.6252 119.972 70.5129 126.289 72.2211 132.661C73.9292 139.033 75.4716 145.442 76.8253 151.893C78.1789 158.343 79.3898 164.867 80.5869 171.373C80.7434 172.22 80.8723 173.072 81.0013 173.924C81.0013 173.97 81.0841 173.97 81.0795 173.924C80.1633 167.492 79.1596 161.064 77.8934 154.664Z" fill="#1F1F1F"/>
<path d="M73.7959 49.7991C75.9 57.571 80.8403 69.5972 84.9565 69.4499C88.7089 69.3025 96.9274 62.4469 100.394 60.1816C103.861 57.9163 95.7901 49.4998 93.8011 50.941C90.7301 53.1694 86.1535 57.129 85.357 56.8942C84.3671 56.5995 83.0549 54.2145 77.2905 47.2254C74.9055 44.3523 72.875 46.4887 73.7959 49.7991Z" fill="#EB9481"/>
<path d="M97.4753 47.5384C99.1144 46.9122 100.947 46.065 102.789 46.0558C104.63 46.0466 106.209 48.4408 106.228 49.136C106.246 49.8313 105.648 54.2006 103.811 54.2283C101.974 54.2559 103.005 50.9132 102.927 50.5449C102.848 50.1766 102.766 49.6793 102.42 49.7254C102.075 49.7714 96.071 52.7872 96.071 52.7872L97.4753 47.5384Z" fill="#EB9481"/>
<path d="M97.595 47.787C97.7009 47.787 102.581 45.729 104.423 45.7198C106.265 45.7105 107.867 48.0909 107.867 48.7954C107.867 49.4998 107.287 53.86 105.45 53.8876C103.613 53.9152 104.644 50.5726 104.566 50.2042C104.487 49.8359 104.405 49.3341 104.059 49.3801C103.714 49.4261 97.7101 52.4465 97.7101 52.4465L97.595 47.787Z" fill="#EB9481"/>
<path d="M104.814 53.6712C104.613 53.3447 104.499 52.9722 104.483 52.5892C104.437 52.198 104.451 51.8021 104.524 51.4151C104.618 51.0818 104.684 50.7415 104.722 50.3976C104.712 50.0573 104.617 49.725 104.446 49.4307C104.299 49.1775 104.027 49.2695 103.797 49.357C103.459 49.4928 103.128 49.6465 102.807 49.8174L101.776 50.393C101.412 50.5754 101.06 50.7799 100.721 51.0053C100.714 51.0084 100.709 51.014 100.707 51.0209C100.704 51.0278 100.704 51.0354 100.707 51.0422C100.71 51.0489 100.716 51.0541 100.723 51.0567C100.73 51.0593 100.737 51.059 100.744 51.056C101.059 50.9185 101.366 50.7648 101.665 50.5955L102.706 50.0891C103.032 49.9371 103.35 49.7622 103.682 49.6287C103.797 49.578 104.027 49.4445 104.142 49.4721C104.257 49.4997 104.358 49.8451 104.395 49.9556C104.478 50.2841 104.464 50.6296 104.354 50.9501C104.264 51.2812 104.209 51.6206 104.188 51.963C104.162 52.2854 104.195 52.6099 104.285 52.9207C104.407 53.1974 104.561 53.4586 104.745 53.6988C104.782 53.7402 104.842 53.6988 104.814 53.6712Z" fill="#1F1F1F"/>
<path d="M91.8765 52.7503C91.8765 52.7503 96.8628 47.9849 97.9034 47.0411C99.9891 45.1395 108.866 41.2674 110.114 41.1062C111.361 40.9451 111.868 43.4958 105.846 46.2998C102.673 47.7731 102.162 49.624 102.231 50.6415C102.3 51.6591 103.332 53.533 105.04 53.4455C106.748 53.358 107.802 50.8349 109.372 50.5218C110.942 50.2088 109.966 53.114 108.912 54.8038C107.784 56.4348 106.216 57.7121 104.391 58.4871C102.922 59.0765 98.4052 61.1576 98.4052 61.1576L91.8765 52.7503Z" fill="#EB9481"/>
<path d="M107.139 52.1933C106.504 52.7089 105.79 53.3719 104.943 53.4226C104.096 53.4732 103.484 52.9207 103.06 52.2163C102.595 51.5245 102.414 50.6806 102.554 49.8589C102.736 49.1156 103.128 48.4399 103.682 47.9114C104.369 47.2717 105.144 46.7337 105.984 46.3137C106.021 46.3137 105.984 46.24 105.947 46.2584C105.169 46.6314 102.724 47.6904 102.305 49.8635C102.169 50.7029 102.358 51.5625 102.834 52.2669C103.23 52.9392 103.797 53.5837 104.63 53.6482C105.643 53.7081 106.495 52.8655 107.208 52.2347C107.218 52.1887 107.172 52.1656 107.139 52.1933Z" fill="#1F1F1F"/>
<path d="M91.8626 52.1012L99.7588 63.7452C99.7588 63.7452 87.8247 70.8127 84.3854 69.7997C80.9461 68.7868 75.5407 59.0996 73.211 50.545C70.8813 41.9904 76.2452 45.1581 78.3585 47.7824C80.4718 50.4068 85.0622 56.4384 85.3062 56.3509C85.5503 56.2634 91.8626 52.1012 91.8626 52.1012Z" fill="#D61842"/>
<path d="M96.3288 65.6558C95.5876 66.0518 94.7726 66.4708 93.9162 66.8898L87.033 55.2503C87.7236 54.7899 88.5247 54.2835 89.2752 53.7954C91.4438 57.4327 94.0774 61.8574 96.3288 65.6558Z" fill="#EBEBEB"/>
<path d="M92.9861 67.3411L92.1941 67.7048L85.4167 56.2726C85.5641 56.1897 85.8127 56.0331 86.135 55.8121C88.2667 59.4034 90.8037 63.6669 92.9861 67.3411Z" fill="#EBEBEB"/>
<path d="M91.3332 68.0869C88.6029 69.2748 85.9186 70.1542 84.5005 69.8319L84.3762 69.7997C80.9323 68.7868 75.5362 59.1041 73.2018 50.5449C72.8546 49.4 72.6611 48.214 72.6263 47.0181C72.6263 46.9721 72.6263 46.9352 72.6263 46.8892C72.6263 46.8431 72.6263 46.7557 72.6263 46.6866C72.624 46.659 72.624 46.6313 72.6263 46.6037C72.6213 46.5424 72.6213 46.4808 72.6263 46.4196L91.3332 68.0869Z" fill="#1F1F1F"/>
<path d="M95.4771 62.6908C95.2284 62.2764 94.9706 61.862 94.7174 61.4523C94.2063 60.6281 91.1399 55.7431 89.9382 54.2651C89.906 54.2237 89.8461 54.2651 89.8645 54.3158C90.7209 56.0285 93.8932 60.8215 94.4227 61.6134C94.6943 62.014 94.9614 62.4192 95.2376 62.8197C95.5139 63.2203 95.8362 63.5932 96.1124 63.9984C96.1401 64.0352 96.2045 63.9984 96.1815 63.9616C95.9283 63.5472 95.7257 63.1052 95.4771 62.6908Z" fill="#1F1F1F"/>
<path d="M55.9775 84.2201C56.0512 84.2984 86.508 80.6656 86.775 80.3387C87.1526 79.8783 79.3669 49.5274 76.0749 45.5218C75.3704 44.6654 73.1374 44.495 71.2543 44.7943C70.7631 44.8666 70.2793 44.9821 69.8085 45.1396H69.7625C69.3814 45.2629 69.0247 45.4514 68.7081 45.6967C63.5883 50.0753 59.6517 64.9055 58.7677 69.3531C57.2943 76.6922 55.7151 83.9392 55.9775 84.2201Z" fill="#D61842"/>
<path d="M86.1487 77.0467C78.782 77.9998 62.8008 80.0717 56.447 80.8314C56.668 79.7033 56.9351 78.3589 57.2389 76.8764L85.2463 73.3726C85.6008 74.7538 85.9093 76.0062 86.1487 77.0467Z" fill="#EBEBEB"/>
<path d="M84.8689 71.8761C77.5943 72.82 64.15 74.5558 57.5476 75.3615L57.8054 74.1L84.5697 70.7251C84.671 71.1119 84.7723 71.4986 84.8689 71.8761Z" fill="#EBEBEB"/>
<path d="M66.6362 53.6574C68.1787 61.5996 75.2185 76.3515 79.6109 77.6545C84.6985 79.1601 102.089 73.1516 105.468 70.5502C106.813 69.5189 99.3123 60.8814 97.641 61.526C90.5689 64.3161 84.2888 65.8125 83.3449 65.2093C81.9084 64.2885 75.9782 56.1713 72.1014 51.1435C67.2348 44.8265 65.941 50.0983 66.6362 53.6574Z" fill="#EB9481"/>
<path d="M105.021 70.8034C105.795 70.5041 111.071 66.4847 112.609 64.62C114.281 62.6877 115.625 60.4947 116.587 58.128C118.093 54.3802 118.779 51.6499 118.369 50.4436C117.909 49.0393 117.757 48.8137 114.188 55.0478C112.172 58.5792 110.178 59.0166 108.442 59.0212C104.169 59.0412 99.9625 60.0864 96.1768 62.0692C96.1768 62.0692 102.052 71.9406 105.021 70.8034Z" fill="#EB9481"/>
<path d="M120.924 45.7887L111.928 57.6997C111.799 57.8633 111.626 57.9869 111.43 58.0562C111.233 58.1254 111.021 58.1376 110.818 58.0911L104.303 56.0929C104.219 56.0757 104.142 56.0354 104.08 55.9766C104.017 55.9179 103.973 55.8429 103.951 55.7602C103.929 55.6774 103.93 55.5902 103.955 55.5082C103.98 55.4263 104.027 55.3529 104.091 55.2963L113.088 43.3853C113.216 43.2208 113.389 43.0966 113.586 43.0272C113.782 42.9579 113.995 42.9463 114.198 42.9939L120.713 44.9921C120.796 45.0093 120.874 45.0496 120.936 45.1084C120.998 45.1671 121.043 45.2421 121.065 45.3248C121.087 45.4076 121.085 45.4948 121.061 45.5768C121.036 45.6587 120.989 45.7321 120.924 45.7887Z" fill="#37474F"/>
<path d="M120.128 44.7943L113.613 42.7961C113.409 42.7501 113.197 42.7629 113.001 42.8331C112.804 42.9032 112.632 43.0277 112.503 43.192L103.511 55.1031C103.441 55.1586 103.389 55.2331 103.361 55.3177C103.333 55.4022 103.33 55.4932 103.352 55.5795C103.374 55.6658 103.421 55.7438 103.487 55.8039C103.553 55.864 103.635 55.9036 103.723 55.9181L110.238 57.9163C110.441 57.9616 110.653 57.949 110.849 57.8798C111.045 57.8106 111.218 57.6876 111.348 57.5249L120.34 45.6138C120.411 45.5588 120.465 45.484 120.494 45.3987C120.523 45.3134 120.527 45.2215 120.504 45.1342C120.481 45.047 120.434 44.9683 120.367 44.9078C120.3 44.8474 120.217 44.8079 120.128 44.7943ZM111.21 57.0093C111.093 57.1634 110.935 57.2815 110.754 57.3499C110.573 57.4183 110.377 57.4343 110.187 57.396L104.363 55.6096C104.036 55.5083 103.963 55.1492 104.202 54.8591L112.577 43.7676C113.037 43.1322 113.346 43.1782 113.673 43.2795L114.838 43.6386C114.907 43.6386 114.911 43.7445 114.838 43.8274L114.81 43.8643C114.658 44.0668 114.782 44.1037 114.934 44.1497L117.632 44.9785C117.704 45.0187 117.789 45.0291 117.868 45.0076C117.947 44.9861 118.015 44.9343 118.056 44.8634L118.084 44.8265C118.109 44.7867 118.144 44.7547 118.187 44.7343C118.229 44.714 118.276 44.706 118.323 44.7114L119.492 45.0706C119.815 45.1672 120.017 45.333 119.575 45.9177L111.21 57.0093Z" fill="#1F1F1F"/>
<path d="M116.845 44.4306L116.113 44.2004C116.109 44.1973 116.106 44.1935 116.104 44.1891C116.102 44.1847 116.101 44.1799 116.101 44.175C116.101 44.1702 116.102 44.1653 116.104 44.161C116.106 44.1566 116.109 44.1527 116.113 44.1497C116.122 44.1378 116.134 44.1288 116.148 44.1238C116.162 44.1189 116.177 44.1183 116.191 44.1221L116.928 44.3477C116.933 44.3506 116.937 44.3546 116.939 44.3595C116.942 44.3643 116.943 44.3698 116.943 44.3753C116.943 44.3809 116.942 44.3864 116.939 44.3912C116.937 44.396 116.933 44.4001 116.928 44.4029C116.918 44.4148 116.905 44.4237 116.89 44.4286C116.876 44.4334 116.86 44.4341 116.845 44.4306Z" fill="white"/>
<path d="M119.585 45.9177L111.209 57.0092C111.093 57.1634 110.935 57.2815 110.754 57.3499C110.573 57.4183 110.377 57.4343 110.187 57.396L104.363 55.6095C104.036 55.5082 103.962 55.1491 104.202 54.8591L112.577 43.7675C113.037 43.1322 113.346 43.1782 113.673 43.2795L114.838 43.6386C114.907 43.6386 114.911 43.7445 114.838 43.8274L114.81 43.8642C114.658 44.0668 114.782 44.1036 114.934 44.1497L117.632 44.9784C117.704 45.0186 117.788 45.0291 117.868 45.0075C117.947 44.986 118.015 44.9342 118.056 44.8633L118.084 44.8265C118.109 44.7866 118.144 44.7547 118.187 44.7343C118.229 44.7139 118.276 44.706 118.323 44.7114L119.492 45.0705C119.838 45.1672 120.027 45.3284 119.585 45.9177Z" fill="white"/>
<path d="M119.584 45.9177L118.958 46.7465L111.951 44.5963L112.577 43.7675C113.037 43.1322 113.346 43.1782 113.673 43.2795L114.838 43.6386C114.907 43.6386 114.911 43.7445 114.838 43.8274L114.81 43.8642C114.658 44.0668 114.782 44.1036 114.934 44.1497L117.632 44.9784C117.704 45.0186 117.788 45.0291 117.868 45.0075C117.947 44.986 118.014 44.9342 118.056 44.8633L118.083 44.8265C118.108 44.7866 118.144 44.7547 118.187 44.7343C118.229 44.7139 118.276 44.706 118.323 44.7114L119.488 45.0705C119.838 45.1672 120.026 45.3284 119.584 45.9177Z" fill="#D61842"/>
<path d="M112.964 44.4075L112.89 44.1727L113.226 44.0668L113.235 44.1036L112.959 44.1957L113.019 44.3891L112.964 44.4075Z" fill="white"/>
<path d="M118.944 45.9453C118.935 45.9515 118.924 45.9547 118.912 45.9547C118.901 45.9547 118.89 45.9515 118.88 45.9453C118.876 45.9428 118.873 45.9394 118.871 45.9354C118.869 45.9314 118.868 45.9269 118.868 45.9223C118.868 45.9177 118.869 45.9133 118.871 45.9092C118.873 45.9052 118.876 45.9018 118.88 45.8993C118.887 45.889 118.897 45.8808 118.908 45.8759C118.92 45.871 118.932 45.8695 118.944 45.8717C118.954 45.9039 118.963 45.9269 118.944 45.9453Z" fill="white"/>
<path d="M118.848 46.0743C118.837 46.0808 118.825 46.0843 118.813 46.0843C118.801 46.0843 118.789 46.0808 118.779 46.0743C118.775 46.0717 118.772 46.0683 118.77 46.0643C118.767 46.0603 118.766 46.0558 118.766 46.0512C118.766 46.0467 118.767 46.0422 118.77 46.0382C118.772 46.0342 118.775 46.0307 118.779 46.0282C118.785 46.0174 118.795 46.0089 118.806 46.004C118.818 45.999 118.831 45.9978 118.843 46.0006C118.853 46 118.863 46.0033 118.87 46.0098C118.877 46.0162 118.882 46.0254 118.882 46.0351C118.883 46.0449 118.88 46.0545 118.873 46.0619C118.867 46.0692 118.858 46.0737 118.848 46.0743Z" fill="white"/>
<path d="M118.751 46.2031C118.741 46.2097 118.729 46.2131 118.717 46.2131C118.704 46.2131 118.692 46.2097 118.682 46.2031C118.659 46.2031 118.654 46.1755 118.682 46.1525C118.691 46.1433 118.702 46.1364 118.714 46.1324C118.726 46.1284 118.739 46.1274 118.751 46.1294C118.761 46.1294 118.77 46.1333 118.777 46.1402C118.784 46.1471 118.788 46.1565 118.788 46.1663C118.788 46.176 118.784 46.1854 118.777 46.1923C118.77 46.1992 118.761 46.2031 118.751 46.2031Z" fill="white"/>
<path d="M114.451 43.8274H114.419C114.414 43.809 114.404 43.7923 114.39 43.7793C114.376 43.7663 114.359 43.7574 114.34 43.7537C114.295 43.7401 114.247 43.7401 114.202 43.7537H114.225H114.271H114.349H114.382V43.7813L114.451 43.8274Z" fill="white"/>
<path d="M114.216 43.8136C114.247 43.8045 114.281 43.8045 114.313 43.8136C114.331 43.8139 114.35 43.8204 114.365 43.832C114.38 43.8436 114.39 43.8598 114.395 43.878H114.368C114.363 43.8667 114.355 43.8567 114.345 43.8487C114.336 43.8407 114.325 43.835 114.313 43.832C114.284 43.8133 114.249 43.8067 114.216 43.8136Z" fill="white"/>
<path d="M114.313 43.8689H114.285C114.283 43.8624 114.28 43.8565 114.275 43.8516C114.27 43.8468 114.264 43.8433 114.257 43.8413C114.241 43.837 114.223 43.837 114.207 43.8413C114.271 43.8137 114.313 43.8275 114.313 43.8689Z" fill="white"/>
<path d="M114.271 43.8827C114.271 43.8827 114.271 43.8827 114.244 43.8827C114.216 43.8827 114.244 43.8827 114.244 43.8827H114.267C114.267 43.8827 114.276 43.8781 114.271 43.8827Z" fill="white"/>
<path d="M113.327 43.5189C113.335 43.5084 113.344 43.5 113.356 43.4943C113.367 43.4887 113.379 43.4861 113.392 43.4867C113.397 43.4895 113.401 43.4936 113.403 43.4984C113.406 43.5033 113.408 43.5087 113.408 43.5143C113.408 43.5198 113.406 43.5253 113.403 43.5301C113.401 43.535 113.397 43.539 113.392 43.5419C113.383 43.5538 113.371 43.5629 113.357 43.5678C113.343 43.5727 113.328 43.5733 113.314 43.5695C113.31 43.5656 113.308 43.5609 113.307 43.5558C113.306 43.5508 113.306 43.5456 113.308 43.5406C113.309 43.5357 113.311 43.5311 113.315 43.5273C113.318 43.5236 113.323 43.5207 113.327 43.5189Z" fill="white"/>
<path d="M113.475 43.565C113.484 43.5531 113.496 43.544 113.51 43.5391C113.524 43.5342 113.539 43.5336 113.553 43.5374C113.558 43.5402 113.562 43.5443 113.565 43.5491C113.567 43.554 113.569 43.5594 113.569 43.565C113.569 43.5706 113.567 43.576 113.565 43.5809C113.562 43.5857 113.558 43.5898 113.553 43.5926C113.544 43.6037 113.531 43.6121 113.518 43.6169C113.504 43.6218 113.489 43.6229 113.475 43.6202C113.47 43.6174 113.466 43.6133 113.463 43.6085C113.461 43.6037 113.459 43.5982 113.459 43.5926C113.459 43.5871 113.461 43.5816 113.463 43.5768C113.466 43.5719 113.47 43.5679 113.475 43.565Z" fill="white"/>
<path d="M113.622 43.6064C113.63 43.5951 113.642 43.5868 113.655 43.5826C113.668 43.5785 113.683 43.5788 113.696 43.5834C113.723 43.5834 113.728 43.6156 113.696 43.6386C113.684 43.646 113.67 43.6499 113.657 43.6499C113.643 43.6499 113.629 43.646 113.617 43.6386C113.608 43.657 113.604 43.6294 113.622 43.6064Z" fill="white"/>
<path d="M113.765 43.6523C113.775 43.6416 113.787 43.6335 113.801 43.6286C113.814 43.6238 113.829 43.6225 113.843 43.6247C113.848 43.6276 113.852 43.6316 113.855 43.6365C113.857 43.6413 113.859 43.6468 113.859 43.6523C113.859 43.6579 113.857 43.6634 113.855 43.6682C113.852 43.673 113.848 43.6771 113.843 43.68C113.834 43.6914 113.822 43.7001 113.808 43.705C113.794 43.7099 113.779 43.7108 113.765 43.7076C113.76 43.7047 113.756 43.7007 113.753 43.6958C113.751 43.691 113.749 43.6855 113.749 43.68C113.749 43.6744 113.751 43.6689 113.753 43.6641C113.756 43.6592 113.76 43.6552 113.765 43.6523Z" fill="white"/>
<path d="M113.912 43.6985C113.921 43.6866 113.933 43.6776 113.947 43.6727C113.961 43.6677 113.976 43.6671 113.99 43.6709C114.018 43.6709 114.023 43.7031 113.99 43.7262C113.982 43.7381 113.969 43.7471 113.955 43.7521C113.942 43.757 113.926 43.7576 113.912 43.7538C113.907 43.7509 113.903 43.7469 113.901 43.742C113.898 43.7372 113.896 43.7317 113.896 43.7262C113.896 43.7206 113.898 43.7151 113.901 43.7103C113.903 43.7055 113.907 43.7014 113.912 43.6985Z" fill="white"/>
<path d="M119.327 45.5816L118.733 45.3974L118.986 45.0659L119.58 45.2455L119.327 45.5816Z" fill="white"/>
<path d="M119.281 45.2961L119.037 45.2224L118.958 45.3237L119.202 45.402L119.281 45.2961Z" fill="white"/>
<path d="M119.345 45.4296L119.313 45.4204L119.377 45.3375L119.41 45.3467L119.345 45.4296Z" fill="white"/>
<path d="M105.348 55.0756L105.298 55.0571L105.132 55.2781L105.031 55.2459L105.114 55.1354L104.939 55.0802L104.856 55.1907L104.754 55.163L104.92 54.942L104.865 54.9282L105.275 54.7809L105.348 55.0756Z" fill="#EBEBEB"/>
<path d="M110.823 56.5719L110.238 56.3923L110.293 56.3232L110.878 56.4982L110.823 56.5719Z" fill="#EBEBEB"/>
<path d="M110.685 56.756L110.104 56.5765L110.16 56.5028L110.74 56.6824L110.685 56.756Z" fill="#EBEBEB"/>
<path d="M110.546 56.9401L109.966 56.7606L110.022 56.6869L110.602 56.8665L110.546 56.9401Z" fill="#EBEBEB"/>
<path d="M107.977 55.8443L107.692 55.9502L107.646 55.743L107.692 55.7246L107.733 55.8996L107.963 55.8075L107.977 55.8443Z" fill="#EBEBEB"/>
<path d="M107.687 56.3369C107.631 56.3462 107.573 56.3462 107.517 56.3369C107.45 56.3163 107.389 56.2807 107.338 56.2328C107.287 56.185 107.247 56.1261 107.222 56.0607C107.202 55.989 107.199 55.9134 107.214 55.8404C107.23 55.7674 107.262 55.6992 107.31 55.6417C107.393 55.5363 107.506 55.4572 107.633 55.4139C107.76 55.3706 107.897 55.365 108.028 55.3977C108.095 55.4166 108.157 55.4516 108.207 55.4998C108.258 55.5479 108.296 55.6077 108.318 55.6739C108.339 55.7452 108.343 55.8206 108.328 55.8936C108.314 55.9666 108.282 56.0349 108.235 56.0929C108.167 56.1714 108.083 56.2339 107.988 56.2761C107.894 56.3183 107.791 56.3391 107.687 56.3369ZM107.848 55.812C107.792 55.8169 107.739 55.8395 107.696 55.8765C107.759 55.8745 107.819 55.8518 107.867 55.812H107.848Z" fill="#EBEBEB"/>
<path d="M115.234 44.9599C115.271 44.9148 115.32 44.8807 115.375 44.8613C115.43 44.8418 115.489 44.8377 115.547 44.8494C115.566 44.8542 115.585 44.8632 115.601 44.8759C115.617 44.8887 115.63 44.9048 115.639 44.9231C115.639 44.9231 115.639 44.9553 115.616 44.9599C115.593 44.9645 115.579 44.9599 115.574 44.9599C115.568 44.9471 115.559 44.9358 115.548 44.927C115.537 44.9183 115.524 44.9122 115.51 44.9093C115.471 44.8956 115.429 44.8956 115.39 44.9093C115.353 44.9225 115.32 44.9446 115.293 44.9737C115.283 44.9862 115.275 45.0011 115.271 45.0171C115.267 45.0331 115.267 45.0497 115.27 45.0658C115.276 45.0812 115.285 45.095 115.297 45.1062C115.309 45.1174 115.324 45.1256 115.339 45.1303C115.373 45.1395 115.408 45.1395 115.441 45.1303H115.478C115.477 45.1385 115.473 45.1461 115.467 45.152C115.461 45.1578 115.454 45.1615 115.445 45.1625C115.397 45.1763 115.346 45.1763 115.298 45.1625C115.279 45.1556 115.261 45.1443 115.247 45.1295C115.232 45.1147 115.222 45.0968 115.216 45.0772C115.209 45.0576 115.208 45.0368 115.211 45.0165C115.214 44.9961 115.222 44.9768 115.234 44.9599Z" fill="white"/>
<path d="M115.519 45.2224L115.722 44.9554C115.729 44.9513 115.738 44.9492 115.747 44.9492C115.756 44.9492 115.764 44.9513 115.772 44.9554C115.775 44.9575 115.777 44.9603 115.779 44.9635C115.781 44.9667 115.781 44.9702 115.781 44.9738C115.781 44.9774 115.781 44.9809 115.779 44.9841C115.777 44.9873 115.775 44.9901 115.772 44.9922L115.689 45.0981L115.823 45.1395L115.906 45.029C115.913 45.025 115.921 45.0229 115.929 45.0229C115.937 45.0229 115.945 45.025 115.952 45.029C115.952 45.029 115.975 45.029 115.952 45.0613L115.749 45.3329C115.742 45.3369 115.734 45.3391 115.726 45.3391C115.718 45.3391 115.71 45.3369 115.703 45.3329C115.703 45.3329 115.68 45.3329 115.703 45.2961L115.786 45.1856L115.653 45.1441L115.57 45.2546C115.562 45.2587 115.553 45.2608 115.544 45.2608C115.535 45.2608 115.527 45.2587 115.519 45.2546C115.519 45.2546 115.51 45.2408 115.519 45.2224Z" fill="white"/>
<path d="M116.076 45.3284L115.947 45.2916L115.878 45.3422C115.873 45.3454 115.866 45.3471 115.86 45.3471C115.853 45.3471 115.847 45.3454 115.841 45.3422C115.841 45.3422 115.841 45.3146 115.841 45.3008L116.159 45.066C116.165 45.0627 116.173 45.061 116.18 45.061C116.187 45.061 116.194 45.0627 116.2 45.066C116.2 45.066 116.2 45.066 116.2 45.089L116.113 45.3929C116.109 45.401 116.104 45.4079 116.096 45.4128C116.089 45.4177 116.08 45.4203 116.072 45.4205C116.072 45.4205 116.072 45.4205 116.072 45.3975L116.076 45.3284ZM116.076 45.2732L116.108 45.158L115.993 45.2455L116.076 45.2732Z" fill="white"/>
<path d="M116.536 45.2363L116.458 45.2086L116.274 45.4573C116.266 45.4617 116.258 45.4641 116.249 45.4641C116.24 45.4641 116.231 45.4617 116.223 45.4573V45.425L116.408 45.181L116.329 45.1534C116.329 45.1534 116.306 45.1534 116.329 45.1212C116.336 45.1171 116.344 45.115 116.352 45.115C116.36 45.115 116.368 45.1171 116.375 45.1212L116.596 45.1902V45.2225C116.589 45.231 116.58 45.237 116.569 45.2395C116.558 45.242 116.547 45.2408 116.536 45.2363Z" fill="white"/>
<path d="M109.22 49.4629L114.23 51.0007L115.289 49.601L110.275 48.0632L109.22 49.4629Z" fill="#455A64"/>
<path d="M114.695 51.1435L114.23 51.0008L114.557 50.568L114.695 51.1435Z" fill="#455A64"/>
<path d="M114.801 49.7805L110.363 48.4177L110.381 48.3947L114.819 49.7529L114.801 49.7805Z" fill="white"/>
<path d="M113.77 49.6425L110.252 48.5651L110.27 48.5375L113.788 49.6149L113.77 49.6425Z" fill="white"/>
<path d="M114.11 50.0984L110.035 48.8506L110.054 48.823L114.129 50.0753L114.11 50.0984Z" fill="white"/>
<path d="M114.363 50.3562L109.929 48.9933L109.948 48.9657L114.386 50.3285L114.363 50.3562Z" fill="white"/>
<path d="M114.258 50.4989L109.819 49.136L109.838 49.1084L114.276 50.4712L114.258 50.4989Z" fill="white"/>
<path d="M112.918 50.2641L109.708 49.2788L109.732 49.2557L112.941 50.2364L112.918 50.2641Z" fill="white"/>
<path d="M106.725 52.7642L111.739 54.302L112.793 52.9023L107.784 51.3645L106.725 52.7642Z" fill="#455A64"/>
<path d="M112.204 54.4446L111.739 54.3019L112.061 53.8737L112.204 54.4446Z" fill="#455A64"/>
<path d="M112.305 53.0818L107.867 51.7189L107.885 51.6959L112.324 53.0542L112.305 53.0818Z" fill="white"/>
<path d="M111.274 52.9438L107.756 51.8664L107.779 51.8387L111.297 52.9161L111.274 52.9438Z" fill="white"/>
<path d="M111.615 53.3995L107.544 52.1518L107.563 52.1241L111.633 53.3765L111.615 53.3995Z" fill="white"/>
<path d="M111.873 53.6573L107.434 52.2945L107.453 52.2668L111.891 53.6297L111.873 53.6573Z" fill="white"/>
<path d="M111.762 53.8001L107.324 52.4373L107.347 52.4097L111.785 53.7725L111.762 53.8001Z" fill="white"/>
<path d="M110.427 53.5653L107.218 52.58L107.236 52.557L110.445 53.5423L110.427 53.5653Z" fill="white"/>
<path d="M116.799 48.3579L111.79 46.8201L112.678 45.6368L117.692 47.1746L116.799 48.3579Z" fill="#D61842"/>
<path d="M111.325 46.6773L111.79 46.82L112.112 46.3872L111.325 46.6773Z" fill="#D61842"/>
<path d="M116.481 47.1056L112.789 45.9729L112.807 45.9453L116.504 47.0826L116.481 47.1056Z" fill="white"/>
<path d="M117.117 47.4786L112.678 46.1158L112.701 46.0881L117.135 47.451L117.117 47.4786Z" fill="white"/>
<path d="M117.006 47.6212L112.572 46.2584L112.591 46.2354L117.029 47.5936L117.006 47.6212Z" fill="white"/>
<path d="M116.55 47.6581L112.462 46.4058L112.48 46.3782L116.569 47.6305L116.55 47.6581Z" fill="white"/>
<path d="M116.79 47.9067L112.356 46.5485L112.374 46.5209L116.813 47.8837L116.79 47.9067Z" fill="white"/>
<path d="M115.524 47.6949L112.246 46.6912L112.264 46.6636L115.547 47.6719L115.524 47.6949Z" fill="white"/>
<path d="M115.993 49.4215L110.984 47.8837L111.642 47.0089L116.656 48.5467L115.993 49.4215Z" fill="#D61842"/>
<path d="M110.519 47.741L110.984 47.8838L111.306 47.4556L110.519 47.741Z" fill="#D61842"/>
<path d="M116.182 48.7032L111.753 47.345L111.771 47.3174L116.2 48.6756L116.182 48.7032Z" fill="white"/>
<path d="M115.289 48.6065L111.642 47.4877L111.665 47.4601L115.312 48.5789L115.289 48.6065Z" fill="white"/>
<path d="M115.547 48.8597L111.536 47.6304L111.555 47.6028L115.57 48.8367L115.547 48.8597Z" fill="white"/>
<path d="M114.52 48.7217L111.426 47.7732L111.449 47.7456L114.543 48.6987L114.52 48.7217Z" fill="white"/>
<path d="M113.507 52.718L108.493 51.1802L109.428 49.9463L114.437 51.4841L113.507 52.718Z" fill="#DBDBDB"/>
<path d="M108.033 51.0376L108.493 51.1804L108.82 50.7476L108.033 51.0376Z" fill="#DBDBDB"/>
<path d="M113.401 51.9905L109.211 50.706L109.234 50.6783L113.424 51.9675L113.401 51.9905Z" fill="white"/>
<path d="M112.955 52.0321L109.105 50.8488L109.124 50.8212L112.973 52.0045L112.955 52.0321Z" fill="white"/>
<path d="M113.378 51.6316L109.428 50.4207L109.451 50.3931L113.397 51.604L113.378 51.6316Z" fill="white"/>
<path d="M113.922 51.6223L109.538 50.2779L109.557 50.2502L113.94 51.5947L113.922 51.6223Z" fill="white"/>
<path d="M112.982 52.2162L108.995 50.9915L109.018 50.9685L113.001 52.1886L112.982 52.2162Z" fill="white"/>
<path d="M111.154 55.8352L106.14 54.2974L106.918 53.2706L111.928 54.8084L111.154 55.8352Z" fill="#D61842"/>
<path d="M105.675 54.1547L106.14 54.2974L106.463 53.8646L105.675 54.1547Z" fill="#D61842"/>
<path d="M111.467 54.9558L107.033 53.593L107.052 53.5699L111.49 54.9282L111.467 54.9558Z" fill="white"/>
<path d="M111.362 55.0984L106.923 53.7355L106.942 53.7125L111.38 55.0708L111.362 55.0984Z" fill="white"/>
<path d="M110.901 55.1353L106.812 53.883L106.836 53.8553L110.919 55.1077L110.901 55.1353Z" fill="white"/>
<path d="M111.145 55.3839L106.707 54.0257L106.725 53.998L111.164 55.3609L111.145 55.3839Z" fill="white"/>
<path d="M109.879 55.1722L106.596 54.1685L106.619 54.1409L109.897 55.1492L109.879 55.1722Z" fill="white"/>
<path d="M109.308 58.9845C107.517 59.0535 113.258 55.3011 113.3 53.2338C113.341 51.1665 111.366 51.8802 109.824 53.068C104.478 57.2118 100.367 57.0967 97.6962 60.9827C95.0258 64.8686 109.308 58.9845 109.308 58.9845Z" fill="#EB9481"/>
<path d="M103.829 56.6224C102.667 56.9403 101.55 57.4044 100.505 58.0037C99.5752 58.6134 98.7704 59.3947 98.1335 60.3058C98.1058 60.3472 98.1611 60.3979 98.1933 60.3564C99.6206 58.5148 101.775 57.5617 103.843 56.6409C103.842 56.637 103.84 56.6333 103.838 56.6301C103.835 56.627 103.832 56.6243 103.829 56.6224Z" fill="#1F1F1F"/>
<path d="M83.6948 64.7075C85.0991 65.0528 94.7449 62.166 94.7449 62.166L100.5 75.2557C100.5 75.2557 83.6764 79.5837 79.6983 78.3083C75.7203 77.0329 69.2744 63.7452 67.1058 55.9963C65.0662 48.7125 67.4465 43.8735 72.8565 51.3415C72.8749 51.3415 82.9627 64.5279 83.6948 64.7075Z" fill="#D61842"/>
<path d="M97.4429 75.9831C96.3563 76.2317 95.0579 76.5264 93.6537 76.8256L88.3818 63.9339C89.6434 63.6254 90.9648 63.2662 92.0652 62.9578C93.6905 66.8713 95.6611 71.6459 97.4429 75.9831Z" fill="#EBEBEB"/>
<path d="M92.1803 77.125L90.9601 77.369L85.7021 64.5187C86.0705 64.4496 86.471 64.3667 86.8854 64.2747C88.4785 68.1238 90.4168 72.8201 92.1803 77.125Z" fill="#EBEBEB"/>
<path d="M79.4959 77.8892C76.1486 76.2731 71.8621 67.5021 71.038 65.7802C70.5085 64.6797 70.0251 63.5563 69.5462 62.4329C68.5931 60.1768 67.7045 57.8978 66.862 55.6049C66.8639 55.6 66.8646 55.5947 66.8641 55.5894C66.8635 55.5842 66.8617 55.5792 66.8587 55.5748C66.8558 55.5705 66.8518 55.5669 66.8471 55.5644C66.8425 55.562 66.8373 55.5607 66.832 55.5607C66.8268 55.5607 66.8216 55.562 66.8169 55.5644C66.8123 55.5669 66.8083 55.5705 66.8054 55.5748C66.8024 55.5792 66.8006 55.5842 66.8 55.5894C66.7994 55.5947 66.8002 55.6 66.8021 55.6049C67.2779 57.3821 67.8411 59.1348 68.4918 60.8629C68.0767 60.2228 67.7 59.5587 67.3638 58.8738C67.3638 58.8416 67.2901 58.8738 67.304 58.9015C67.6474 59.7187 68.088 60.4916 68.6162 61.2036C69.2792 62.9394 70.0204 64.6429 70.84 66.3004C71.0748 66.7608 76.0473 77.5301 79.7675 78.4509C81.0613 78.7732 85.4537 78.3542 86.3838 78.1194C86.4206 78.1194 86.4298 78.0596 86.3838 78.0596C85.1176 78.078 80.7022 78.4785 79.4959 77.8892Z" fill="#1F1F1F"/>
<path d="M96.8168 73.7225C96.6418 73.2621 96.4669 72.8017 96.2873 72.3689C95.9282 71.4711 93.7642 66.121 92.8434 64.4542C92.8434 64.4082 92.7513 64.4542 92.7651 64.4911C93.3038 66.3328 95.5875 71.6046 95.988 72.4748C96.1814 72.9352 96.3748 73.3634 96.5774 73.8054C96.7799 74.2474 97.0378 74.6756 97.2312 75.1222C97.2312 75.1636 97.3232 75.1222 97.3048 75.0946C97.1207 74.648 97.001 74.1737 96.8168 73.7225Z" fill="#1F1F1F"/>
<path d="M94.7542 62.1843C93.9485 62.2395 86.7199 64.0996 85.1222 64.4864C84.7432 64.6235 84.3419 64.6891 83.9389 64.6797C83.5447 64.5719 83.2019 64.327 82.9721 63.9891C82.438 63.4044 76.5768 56.0238 76.1532 55.6647C75.9967 55.5266 75.8724 55.5036 76.0243 55.7384C76.2868 56.1389 81.9868 63.4274 82.5024 64.0259C83.0181 64.6245 83.4233 65.1171 84.2198 65.0665C84.5605 65.0435 94.3168 62.6171 94.8095 62.4053C94.8923 62.3638 94.8785 62.175 94.7542 62.1843Z" fill="#1F1F1F"/>
<path d="M75.6374 49.8957C74.1824 50.1627 70.4668 48.4546 69.546 46.3505C69.4815 46.2031 69.8222 44.7758 70.1538 43.017C70.3471 41.9488 70.5405 40.7517 70.6142 39.6513C70.6142 39.4257 77.3777 41.9534 77.3777 41.9534C76.8614 43.2976 76.5119 44.7001 76.3372 46.1295C76.3206 46.2825 76.3206 46.4368 76.3372 46.5899C76.3395 46.6144 76.3395 46.639 76.3372 46.6635C76.4431 47.5199 77.2028 49.6056 75.6374 49.8957Z" fill="#EB9481"/>
<path d="M76.3786 46.5715V46.6452C76.142 46.6553 75.905 46.6476 75.6695 46.6222C71.6086 46.1618 70.9825 40.982 70.8904 39.6744C72.1059 39.9599 77.4099 41.9397 77.4099 41.9397C76.8936 43.2839 76.5441 44.6864 76.3694 46.1157C76.3584 46.2676 76.3615 46.4202 76.3786 46.5715Z" fill="#1F1F1F"/>
<path d="M67.8471 32.4365C67.5939 34.9965 70.2597 41.7094 72.2902 42.9203C75.2276 44.6791 79.3438 44.076 80.656 40.7057C81.9314 37.4367 78.3032 28.7348 76.1024 27.7172C72.8749 26.1978 68.22 28.6519 67.8471 32.4365Z" fill="#EB9481"/>
<path d="M75.481 35.2451C75.481 35.2451 75.4534 35.282 75.481 35.2958C75.6698 35.7562 75.8171 36.2903 75.481 36.6034C75.9322 36.3593 75.7343 35.6595 75.481 35.2451Z" fill="#1F1F1F"/>
<path d="M74.8918 34.9274C74.1413 35.1576 74.6569 36.6448 75.3522 36.4284C76.0474 36.212 75.5179 34.7387 74.8918 34.9274Z" fill="#1F1F1F"/>
<path d="M78.1653 34.3934C78.1653 34.3934 78.2113 34.3934 78.2159 34.4211C78.3633 34.8815 78.6073 35.3971 79.0769 35.4064C78.5474 35.5353 78.2297 34.8585 78.1653 34.3934Z" fill="#1F1F1F"/>
<path d="M78.3998 33.7719C79.1227 33.4588 79.6936 34.923 79.026 35.213C78.3584 35.5031 77.8059 34.0344 78.3998 33.7719Z" fill="#1F1F1F"/>
<path d="M74.0675 34.4532C74.2433 34.3288 74.4124 34.1951 74.574 34.0527C74.7705 33.9353 74.9238 33.7577 75.0114 33.5462C75.024 33.4738 75.0129 33.3993 74.9797 33.3337C74.9465 33.2682 74.893 33.2151 74.8272 33.1825C74.6872 33.1393 74.5381 33.1345 74.3956 33.1685C74.2531 33.2025 74.1223 33.2741 74.0168 33.3758C73.769 33.5468 73.5948 33.8049 73.5288 34.0987C73.5163 34.1664 73.524 34.2363 73.551 34.2996C73.5779 34.3629 73.623 34.4169 73.6805 34.4547C73.738 34.4926 73.8054 34.5126 73.8742 34.5123C73.9431 34.5121 74.0103 34.4915 74.0675 34.4532Z" fill="#1F1F1F"/>
<path d="M78.727 32.8279C78.506 32.8648 78.3034 32.8602 78.0824 32.8786C77.8577 32.9265 77.6236 32.9006 77.4148 32.8049C77.3557 32.7621 77.3124 32.701 77.2916 32.6311C77.2708 32.5612 77.2736 32.4863 77.2997 32.4182C77.373 32.2902 77.479 32.184 77.6068 32.1104C77.7346 32.0368 77.8797 31.9984 78.0271 31.9992C78.3242 31.9593 78.6257 32.0297 78.8743 32.1972C78.9289 32.2386 78.9704 32.2949 78.9937 32.3594C79.017 32.4238 79.0211 32.4937 79.0055 32.5604C78.9899 32.6271 78.9553 32.6879 78.9059 32.7354C78.8564 32.7829 78.7943 32.815 78.727 32.8279Z" fill="#1F1F1F"/>
<path d="M78.1282 38.1734C78.0216 38.4932 77.8345 38.7801 77.5849 39.0068C77.4448 39.1259 77.271 39.1983 77.0877 39.2139C76.6871 39.2462 76.5628 38.9101 76.5306 38.6016C76.5116 38.4348 76.5116 38.2665 76.5306 38.0997C77.0414 38.2953 77.6016 38.3211 78.1282 38.1734Z" fill="#1F1F1F"/>
<path d="M77.5851 39.0068C77.445 39.1259 77.2711 39.1983 77.0879 39.214C76.6873 39.2462 76.563 38.9101 76.5308 38.6016C76.7265 38.5425 76.9365 38.5502 77.1274 38.6235C77.3183 38.6969 77.4793 38.8317 77.5851 39.0068Z" fill="#FF9BBC"/>
<path d="M70.1769 38.6476C71.4937 38.1044 69.8315 34.4578 69.8315 34.4578C70.3715 34.1879 70.8238 33.7704 71.136 33.2537C71.4481 32.7369 71.6073 32.1423 71.595 31.5388C71.595 31.5388 77.2443 31.0783 78.0408 28.8775C78.8374 26.6767 77.2765 23.8635 76.5813 23.9004C75.8861 23.9372 75.2 25.1435 75.2 25.1435C75.2 25.1435 74.468 24.2503 73.8971 24.3148C73.0177 24.4114 72.8795 25.5809 72.5158 25.9631C71.5213 26.9622 68.0958 28.0672 67.3545 29.0479C67.1421 29.2895 66.9927 29.5798 66.9196 29.8931C66.8465 30.2064 66.852 30.5329 66.9355 30.8435C66.6252 31.0473 66.37 31.3246 66.1925 31.6506C66.015 31.9767 65.9207 32.3416 65.918 32.7128C65.8075 34.3749 68.8508 39.2002 70.1769 38.6476Z" fill="#1F1F1F"/>
<path d="M70.292 38.33C71.2542 36.9487 70.3196 35.0656 69.408 33.8823C69.408 33.8823 69.408 33.8455 69.4402 33.8823C70.361 34.9643 71.4568 37.1053 70.361 38.3945C70.3525 38.4036 70.3406 38.409 70.3281 38.4094C70.3156 38.4099 70.3034 38.4053 70.2943 38.3968C70.2851 38.3882 70.2797 38.3764 70.2793 38.3639C70.2789 38.3513 70.2834 38.3392 70.292 38.33Z" fill="#1F1F1F"/>
<path d="M70.6743 31.3362C71.9673 31.5067 73.2786 31.4835 74.5648 31.2671C75.1491 31.1448 75.7175 30.9563 76.2592 30.7054C76.7978 30.4568 77.7555 30.0286 77.9673 29.4163C77.7528 29.9011 77.3701 30.2919 76.8899 30.5167C76.2679 30.8987 75.5909 31.1829 74.8825 31.3592C73.4937 31.7202 72.0393 31.7486 70.6374 31.4421C70.573 31.4329 70.6052 31.3316 70.6743 31.3362Z" fill="#1F1F1F"/>
<path d="M67.907 28.2053C68.5344 27.8394 69.185 27.5149 69.8546 27.2338C70.6741 26.8332 71.6686 26.4419 72.3178 25.7881H72.3409C71.8847 26.2547 71.3482 26.6353 70.757 26.9115C70.1769 27.2292 69.5829 27.5239 68.9844 27.8047C68.303 28.127 67.5525 28.4954 67.1427 29.186C66.7329 29.8766 66.8711 30.5672 66.9585 31.2625C66.9585 31.2763 66.9538 31.2897 66.945 31.3004C66.9362 31.3111 66.924 31.3185 66.9104 31.3212C66.8969 31.3239 66.8828 31.3218 66.8706 31.3153C66.8583 31.3088 66.8488 31.2983 66.8434 31.2855C66.6468 30.7274 66.6449 30.1192 66.838 29.5599C67.0312 29.0006 67.4079 28.5232 67.907 28.2053Z" fill="#1F1F1F"/>
<path d="M66.6224 31.175C65.1767 32.2248 65.9134 34.3612 66.6546 35.6181C67.3028 36.8503 68.327 37.8438 69.5783 38.4543C69.6382 38.4773 69.5783 38.5694 69.5323 38.5464C68.0313 37.957 66.9263 36.5205 66.2357 35.1116C65.72 34.0481 65.1399 31.8058 66.6224 31.175Z" fill="#1F1F1F"/>
<path d="M70.7617 37.8372C70.7617 37.8372 68.6944 35.9403 67.8012 36.7276C66.908 37.5149 68.8049 40.503 70.1033 40.6826C70.2677 40.7172 70.4375 40.7182 70.6023 40.6856C70.7672 40.653 70.9237 40.5874 71.0626 40.4928C71.2015 40.3983 71.3198 40.2766 71.4105 40.1351C71.5012 39.9937 71.5625 39.8354 71.5905 39.6697L70.7617 37.8372Z" fill="#EB9481"/>
<path d="M68.3674 37.5703V37.6026C69.2883 37.7591 69.896 38.4359 70.3795 39.1772C70.3129 39.1038 70.231 39.0458 70.1397 39.0072C70.0484 38.9687 69.9497 38.9505 69.8506 38.954C69.7516 38.9575 69.6544 38.9826 69.5661 39.0275C69.4777 39.0724 69.4002 39.1361 69.3389 39.214C69.3389 39.214 69.3389 39.2647 69.3711 39.2555C69.5074 39.1746 69.6657 39.1386 69.8235 39.1527C69.9813 39.1667 70.1307 39.2301 70.2505 39.3338C70.4509 39.505 70.6316 39.698 70.7892 39.9093C70.8491 39.9783 70.9734 39.9093 70.9274 39.8264C70.7018 38.7352 69.5369 37.423 68.3674 37.5703Z" fill="#1F1F1F"/>
<path d="M76.8715 46.3965H76.8485C77.3089 47.7225 78.285 50.8165 76.1947 51.1895C75.3235 51.2633 74.4496 51.0809 73.6808 50.6646C72.8893 50.2989 72.1392 49.8497 71.4431 49.3248C70.6381 48.7579 69.8806 48.1266 69.1779 47.437C69.1456 47.4048 69.1088 47.437 69.1364 47.4831C69.8501 48.1737 70.5177 48.9196 71.2728 49.5411C72.0113 50.1482 72.8292 50.6516 73.7038 51.0375C74.5167 51.4582 75.4393 51.6189 76.3466 51.4979C76.7351 51.4068 77.0792 51.1822 77.319 50.8633C77.5588 50.5444 77.6791 50.1514 77.6588 49.7529C77.639 48.5907 77.3705 47.4463 76.8715 46.3965Z" fill="#1F1F1F"/>
<path d="M118.668 189.27H193.551V157.837H118.668V189.27Z" fill="#1F1F1F"/>
<path d="M120.086 157.837C120.086 157.837 121.118 153.209 123.176 152.5C125.234 151.791 126.491 153.882 126.491 153.882C126.491 153.882 126.974 149.462 129.893 148.14C132.812 146.819 135.008 149.521 135.008 149.521C135.008 149.521 137.251 143.914 141.252 143.914C145.253 143.914 147.274 152.118 147.274 152.118C147.274 152.118 149.641 149.673 152.062 151.055C154.484 152.436 154.484 157.851 154.484 157.851L120.086 157.837Z" fill="#37474F"/>
<path d="M161.114 157.837H192.124C192.124 157.837 191.101 153.633 189.043 153.334C186.985 153.034 186.028 154.987 186.028 154.987C186.028 154.987 186.12 149.125 182.28 148.126C178.44 147.127 175.217 152.307 175.217 152.307C175.217 152.307 172.804 149.356 169.522 149.544C166.239 149.733 165.405 154.609 165.405 154.609C165.405 154.609 162.431 152.919 161.114 157.837Z" fill="#37474F"/>
<path d="M152.26 157.837H171.322C171.322 157.837 171.276 155.111 169.402 154.388C168.895 154.173 168.333 154.123 167.797 154.246C167.26 154.37 166.776 154.659 166.414 155.074C166.414 155.074 165.65 150.06 162.16 150.06C158.67 150.06 156.994 154.388 156.994 154.388C156.69 153.969 156.273 153.646 155.792 153.458C155.31 153.269 154.784 153.223 154.277 153.325C152.339 153.564 152.26 157.837 152.26 157.837Z" fill="#455A64"/>
<path d="M133.549 189.182H196.162V185.471H133.549V189.182Z" fill="#D61842"/>
<path d="M133.549 184.578H196.162V180.867H133.549V184.578Z" fill="#D61842"/>
<path d="M133.549 179.969H196.162V176.258H133.549V179.969Z" fill="#D61842"/>
<path d="M133.549 175.365H196.162V171.654H133.549V175.365Z" fill="#D61842"/>
<path d="M133.549 170.756H196.162V167.045H133.549V170.756Z" fill="#D61842"/>
<path d="M133.549 166.152H196.162V162.441H133.549V166.152Z" fill="#D61842"/>
<path d="M133.549 161.543H196.162V157.832H133.549V161.543Z" fill="#D61842"/>
<path d="M116.058 189.182H133.549V185.471H116.058V189.182Z" fill="#D61842"/>
<path opacity="0.2" d="M116.058 189.182H133.549V185.471H116.058V189.182Z" fill="#020100"/>
<path d="M116.058 184.578H133.549V180.867H116.058V184.578Z" fill="#D61842"/>
<path opacity="0.2" d="M116.058 184.578H133.549V180.867H116.058V184.578Z" fill="#020100"/>
<path d="M116.058 179.969H133.549V176.258H116.058V179.969Z" fill="#D61842"/>
<path opacity="0.2" d="M116.058 179.969H133.549V176.258H116.058V179.969Z" fill="#020100"/>
<path d="M116.058 175.365H133.549V171.654H116.058V175.365Z" fill="#D61842"/>
<path opacity="0.2" d="M116.058 175.365H133.549V171.654H116.058V175.365Z" fill="#020100"/>
<path d="M116.058 170.756H133.549V167.045H116.058V170.756Z" fill="#D61842"/>
<path opacity="0.2" d="M116.058 170.756H133.549V167.045H116.058V170.756Z" fill="#020100"/>
<path d="M116.058 166.152H133.549V162.441H116.058V166.152Z" fill="#D61842"/>
<path opacity="0.2" d="M116.058 166.152H133.549V162.441H116.058V166.152Z" fill="#020100"/>
<path d="M116.058 161.543H133.549V157.832H116.058V161.543Z" fill="#D61842"/>
<path opacity="0.2" d="M116.058 161.543H133.549V157.832H116.058V161.543Z" fill="#020100"/>
</g>
<defs>
<clipPath id="clip0_442_2718">
<rect width="200" height="200" fill="white" transform="translate(0.5)"/>
</clipPath>
</defs>
</svg>
