<svg width="20" height="21" viewBox="0 0 20 21" fill="none" xmlns="http://www.w3.org/2000/svg">
<g clip-path="url(#clip0_2764_7063)">
<path d="M6.81888 9.10282H1.98803C1.4989 9.10237 1.02993 8.9079 0.684016 8.56209C0.338099 8.21628 0.143488 7.74737 0.142883 7.25825V2.48739C0.143488 1.99827 0.338099 1.52936 0.684016 1.18355C1.02993 0.837742 1.4989 0.643276 1.98803 0.642822H6.81888C7.30791 0.643427 7.77673 0.83796 8.12252 1.18375C8.46832 1.52955 8.66285 1.99837 8.66346 2.48739V7.25825C8.66285 7.74728 8.46832 8.2161 8.12252 8.56189C7.77673 8.90768 7.30791 9.10222 6.81888 9.10282ZM1.98803 2.07139C1.87769 2.07154 1.77191 2.1154 1.69383 2.19337C1.61576 2.27134 1.57176 2.37706 1.57145 2.48739V7.25825C1.57176 7.36859 1.61576 7.47431 1.69383 7.55228C1.77191 7.63024 1.87769 7.6741 1.98803 7.67425H6.81888C6.92917 7.6741 7.03489 7.63022 7.11287 7.55224C7.19086 7.47426 7.23473 7.36853 7.23488 7.25825V2.48739C7.23473 2.37711 7.19086 2.27139 7.11287 2.1934C7.03489 2.11542 6.92917 2.07154 6.81888 2.07139H1.98803ZM6.84231 20.3571H2.01145C1.52228 20.3565 1.05331 20.1619 0.70741 19.816C0.361509 19.4701 0.166917 19.0011 0.166312 18.512V13.7417C0.166917 13.2526 0.361528 12.7836 0.707445 12.4378C1.05336 12.092 1.52233 11.8976 2.01145 11.8971H6.84231C7.33114 11.898 7.79967 12.0927 8.14522 12.4384C8.49076 12.7842 8.68514 13.2529 8.68574 13.7417V18.512C8.68529 19.0009 8.49098 19.4697 8.14542 19.8156C7.79985 20.1615 7.33124 20.3562 6.84231 20.3571ZM2.01145 13.3257C1.90112 13.3258 1.79534 13.3697 1.71726 13.4477C1.63919 13.5256 1.59519 13.6313 1.59488 13.7417V18.512C1.59503 18.6224 1.63897 18.7283 1.71706 18.8064C1.79515 18.8844 1.90102 18.9284 2.01145 18.9285H6.84231C6.95265 18.9282 7.05837 18.8842 7.13634 18.8062C7.2143 18.7281 7.25816 18.6223 7.25831 18.512V13.7417C7.25816 13.6314 7.21428 13.5257 7.1363 13.4477C7.05832 13.3697 6.9526 13.3258 6.84231 13.3257H2.01145ZM18.0126 20.3571H13.1817C12.6926 20.3565 12.2236 20.1619 11.8777 19.816C11.5318 19.4701 11.3372 19.0011 11.3366 18.512V13.7417C11.3372 13.2526 11.5318 12.7836 11.8777 12.4378C12.2236 12.092 12.6926 11.8976 13.1817 11.8971H18.0126C18.5016 11.8977 18.9704 12.0922 19.3162 12.438C19.662 12.7838 19.8566 13.2527 19.8572 13.7417V18.512C19.8567 19.0011 19.6623 19.4701 19.3164 19.816C18.9706 20.1619 18.5017 20.3565 18.0126 20.3571ZM13.1817 13.3285C13.0714 13.3287 12.9656 13.3725 12.8875 13.4505C12.8095 13.5285 12.7655 13.6342 12.7652 13.7445V18.5148C12.7653 18.6253 12.8093 18.7311 12.8873 18.8092C12.9654 18.8873 13.0713 18.9312 13.1817 18.9314H18.0126C18.1229 18.9311 18.2287 18.8871 18.3066 18.809C18.3846 18.7309 18.4284 18.6252 18.4286 18.5148V13.7417C18.4284 13.6314 18.3846 13.5257 18.3066 13.4477C18.2286 13.3697 18.1229 13.3258 18.0126 13.3257L13.1817 13.3285ZM15.6 9.10282C14.7651 9.09662 13.9506 8.84335 13.2594 8.37495C12.5681 7.90655 12.0311 7.24399 11.7158 6.4708C11.4006 5.6976 11.3213 4.84838 11.488 4.0302C11.6547 3.21202 12.0599 2.4615 12.6525 1.87327C13.2451 1.28503 13.9986 0.885407 14.818 0.724778C15.6374 0.564149 16.486 0.649704 17.2568 0.970657C18.0277 1.29161 18.6862 1.83359 19.1495 2.52828C19.6128 3.22297 19.86 4.03926 19.86 4.87425C19.8544 5.99946 19.4028 7.07652 18.6042 7.86923C17.8056 8.66193 16.7252 9.10556 15.6 9.10282ZM15.6 2.07425C15.0476 2.08045 14.5094 2.24992 14.0531 2.56134C13.5968 2.87275 13.2428 3.31219 13.0357 3.82434C12.8286 4.33648 12.7776 4.89845 12.8891 5.43951C13.0007 5.98057 13.2698 6.47654 13.6626 6.86499C14.0554 7.25344 14.5544 7.51701 15.0967 7.62253C15.6389 7.72804 16.2003 7.67079 16.7101 7.45797C17.2199 7.24515 17.6554 6.88628 17.9617 6.42653C18.268 5.96678 18.4314 5.42669 18.4315 4.87425C18.4269 4.12733 18.1262 3.41272 17.5954 2.88724C17.0646 2.36177 16.347 2.06835 15.6 2.07139V2.07425Z" fill="#15A600"/>
</g>
<defs>
<clipPath id="clip0_2764_7063">
<rect width="20" height="20" fill="white" transform="translate(0 0.5)"/>
</clipPath>
</defs>
</svg>
