<svg width="21" height="20" viewBox="0 0 21 20" fill="none" xmlns="http://www.w3.org/2000/svg">
<g clip-path="url(#clip0_989_349)">
<path d="M10.5 6.66666C9.84069 6.66666 9.19622 6.86216 8.64806 7.22843C8.0999 7.5947 7.67265 8.1153 7.42036 8.72439C7.16807 9.33347 7.10206 10.0037 7.23068 10.6503C7.35929 11.2969 7.67676 11.8908 8.14294 12.357C8.60911 12.8232 9.20306 13.1407 9.84966 13.2693C10.4963 13.3979 11.1665 13.3319 11.7756 13.0796C12.3847 12.8273 12.9053 12.4001 13.2715 11.8519C13.6378 11.3037 13.8333 10.6593 13.8333 10C13.8333 9.11594 13.4821 8.2681 12.857 7.64297C12.2319 7.01785 11.384 6.66666 10.5 6.66666ZM10.5 11.6667C10.1703 11.6667 9.84809 11.5689 9.57401 11.3858C9.29993 11.2026 9.08631 10.9423 8.96016 10.6378C8.83402 10.3333 8.80101 9.99815 8.86532 9.67485C8.92963 9.35155 9.08836 9.05457 9.32145 8.82149C9.55454 8.5884 9.85151 8.42966 10.1748 8.36536C10.4981 8.30105 10.8332 8.33405 11.1378 8.4602C11.4423 8.58634 11.7026 8.79997 11.8857 9.07405C12.0689 9.34813 12.1666 9.67036 12.1666 10C12.1666 10.442 11.991 10.8659 11.6785 11.1785C11.3659 11.4911 10.942 11.6667 10.5 11.6667Z" fill="#777777"/>
<path d="M18.245 11.5833L17.875 11.37C18.0416 10.4637 18.0416 9.53463 17.875 8.62833L18.245 8.415C18.5296 8.25085 18.779 8.03226 18.979 7.77172C19.1791 7.51118 19.3259 7.21378 19.411 6.89651C19.4961 6.57925 19.5179 6.24832 19.4751 5.92263C19.4324 5.59694 19.3259 5.28286 19.1617 4.99833C18.9976 4.7138 18.779 4.46439 18.5184 4.26434C18.2579 4.06428 17.9605 3.91751 17.6432 3.83239C17.326 3.74726 16.995 3.72547 16.6693 3.76824C16.3436 3.81101 16.0296 3.91751 15.745 4.08167L15.3742 4.29583C14.6738 3.69743 13.8689 3.23354 13 2.9275V2.5C13 1.83696 12.7366 1.20107 12.2678 0.732233C11.799 0.263392 11.1631 0 10.5 0C9.837 0 9.20111 0.263392 8.73227 0.732233C8.26343 1.20107 8.00004 1.83696 8.00004 2.5V2.9275C7.13119 3.23464 6.32658 3.69967 5.6267 4.29917L5.2542 4.08333C4.67957 3.75181 3.99677 3.66214 3.35602 3.83405C2.71527 4.00596 2.16906 4.42536 1.83754 5C1.50602 5.57464 1.41635 6.25743 1.58825 6.89818C1.76016 7.53893 2.17957 8.08515 2.7542 8.41667L3.1242 8.63C2.95763 9.5363 2.95763 10.4654 3.1242 11.3717L2.7542 11.585C2.17957 11.9165 1.76016 12.4627 1.58825 13.1035C1.41635 13.7442 1.50602 14.427 1.83754 15.0017C2.16906 15.5763 2.71527 15.9957 3.35602 16.1676C3.99677 16.3395 4.67957 16.2499 5.2542 15.9183L5.62504 15.7042C6.32567 16.3027 7.13085 16.7666 8.00004 17.0725V17.5C8.00004 18.163 8.26343 18.7989 8.73227 19.2678C9.20111 19.7366 9.837 20 10.5 20C11.1631 20 11.799 19.7366 12.2678 19.2678C12.7366 18.7989 13 18.163 13 17.5V17.0725C13.8689 16.7654 14.6735 16.3003 15.3734 15.7008L15.7459 15.9158C16.3205 16.2474 17.0033 16.337 17.6441 16.1651C18.2848 15.9932 18.831 15.5738 19.1625 14.9992C19.4941 14.4245 19.5837 13.7417 19.4118 13.101C19.2399 12.4602 18.8205 11.914 18.2459 11.5825L18.245 11.5833ZM16.1217 8.43667C16.4039 9.45922 16.4039 10.5391 16.1217 11.5617C16.0724 11.7396 16.0837 11.9289 16.1537 12.0998C16.2236 12.2707 16.3484 12.4135 16.5084 12.5058L17.4117 13.0275C17.6032 13.138 17.743 13.3201 17.8003 13.5336C17.8575 13.7472 17.8276 13.9747 17.7171 14.1663C17.6066 14.3578 17.4246 14.4975 17.211 14.5548C16.9974 14.6121 16.7699 14.5822 16.5784 14.4717L15.6734 13.9483C15.5133 13.8556 15.3269 13.8188 15.1436 13.8437C14.9603 13.8686 14.7904 13.9538 14.6609 14.0858C13.9191 14.843 12.9847 15.3833 11.9584 15.6483C11.7792 15.6944 11.6205 15.7987 11.5072 15.9449C11.3939 16.0911 11.3324 16.2709 11.3325 16.4558V17.5C11.3325 17.721 11.2447 17.933 11.0885 18.0893C10.9322 18.2455 10.7202 18.3333 10.4992 18.3333C10.2782 18.3333 10.0662 18.2455 9.90995 18.0893C9.75367 17.933 9.66587 17.721 9.66587 17.5V16.4567C9.66596 16.2717 9.60451 16.092 9.49121 15.9458C9.3779 15.7996 9.21918 15.6952 9.04004 15.6492C8.01366 15.3831 7.07948 14.8416 6.33837 14.0833C6.20881 13.9513 6.03898 13.8661 5.85567 13.8412C5.67235 13.8163 5.48596 13.8531 5.32587 13.9458L4.42254 14.4683C4.32773 14.5239 4.22286 14.5602 4.11397 14.5751C4.00509 14.59 3.89433 14.5832 3.78808 14.5551C3.68183 14.527 3.58219 14.4782 3.49489 14.4114C3.40759 14.3446 3.33435 14.2613 3.2794 14.1661C3.22445 14.0709 3.18887 13.9658 3.1747 13.8568C3.16053 13.7479 3.16807 13.6372 3.19686 13.5311C3.22566 13.425 3.27515 13.3257 3.34248 13.2389C3.40981 13.152 3.49366 13.0793 3.5892 13.025L4.49254 12.5033C4.65249 12.411 4.77726 12.2682 4.84725 12.0973C4.91724 11.9264 4.92848 11.7371 4.8792 11.5592C4.597 10.5366 4.597 9.45672 4.8792 8.43417C4.92759 8.25657 4.91582 8.06795 4.84571 7.89774C4.77561 7.72754 4.65113 7.58534 4.4917 7.49333L3.58837 6.97167C3.39686 6.86116 3.25709 6.6791 3.19982 6.46555C3.14254 6.25199 3.17245 6.02442 3.28295 5.83292C3.39346 5.64141 3.57552 5.50164 3.78907 5.44437C4.00263 5.38709 4.23019 5.41699 4.4217 5.5275L5.3267 6.05083C5.48635 6.14376 5.67235 6.18101 5.85548 6.15672C6.0386 6.13244 6.20846 6.048 6.33837 5.91667C7.08011 5.15945 8.01456 4.61918 9.04087 4.35417C9.22056 4.30797 9.3797 4.20313 9.49306 4.05625C9.60643 3.90938 9.66754 3.72887 9.6667 3.54333V2.5C9.6667 2.27899 9.7545 2.06702 9.91078 1.91074C10.0671 1.75446 10.279 1.66667 10.5 1.66667C10.7211 1.66667 10.933 1.75446 11.0893 1.91074C11.2456 2.06702 11.3334 2.27899 11.3334 2.5V3.54333C11.3333 3.7283 11.3947 3.90804 11.508 4.05423C11.6213 4.20043 11.7801 4.30478 11.9592 4.35083C12.9859 4.61679 13.9204 5.15824 14.6617 5.91667C14.7913 6.04872 14.9611 6.13391 15.1444 6.15881C15.3277 6.1837 15.5141 6.14689 15.6742 6.05417L16.5775 5.53167C16.6723 5.47609 16.7772 5.43981 16.8861 5.42492C16.995 5.41003 17.1057 5.41683 17.212 5.44492C17.3182 5.47301 17.4179 5.52184 17.5052 5.58859C17.5925 5.65535 17.6657 5.73872 17.7207 5.83389C17.7756 5.92907 17.8112 6.03417 17.8254 6.14316C17.8395 6.25214 17.832 6.36285 17.8032 6.46891C17.7744 6.57497 17.7249 6.67429 17.6576 6.76114C17.5903 6.848 17.5064 6.92068 17.4109 6.975L16.5075 7.49667C16.3484 7.58892 16.2243 7.73123 16.1545 7.90141C16.0847 8.07159 16.0732 8.26008 16.1217 8.4375V8.43667Z" fill="#777777"/>
</g>
<defs>
<clipPath id="clip0_989_349">
<rect width="20" height="20" fill="white" transform="translate(0.5)"/>
</clipPath>
</defs>
</svg>
