<svg width="20" height="21" viewBox="0 0 20 21" fill="none" xmlns="http://www.w3.org/2000/svg">
<path d="M6.81882 9.10282H1.98797C1.49884 9.10237 1.02987 8.9079 0.683955 8.56209C0.338038 8.21628 0.143427 7.74737 0.142822 7.25825V2.48739C0.143427 1.99827 0.338038 1.52936 0.683955 1.18355C1.02987 0.837742 1.49884 0.643276 1.98797 0.642822H6.81882C7.30785 0.643427 7.77667 0.83796 8.12246 1.18375C8.46826 1.52955 8.66279 1.99837 8.66339 2.48739V7.25825C8.66279 7.74728 8.46826 8.2161 8.12246 8.56189C7.77667 8.90768 7.30785 9.10222 6.81882 9.10282ZM1.98797 2.07139C1.87763 2.07154 1.77185 2.1154 1.69377 2.19337C1.6157 2.27134 1.5717 2.37706 1.57139 2.48739V7.25825C1.5717 7.36859 1.6157 7.47431 1.69377 7.55228C1.77185 7.63024 1.87763 7.6741 1.98797 7.67425H6.81882C6.92911 7.6741 7.03483 7.63022 7.11281 7.55224C7.19079 7.47426 7.23467 7.36853 7.23482 7.25825V2.48739C7.23467 2.37711 7.19079 2.27139 7.11281 2.1934C7.03483 2.11542 6.92911 2.07154 6.81882 2.07139H1.98797ZM6.84225 20.3571H2.01139C1.52222 20.3565 1.05325 20.1619 0.707349 19.816C0.361448 19.4701 0.166856 19.0011 0.166251 18.512V13.7417C0.166856 13.2526 0.361467 12.7836 0.707384 12.4378C1.0533 12.092 1.52227 11.8976 2.01139 11.8971H6.84225C7.33108 11.898 7.79961 12.0927 8.14515 12.4384C8.4907 12.7842 8.68508 13.2529 8.68568 13.7417V18.512C8.68523 19.0009 8.49092 19.4697 8.14536 19.8156C7.79979 20.1615 7.33118 20.3562 6.84225 20.3571ZM2.01139 13.3257C1.90106 13.3258 1.79527 13.3697 1.7172 13.4477C1.63913 13.5256 1.59512 13.6313 1.59482 13.7417V18.512C1.59497 18.6224 1.63891 18.7283 1.717 18.8064C1.79509 18.8844 1.90096 18.9284 2.01139 18.9285H6.84225C6.95259 18.9282 7.05831 18.8842 7.13628 18.8062C7.21424 18.7281 7.2581 18.6223 7.25825 18.512V13.7417C7.2581 13.6314 7.21422 13.5257 7.13624 13.4477C7.05826 13.3697 6.95253 13.3258 6.84225 13.3257H2.01139ZM18.0125 20.3571H13.1817C12.6925 20.3565 12.2235 20.1619 11.8776 19.816C11.5317 19.4701 11.3371 19.0011 11.3365 18.512V13.7417C11.3371 13.2526 11.5318 12.7836 11.8777 12.4378C12.2236 12.092 12.6926 11.8976 13.1817 11.8971H18.0125C18.5016 11.8977 18.9704 12.0922 19.3162 12.438C19.662 12.7838 19.8565 13.2527 19.8571 13.7417V18.512C19.8567 19.0011 19.6622 19.4701 19.3164 19.816C18.9706 20.1619 18.5017 20.3565 18.0125 20.3571ZM13.1817 13.3285C13.0713 13.3287 12.9656 13.3725 12.8875 13.4505C12.8094 13.5285 12.7654 13.6342 12.7651 13.7445V18.5148C12.7653 18.6253 12.8092 18.7311 12.8873 18.8092C12.9654 18.8873 13.0712 18.9312 13.1817 18.9314H18.0125C18.1229 18.9311 18.2286 18.8871 18.3066 18.809C18.3845 18.7309 18.4284 18.6252 18.4285 18.5148V13.7417C18.4284 13.6314 18.3845 13.5257 18.3065 13.4477C18.2285 13.3697 18.1228 13.3258 18.0125 13.3257L13.1817 13.3285ZM15.6 9.10282C14.765 9.09662 13.9506 8.84335 13.2593 8.37495C12.5681 7.90655 12.031 7.24399 11.7158 6.4708C11.4005 5.6976 11.3212 4.84838 11.4879 4.0302C11.6546 3.21202 12.0598 2.4615 12.6524 1.87327C13.245 1.28503 13.9985 0.885407 14.8179 0.724778C15.6373 0.564149 16.4859 0.649704 17.2568 0.970657C18.0276 1.29161 18.6862 1.83359 19.1494 2.52828C19.6127 3.22297 19.8599 4.03926 19.86 4.87425C19.8544 5.99946 19.4028 7.07652 18.6042 7.86923C17.8056 8.66193 16.7252 9.10556 15.6 9.10282ZM15.6 2.07425C15.0476 2.08045 14.5093 2.24992 14.053 2.56134C13.5967 2.87275 13.2427 3.31219 13.0356 3.82434C12.8285 4.33648 12.7775 4.89845 12.8891 5.43951C13.0006 5.98057 13.2698 6.47654 13.6626 6.86499C14.0554 7.25344 14.5543 7.51701 15.0966 7.62253C15.6389 7.72804 16.2002 7.67079 16.71 7.45797C17.2198 7.24515 17.6553 6.88628 17.9616 6.42653C18.2679 5.96678 18.4314 5.42669 18.4314 4.87425C18.4269 4.12733 18.1262 3.41272 17.5954 2.88724C17.0645 2.36177 16.3469 2.06835 15.6 2.07139V2.07425Z" fill="#15A600"/>
</svg>
