<svg width="20" height="20" viewBox="0 0 20 20" fill="none" xmlns="http://www.w3.org/2000/svg">
<g clip-path="url(#clip0_312_3454)">
<path d="M6.18862 10.9247C6.02302 10.926 5.86466 10.9928 5.74822 11.1106C5.63178 11.2284 5.56676 11.3875 5.56739 11.5531V12.6137C5.56739 13.6412 6.41302 14.4915 7.44054 14.4915H8.81057C9.83809 14.4915 10.6837 13.6412 10.6837 12.6137V11.5507C10.6837 11.4685 10.6675 11.3871 10.6361 11.3112C10.6046 11.2352 10.5585 11.1662 10.5004 11.1081C10.4423 11.05 10.3733 11.0039 10.2973 10.9724C10.2214 10.9409 10.14 10.9247 10.0578 10.9247C9.97556 10.9247 9.89416 10.9409 9.81822 10.9724C9.74227 11.0039 9.67327 11.05 9.61514 11.1081C9.55702 11.1662 9.51091 11.2352 9.47945 11.3112C9.44799 11.3871 9.4318 11.4685 9.4318 11.5507V12.6137C9.43404 12.6962 9.41956 12.7783 9.38922 12.8551C9.35889 12.9319 9.31333 13.0017 9.25529 13.0604C9.19724 13.1191 9.12792 13.1655 9.05149 13.1967C8.97506 13.2279 8.89311 13.2433 8.81057 13.242H7.44054C7.3578 13.2436 7.27559 13.2284 7.19889 13.1974C7.12218 13.1663 7.05257 13.12 6.99428 13.0613C6.93598 13.0025 6.89021 12.9326 6.85973 12.8556C6.82925 12.7787 6.81469 12.6964 6.81694 12.6137V11.5507C6.81694 11.3847 6.75099 11.2255 6.6336 11.1081C6.51621 10.9907 6.357 10.9247 6.19098 10.9247H6.18862ZM9.93966 2.27942C9.77487 2.28066 9.61722 2.34684 9.50092 2.46358C9.38461 2.58033 9.31904 2.73823 9.31842 2.90302V4.13368C9.31842 5.1612 10.1641 6.00683 11.1916 6.00683H12.5569C13.0535 6.00497 13.5294 5.80718 13.881 5.45643C14.2327 5.10568 14.4316 4.63033 14.4348 4.13368V2.90538C14.4348 2.73936 14.3688 2.58015 14.2514 2.46276C14.134 2.34537 13.9748 2.27942 13.8088 2.27942C13.6428 2.27942 13.4836 2.34537 13.3662 2.46276C13.2488 2.58015 13.1828 2.73936 13.1828 2.90538V4.13604C13.1845 4.21858 13.1693 4.30058 13.1384 4.37713C13.1075 4.45367 13.0614 4.52317 13.0029 4.58143C12.9445 4.63969 12.8748 4.68552 12.7981 4.71614C12.7215 4.74677 12.6394 4.76156 12.5569 4.75964H11.1916C11.1091 4.76192 11.027 4.74734 10.9503 4.71681C10.8736 4.68628 10.8039 4.64043 10.7456 4.58206C10.6872 4.5237 10.6413 4.45404 10.6108 4.37735C10.5803 4.30066 10.5657 4.21855 10.568 4.13604V2.90538C10.5677 2.82318 10.5512 2.74184 10.5194 2.66601C10.4877 2.59019 10.4413 2.52136 10.383 2.46345C10.3246 2.40554 10.2554 2.3597 10.1794 2.32852C10.1033 2.29735 10.0219 2.28147 9.93966 2.28178V2.27942Z" fill="#D61842"/>
<path d="M5.00784 10.6436C4.5114 10.6455 4.0358 10.8433 3.68454 11.1942C3.33328 11.545 3.13481 12.0203 3.13232 12.5168V16.7355H4.38424V12.5191C4.38424 12.1648 4.65116 11.8979 5.00784 11.8979H11.2674C11.6265 11.8979 11.891 12.1624 11.891 12.5191V16.7379H13.1453V12.5191C13.1422 12.0229 12.9435 11.5479 12.5924 11.1972C12.2413 10.8465 11.766 10.6484 11.2698 10.646L5.00784 10.6436ZM8.7636 1.87781C8.26676 1.87967 7.79079 2.07787 7.43947 2.4292C7.08815 2.78052 6.88995 3.25648 6.88808 3.75332V7.99568H8.14V3.75332C8.14 3.39665 8.40692 3.12973 8.7636 3.12973H15.0232C15.3822 3.12973 15.6468 3.39665 15.6468 3.75332V7.99568H16.9011V3.75332C16.8986 3.25667 16.7002 2.78107 16.349 2.42988C15.9978 2.07869 15.5222 1.88029 15.0256 1.87781H8.7636Z" fill="#D61842"/>
<path d="M1.24958 16.2513C1.08479 16.2519 0.926889 16.3175 0.810143 16.4338C0.693397 16.5501 0.627224 16.7078 0.625981 16.8725C0.62598 17.0381 0.691605 17.197 0.808484 17.3143C0.925364 17.4316 1.08397 17.4979 1.24958 17.4985H18.7481C18.8305 17.4988 18.9122 17.4828 18.9884 17.4515C19.0646 17.4202 19.1339 17.3742 19.1923 17.316C19.2506 17.2578 19.2969 17.1887 19.3286 17.1126C19.3602 17.0365 19.3764 16.9549 19.3764 16.8725C19.3761 16.7903 19.3596 16.709 19.3279 16.6332C19.2961 16.5573 19.2498 16.4885 19.1914 16.4306C19.1331 16.3727 19.0639 16.3269 18.9878 16.2957C18.9118 16.2645 18.8303 16.2486 18.7481 16.2489L1.24958 16.2513ZM1.24958 7.49732C1.16738 7.49763 1.08604 7.51413 1.01021 7.54587C0.934387 7.57761 0.865555 7.62398 0.807649 7.68233C0.749742 7.74067 0.703895 7.80985 0.672724 7.88592C0.641554 7.96198 0.62567 8.04344 0.625981 8.12564C0.627224 8.29043 0.693397 8.44808 0.810143 8.56438C0.926889 8.68068 1.08479 8.74626 1.24958 8.74688H18.7481C18.9137 8.74751 19.0728 8.68248 19.1906 8.56604C19.3084 8.44961 19.3752 8.29125 19.3764 8.12564C19.3767 8.04304 19.3607 7.9612 19.3292 7.88482C19.2978 7.80845 19.2515 7.73906 19.1931 7.68065C19.1347 7.62225 19.0653 7.57598 18.9889 7.54451C18.9125 7.51305 18.8307 7.49701 18.7481 7.49732H1.24958Z" fill="#D61842"/>
<path d="M1.24957 0.62354C1.08397 0.624165 0.92536 0.690389 0.80848 0.807712C0.6916 0.925035 0.625975 1.08389 0.625977 1.2495V18.7504C0.627842 18.9152 0.694614 19.0726 0.811803 19.1884C0.928991 19.3043 1.08714 19.3693 1.25194 19.3693C1.41714 19.3693 1.57564 19.304 1.69289 19.1876C1.81015 19.0712 1.87665 18.9132 1.8779 18.748V1.2495C1.8779 1.08348 1.81195 0.924269 1.69456 0.806879C1.57717 0.689489 1.41559 0.62354 1.24957 0.62354ZM18.7481 0.62354C18.5825 0.624165 18.4239 0.690389 18.307 0.807712C18.1901 0.925035 18.1245 1.08389 18.1245 1.2495V18.7504C18.1257 18.9152 18.1919 19.0728 18.3087 19.1891C18.4254 19.3054 18.5833 19.371 18.7481 19.3716C18.9137 19.3723 19.0728 19.3072 19.1906 19.1908C19.3083 19.0744 19.3752 18.916 19.3764 18.7504V1.2495C19.3764 1.1671 19.3602 1.08551 19.3285 1.00941C19.2969 0.933309 19.2506 0.864198 19.1922 0.806042C19.1339 0.747885 19.0646 0.701826 18.9884 0.670508C18.9122 0.63919 18.8305 0.623229 18.7481 0.62354Z" fill="#D61842"/>
</g>
<defs>
<clipPath id="clip0_312_3454">
<rect width="20" height="20" fill="white"/>
</clipPath>
</defs>
</svg>
