<svg width="20" height="21" viewBox="0 0 20 21" fill="none" xmlns="http://www.w3.org/2000/svg">
<g clip-path="url(#clip0_2764_7060)">
<path d="M3.85415 11.0927C5.13859 11.0927 6.26985 10.4592 6.96828 9.48904C7.6413 10.4572 8.75794 11.0927 10.0245 11.0927C11.2877 11.0927 12.4035 10.4604 13.0771 9.49656C13.7715 10.4621 14.9031 11.0927 16.1808 11.0927C18.6318 11.0927 20.4856 8.71756 19.8867 6.34014L18.7182 1.70099C18.5407 0.996143 17.9085 0.503906 17.181 0.503906H2.81017C2.08273 0.503906 1.45068 0.996143 1.27315 1.70103L0.112161 6.31254C-0.219072 7.62765 0.216307 8.77369 0.985228 9.81707V18.9123C0.985228 19.7854 1.6902 20.4958 2.56416 20.4958H17.4329C18.3068 20.4958 19.0121 19.7854 19.0121 18.9123V13.0138C19.0121 12.6311 18.6903 12.321 18.3073 12.321C17.9243 12.321 17.6024 12.6311 17.6024 13.0138V18.9123C17.6024 19.0215 17.5421 19.1289 17.4329 19.1289H13.0744V13.7181C13.0744 13.3355 12.7634 13.0202 12.3804 13.0202H7.61704C7.23407 13.0202 6.92304 13.3354 6.92304 13.7181V19.1289H2.56416C2.45493 19.1289 2.39491 19.0215 2.39491 18.9123V10.8018C2.82209 10.9919 3.33885 11.0927 3.85415 11.0927ZM13.7578 1.87088H17.181C17.2719 1.87088 17.3509 1.9417 17.3731 2.02979L18.5414 6.67351C18.9213 8.18204 17.7455 9.70476 16.1865 9.70476C14.8437 9.70476 13.7578 8.61499 13.7578 7.27258V1.87088ZM7.69192 1.87088H12.3909V7.27258C12.3909 8.57671 11.3706 9.70711 10.0388 9.70711C8.68519 9.70711 7.69192 8.56407 7.69192 7.25046V1.87088ZM8.33269 14.4299H11.6647V19.1289H8.33269V14.4299ZM1.45589 6.65065L2.61765 2.02987C2.63986 1.94174 2.71927 1.87092 2.81017 1.87092H6.28223V7.2505C6.28223 8.60452 5.18819 9.70617 3.83399 9.70711C2.25843 9.70613 1.07135 8.17769 1.45589 6.65065Z" fill="#15A600"/>
</g>
<defs>
<clipPath id="clip0_2764_7060">
<rect width="20" height="20" fill="white" transform="translate(0 0.5)"/>
</clipPath>
</defs>
</svg>
