<svg width="20" height="20" viewBox="0 0 20 20" fill="none" xmlns="http://www.w3.org/2000/svg">
<g clip-path="url(#clip0_2233_1233)">
<path d="M1.525 1.51667L2.4 0.758333C2.6396 0.518559 2.9241 0.328349 3.23724 0.198574C3.55038 0.0687997 3.88603 0.00200367 4.225 0.00200367C4.56396 0.00200367 4.89961 0.0687997 5.21275 0.198574C5.5259 0.328349 5.8104 0.518559 6.05 0.758333C6.075 0.783333 7.61666 2.79167 7.61666 2.79167C8.07401 3.27277 8.32905 3.9112 8.32905 4.575C8.32905 5.2388 8.07401 5.87723 7.61666 6.35833L6.65 7.575C7.86666 10.3333 9.75833 12.2333 12.425 13.3667L13.6417 12.3917C14.1208 11.9305 14.76 11.6729 15.425 11.6729C16.09 11.6729 16.7292 11.9305 17.2083 12.3917C17.2083 12.3917 19.2167 13.9333 19.2417 13.9583C20.25 14.9667 20.25 16.6 19.2833 17.5667L18.45 18.525C17.4917 19.4833 16.2 20.0083 14.8 20.0083C8.43333 20.0083 -3.8147e-06 11.5667 -3.8147e-06 5.20833C-3.8147e-06 3.81667 0.524996 2.51667 1.525 1.525V1.51667ZM14.8 18.3333C15.75 18.3333 16.625 17.9833 17.225 17.375L18.0583 16.4167C18.2235 16.2508 18.3189 16.0281 18.3251 15.7941C18.3313 15.5602 18.2478 15.3327 18.0917 15.1583C18.0917 15.1583 16.1 13.625 16.075 13.6C15.7333 13.2583 15.1333 13.2583 14.7833 13.6C14.7583 13.625 13.0833 14.9667 13.0833 14.9667C12.85 15.15 12.5417 15.2 12.2667 15.0917C8.81666 13.775 6.34166 11.3083 4.91666 7.75C4.80833 7.475 4.85 7.15833 5.04166 6.91667C5.04166 6.91667 6.38333 5.23333 6.4 5.21667C6.75833 4.85833 6.75833 4.28333 6.4 3.925C6.375 3.9 4.84166 1.90833 4.84166 1.90833C4.48333 1.58333 3.925 1.59167 3.54166 1.975L2.66666 2.73333C2.025 3.375 1.66666 4.25 1.66666 5.2C1.66666 11 9.80833 18.3333 14.8 18.3333Z" fill="#15A600"/>
</g>
<defs>
<clipPath id="clip0_2233_1233">
<rect width="20" height="20" fill="white" transform="matrix(-1 0 0 1 20 0)"/>
</clipPath>
</defs>
</svg>
