<svg width="69" height="32" viewBox="0 0 69 32" fill="none" xmlns="http://www.w3.org/2000/svg">
<g clip-path="url(#clip0_1_10546)" filter="url(#filter0_d_1_10546)">
<path d="M59.4724 23.9681H8.68715C6.11978 23.9681 4.0332 21.8815 4.0332 19.3078V4.6852C4.0332 2.11783 6.11978 0.03125 8.68715 0.03125H59.4724C62.0461 0.03125 64.1264 2.11783 64.1264 4.6852V19.3086C64.1264 21.8815 62.0398 23.9681 59.4724 23.9681Z" fill="url(#paint0_linear_1_10546)"/>
<path d="M56.0398 7.625L52.829 19.8974L52.8164 19.9218H55.3246L58.5472 7.625H56.0398Z" fill="#292929"/>
<path d="M16.2693 14.6067C15.9385 14.7812 15.4877 14.883 15.0606 14.883C14.159 14.883 13.6474 14.7385 13.5938 14.0114V13.9633C13.5938 13.9333 13.5874 13.9033 13.5874 13.8733V11.7567L13.5938 11.504V10.0072H13.5874V9.3701L13.5938 9.11747V7.67352L11.3572 7.968C12.8722 7.67352 13.7382 6.47668 13.7382 5.28615V4.55273H11.2246V7.98615L11.0801 8.028V14.3896C11.1646 16.1754 12.3424 17.2396 14.2727 17.2396C14.958 17.2396 15.7096 17.0833 16.2867 16.8243L16.2985 16.818V14.5869L16.2693 14.6067Z" fill="#292929"/>
<path d="M16.6664 7.16211L9.61328 8.25V10.0358L16.6664 8.9479V7.16211Z" fill="#292929"/>
<path d="M16.6664 9.77734L9.61328 10.8652V12.5729L16.6664 11.485V9.77734Z" fill="#292929"/>
<path d="M24.5731 10.6021C24.4712 8.61814 23.2325 7.43945 21.2115 7.43945C20.051 7.43945 19.0886 7.89024 18.4396 8.73814C17.7899 9.58603 17.4473 10.8302 17.4473 12.3397C17.4473 13.8492 17.7899 15.0997 18.4396 15.9413C19.0894 16.7892 20.051 17.24 21.2115 17.24C23.2317 17.24 24.4767 16.0558 24.5731 14.0592V17.0537H27.0867V7.64314L24.5731 8.02761M24.7049 12.3397C24.7049 14.1018 23.7788 15.2379 22.3538 15.2379C20.8807 15.2379 20.0028 14.1555 20.0028 12.3397C20.0028 10.5176 20.8807 9.4234 22.3538 9.4234C23.0691 9.4234 23.6707 9.69972 24.086 10.2295C24.4886 10.7529 24.7049 11.48 24.7049 12.3397Z" fill="#292929"/>
<path d="M34.4163 7.43926C32.3897 7.43926 31.151 8.61794 31.0547 10.6082V4.9082L28.541 5.29268V17.0543H31.0547V14.0598C31.151 16.0564 32.3952 17.2406 34.4163 17.2406C36.7855 17.2406 38.1986 15.4066 38.1986 12.3403C38.1986 9.27399 36.7847 7.43926 34.4163 7.43926ZM33.2731 15.2377C31.8418 15.2377 30.9221 14.1016 30.9221 12.3395C30.9221 11.4798 31.1384 10.7519 31.541 10.2348C31.9563 9.70583 32.5571 9.42873 33.2731 9.42873C34.7463 9.42873 35.6242 10.5174 35.6242 12.345C35.6242 14.1553 34.7463 15.2377 33.2731 15.2377Z" fill="#292929"/>
<path d="M45.0354 7.43926C43.0088 7.43926 41.7702 8.61794 41.6738 10.6082V4.9082L39.1602 5.29268V17.0543H41.6738V14.0598C41.7702 16.0564 43.0144 17.2406 45.0354 17.2406C47.4046 17.2406 48.8178 15.4066 48.8178 12.3403C48.8178 9.27399 47.4046 7.43926 45.0354 7.43926ZM43.8986 15.2377C42.4673 15.2377 41.5475 14.1016 41.5475 12.3395C41.5475 11.4798 41.7638 10.7519 42.1665 10.2348C42.5817 9.70583 43.1825 9.42873 43.8986 9.42873C45.3717 9.42873 46.2496 10.5174 46.2496 12.345C46.2496 14.1553 45.3717 15.2377 43.8986 15.2377Z" fill="#292929"/>
<path d="M48.8242 7.625H51.5061L53.689 17.0411H51.2834L48.8242 7.625Z" fill="#292929"/>
</g>
<defs>
<filter id="filter0_d_1_10546" x="0" y="0" width="68.1582" height="32" filterUnits="userSpaceOnUse" color-interpolation-filters="sRGB">
<feFlood flood-opacity="0" result="BackgroundImageFix"/>
<feColorMatrix in="SourceAlpha" type="matrix" values="0 0 0 0 0 0 0 0 0 0 0 0 0 0 0 0 0 0 127 0" result="hardAlpha"/>
<feOffset dy="4"/>
<feGaussianBlur stdDeviation="2"/>
<feComposite in2="hardAlpha" operator="out"/>
<feColorMatrix type="matrix" values="0 0 0 0 0 0 0 0 0 0 0 0 0 0 0 0 0 0 0.25 0"/>
<feBlend mode="normal" in2="BackgroundImageFix" result="effect1_dropShadow_1_10546"/>
<feBlend mode="normal" in="SourceGraphic" in2="effect1_dropShadow_1_10546" result="shape"/>
</filter>
<linearGradient id="paint0_linear_1_10546" x1="4.03335" y1="11.9997" x2="64.1262" y2="11.9997" gradientUnits="userSpaceOnUse">
<stop stop-color="#3BFF9D"/>
<stop offset="1" stop-color="#3BFFC8"/>
</linearGradient>
<clipPath id="clip0_1_10546">
<rect width="60.1579" height="24" fill="white" transform="translate(4)"/>
</clipPath>
</defs>
</svg>
