<svg width="16" height="17" viewBox="0 0 16 17" fill="none" xmlns="http://www.w3.org/2000/svg">
<path d="M15.4052 7.16553L15.0493 8.04595C14.9369 8.34566 14.9369 8.66411 15.0493 8.96383L15.4052 9.84424C15.6113 10.3687 15.4427 10.9682 14.9744 11.3054L14.1876 11.8486C13.9254 12.0359 13.7568 12.3169 13.6819 12.6166L13.5133 13.5532C13.4009 14.1152 12.9326 14.5273 12.3706 14.546L11.4153 14.5835C11.0968 14.6022 10.7971 14.7334 10.5723 14.9581L9.91667 15.6512C9.5233 16.0633 8.90513 16.157 8.4181 15.876L7.59388 15.389C7.31289 15.2204 6.99445 15.1829 6.676 15.2579L5.73939 15.4826C5.19615 15.6138 4.61545 15.3515 4.3532 14.8457L3.92236 13.9841C3.7725 13.7031 3.52898 13.4783 3.22927 13.3846L2.33012 13.0849C1.78689 12.8976 1.44971 12.3731 1.5059 11.8111L1.59956 10.8558C1.63703 10.5373 1.54337 10.2189 1.33731 9.97537L0.737882 9.22608C0.381969 8.77651 0.381969 8.15834 0.737882 7.70877L1.33731 6.95948C1.54337 6.71596 1.63703 6.39751 1.59956 6.07907L1.5059 5.12372C1.44971 4.56175 1.78689 4.03725 2.33012 3.84993L3.22927 3.55021C3.52898 3.45655 3.7725 3.23177 3.92236 2.95078L4.3532 2.0891C4.61545 1.58333 5.17742 1.32108 5.73939 1.4522L6.676 1.67699C6.97571 1.75192 7.31289 1.71446 7.59388 1.54587L8.4181 1.05883C8.90513 0.777844 9.5233 0.852773 9.91667 1.28361L10.5723 1.97671C10.7971 2.20149 11.0968 2.35135 11.4153 2.35135L12.3706 2.38882C12.9326 2.40755 13.4196 2.81966 13.5133 3.38162L13.6819 4.31824C13.738 4.63668 13.9254 4.91767 14.1876 5.08626L14.9744 5.62949C15.4427 6.0416 15.63 6.64103 15.4052 7.16553Z" fill="#00A64F"/>
<g opacity="0.15">
<path d="M4.89644 14.7896L4.46559 13.9279C4.31574 13.6469 4.07222 13.4221 3.7725 13.3284L2.87335 13.0287C2.33012 12.8414 1.99294 12.3169 2.04914 11.7549L2.1428 10.7996C2.18026 10.4811 2.0866 10.1627 1.88055 9.91918L1.28112 9.16989C0.925204 8.72032 0.925204 8.10215 1.28112 7.65258L1.88055 6.90329C2.0866 6.65977 2.18026 6.34132 2.1428 6.02288L2.04914 5.06753C1.99294 4.50556 2.33012 3.98106 2.87335 3.79374L3.7725 3.49402C4.07222 3.40036 4.31574 3.17558 4.46559 2.89459L4.89644 2.03291C5.04629 1.7332 5.30854 1.52714 5.58953 1.43348C5.08376 1.35855 4.57799 1.6208 4.3532 2.08911L3.92236 2.95079C3.7725 3.23177 3.52898 3.45656 3.22927 3.55022L2.33012 3.84994C1.78689 4.03726 1.44971 4.56176 1.5059 5.12373L1.59956 6.07907C1.63703 6.39752 1.54337 6.71597 1.33731 6.95949L0.737881 7.70878C0.381969 8.15835 0.381969 8.77651 0.737881 9.22609L1.33731 9.97538C1.54337 10.2189 1.63703 10.5373 1.59956 10.8558L1.5059 11.8111C1.44971 12.3731 1.78689 12.8976 2.33012 13.0849L3.22927 13.3846C3.52898 13.4783 3.7725 13.7031 3.92236 13.9841L4.3532 14.8458C4.61545 15.3515 5.17742 15.6138 5.73939 15.4827L5.85178 15.4639C5.43967 15.389 5.08376 15.1642 4.89644 14.7896ZM8.11838 1.48968L8.9426 1.00264C9.01752 0.965174 9.09245 0.927709 9.16738 0.908977C8.90513 0.871512 8.62415 0.927709 8.39936 1.05883L7.57514 1.54587C7.50021 1.58334 7.42529 1.6208 7.35036 1.63953C7.61261 1.677 7.87486 1.63953 8.11838 1.48968ZM11.9398 14.5086C11.8461 14.5086 11.7524 14.5273 11.6775 14.546L12.3519 14.5086C12.4455 14.5086 12.5204 14.4898 12.6141 14.4711L11.9398 14.5086ZM8.9426 15.8011L8.11838 15.3141C7.83739 15.1455 7.51895 15.108 7.2005 15.1829L7.08811 15.2017C7.25669 15.2204 7.40655 15.2766 7.55641 15.3515L8.38063 15.8386C8.69908 16.0259 9.05499 16.0446 9.39217 15.9322C9.24231 15.9322 9.09245 15.8948 8.9426 15.8011Z" fill="#666B88"/>
</g>
<path d="M5.00879 7.31551L7.35032 9.99422L12.1458 6.13538" fill="#00A64F"/>
<path d="M6.78851 11.3803C6.52626 11.3803 6.26401 11.2679 6.07669 11.0619L3.73516 8.38316C3.39798 7.98978 3.43544 7.40908 3.81009 7.05317C4.20346 6.71599 4.78416 6.75345 5.14008 7.1281L6.90091 9.13245L11.0033 5.83558C11.3966 5.51713 11.9961 5.57332 12.3145 5.98543C12.633 6.39754 12.5768 6.97824 12.1647 7.29669L7.36921 11.1743C7.20062 11.3054 6.99457 11.3803 6.78851 11.3803Z" fill="white"/>
</svg>
